<svg width="216" height="43" viewBox="0 0 216 43" fill="none" xmlns="http://www.w3.org/2000/svg">
<path d="M14.3965 26.8323H12.2587C8.4324 27.0498 4.67887 27.97 1.18569 29.5468C1.18569 29.5468 0.53718 29.9311 0.681298 30.4356C0.825416 30.9401 1.0416 30.9881 1.73817 31.3004C1.0416 30.9881 0.753357 30.6999 0.681298 30.4356C0.609239 30.1714 1.18569 29.5468 1.18569 29.5468C1.13006 29.5972 1.08945 29.662 1.06826 29.734C1.04707 29.8061 1.04616 29.8826 1.06562 29.9551C1.35386 30.94 5.86948 31.8769 9.40036 31.7328C12.9313 31.5886 13.7239 30.5797 14.0602 29.9792C13.9922 28.9029 14.1059 27.8227 14.3965 26.7842V26.8323Z" fill="url(#paint0_linear_552_654)"/>
<path d="M14.0602 30.0274C13.7239 30.6279 12.667 31.6608 9.40036 31.7809C6.13369 31.901 1.35386 30.9882 1.06562 30.0033C1.04616 29.9308 1.04707 29.8543 1.06826 29.7822C1.08945 29.7102 1.13006 29.6454 1.18569 29.595C1.18569 29.595 0.53718 29.9793 0.681298 30.4838C0.825416 30.9882 1.0416 31.0363 1.73817 31.3485C5.02267 32.8479 8.57718 33.6652 12.1867 33.7508H14.8048C14.6974 33.5016 14.6091 33.2446 14.5406 32.982C14.3054 32.1513 14.1605 31.2976 14.1083 30.4357C14.1202 30.3079 14.1202 30.1792 14.1083 30.0514L14.0602 30.0274Z" fill="url(#paint1_linear_552_654)"/>
<path d="M15.429 25.9434L14.9726 26.1835C14.7324 26.1835 14.5403 26.4238 14.3962 26.8322C14.1056 27.8707 13.9919 28.9509 14.0599 30.0272C14.0718 30.155 14.0718 30.2836 14.0599 30.4115C14.126 31.2832 14.2871 32.1451 14.5403 32.9819C14.6142 33.2614 14.7106 33.5347 14.8285 33.7987C14.9339 34.0705 15.1178 34.3046 15.357 34.4712L16.3658 35.1199C15.7686 34.4304 15.3482 33.6059 15.1408 32.7177C14.9113 31.9356 14.7742 31.1294 14.7324 30.3154C14.6099 28.8366 14.8576 27.3506 15.4531 25.9915L15.429 25.9434Z" fill="url(#paint2_linear_552_654)"/>
<path d="M215.417 19.1691C215.628 20.697 215.366 22.2531 214.666 23.6277C213.966 25.0022 212.862 26.129 211.501 26.8562C211.289 29.3821 210.748 31.8694 209.892 34.2551C210.285 34.0547 210.655 33.813 210.997 33.5343C213.975 31.1321 215.801 25.607 215.441 19.3132C215.452 19.2658 215.452 19.2165 215.441 19.1691H215.417ZM215.417 18.2322C215.417 18.5445 215.417 18.8568 215.417 19.1691C215.44 18.8893 215.44 18.6081 215.417 18.3284V18.2322Z" fill="url(#paint3_linear_552_654)"/>
<path d="M157.529 40.765C157.378 40.7867 157.224 40.7867 157.073 40.765H155.271C154.78 40.5345 154.351 40.1884 154.022 39.7561C154.23 40.0889 154.516 40.3657 154.855 40.5625C155.194 40.7594 155.576 40.87 155.968 40.8851H157.529V40.765ZM163.894 36.3689C164.087 34.8555 164.975 33.5104 165.912 33.3422H166.128L204.896 31.5165C205.521 31.5165 206.001 31.8288 206.193 32.5735C206.329 33.1907 206.329 33.8299 206.193 34.4472C206.117 35.1919 205.858 35.9062 205.439 36.5265C205.019 37.1468 204.454 37.6539 203.791 38.0026H203.359L165.168 38.7952C164.567 38.7952 164.111 38.4829 163.894 37.7622C163.807 37.2938 163.807 36.8134 163.894 36.345V36.3689ZM211.718 21.9556C211.718 22.7963 211.117 28.6579 200.452 28.9942L166.489 29.8109C165.62 29.9405 164.733 29.8645 163.898 29.5892C163.064 29.3139 162.306 28.8469 161.685 28.2255C161.565 35.1919 160.171 40.2366 158.034 40.693L204.728 39.684C208.859 39.3477 211.814 31.6365 211.694 21.9556H211.718Z" fill="url(#paint4_linear_552_654)"/>
<path d="M203.431 38.0265L165.24 38.8193C164.639 38.8193 164.183 38.507 163.967 37.7863C164.183 38.507 164.639 38.9154 165.24 38.8193L203.431 38.0265ZM206.265 32.5735C206.073 31.8289 205.593 31.4205 204.968 31.5166L166.2 33.3423H165.864C164.927 33.5104 164.039 34.8556 163.846 36.369C163.918 35.836 164.072 35.3175 164.303 34.8316C164.302 35.132 164.343 35.431 164.423 35.7205C164.615 36.4411 165.095 36.8495 165.672 36.7534L203.887 35.9847H204.295C205.088 35.9847 205.905 34.9517 206.409 33.7506C206.432 33.9823 206.432 34.2155 206.409 34.4472C206.545 33.83 206.545 33.1908 206.409 32.5735H206.265Z" fill="url(#paint5_linear_552_654)"/>
<path d="M206.313 33.7507C205.809 34.9518 204.992 35.8647 204.2 35.9848H203.935L165.72 36.7535C165.144 36.7535 164.663 36.4412 164.471 35.7206C164.391 35.4311 164.351 35.1321 164.351 34.8318C164.12 35.3176 163.966 35.8361 163.895 36.3691C163.807 36.8375 163.807 37.318 163.895 37.7865C164.111 38.5071 164.567 38.9155 165.168 38.8194L203.359 38.0266H203.791C204.454 37.678 205.02 37.171 205.439 36.5507C205.858 35.9304 206.117 35.2161 206.193 34.4714C206.216 34.2397 206.216 34.0064 206.193 33.7748L206.313 33.7507Z" fill="url(#paint6_linear_552_654)"/>
<path d="M161.637 28.2975C160.655 27.3727 159.842 26.2834 159.235 25.0786C159.499 32.9339 158.154 39.1316 155.944 39.7562H155.68C155.423 39.7792 155.165 39.7293 154.935 39.612H154.094C154.423 40.0443 154.852 40.3904 155.343 40.6209H157.145C157.296 40.6426 157.45 40.6426 157.601 40.6209H158.058C160.195 40.2366 161.589 35.1198 161.709 28.1534L161.637 28.2975Z" fill="url(#paint7_linear_552_654)"/>
<path d="M215.417 19.1451C215.428 19.1925 215.428 19.2419 215.417 19.2893C215.429 19.2338 215.429 19.1765 215.417 19.1211V19.1451ZM208.763 6.24519C211.528 8.07231 213.468 10.909 214.168 14.1485C214.481 15.2431 214.714 16.3591 214.864 17.4876H214.72C214.681 16.8443 214.568 16.2076 214.384 15.5899C214.139 14.6179 213.688 13.7096 213.063 12.9264C212.437 12.1432 211.651 11.5033 210.757 11.0496C210.228 9.39514 209.561 7.78801 208.763 6.24519ZM214.504 13.8842C214.069 12.2729 213.414 10.7291 212.558 9.29606C211.555 7.39045 209.902 5.90758 207.899 5.11621C208.843 6.8511 209.584 8.6888 210.109 10.5932C210.941 13.5643 211.448 16.6169 211.622 19.6976C211.791 22.0987 211.751 24.5101 211.502 26.9043C212.862 26.1771 213.966 25.0503 214.667 23.6758C215.367 22.3013 215.628 20.7452 215.417 19.2173C215.417 18.905 215.417 18.5926 215.417 18.2804C215.283 16.7829 215.001 15.3023 214.576 13.8602L214.504 13.8842Z" fill="url(#paint8_linear_552_654)"/>
<path d="M214.168 14.1484C213.468 10.909 211.528 8.07224 208.763 6.24512C209.561 7.78794 210.228 9.39507 210.757 11.0496C211.651 11.5032 212.437 12.1431 213.063 12.9263C213.688 13.7095 214.139 14.6178 214.384 15.5898C214.568 16.2076 214.68 16.8442 214.72 17.4875H214.864C214.713 16.359 214.481 15.243 214.168 14.1484Z" fill="url(#paint9_linear_552_654)"/>
<path d="M204.368 17.9439C205.257 17.7998 206.073 18.6165 206.434 19.8897C206.536 20.2502 206.601 20.6207 206.626 20.9948C206.746 22.8685 205.953 24.526 204.824 24.6942H204.536L166.369 25.6311C165.504 25.7992 164.615 24.9344 164.255 23.6372C164.244 23.4933 164.244 23.3487 164.255 23.2048C164.015 21.7154 164.543 20.3702 165.456 20.106H165.792L204.488 18.0161L204.368 17.9439ZM205.016 7.8066C205.027 7.92647 205.027 8.04698 205.016 8.16685C205.028 8.33481 205.028 8.50341 205.016 8.67137C205.232 10.2568 204.656 11.458 203.623 11.3859L163.703 13.1395H163.486C162.598 13.1395 161.637 11.9864 161.253 10.7372C161.253 10.5931 161.253 10.449 161.132 10.3289C160.868 8.98366 161.253 7.92672 162.021 7.66247C162.14 7.63853 162.263 7.63853 162.381 7.66247L201.846 4.82787H202.11C203.191 4.82787 204.344 6.26917 204.824 7.95073L205.016 7.8066ZM157.145 4.51557L159.547 4.27526L202.158 1.44065C202.158 1.44065 206.409 1.00825 209.1 10.3049C209.839 13.0367 210.353 15.8247 210.637 18.6407C210.637 18.6407 210.277 16.6228 209.508 13.9803C208.163 9.32002 205.641 2.78592 201.918 2.52168L159.883 5.40438C159.883 5.40438 158.731 5.83676 159.259 7.63843C159.427 8.26301 159.259 8.09485 158.899 7.63843L157.073 4.51557H157.145ZM209.988 10.5931C209.464 8.68871 208.723 6.85101 207.779 5.11612C206.169 2.20943 204.176 0.527761 202.11 0.647872L153.014 4.15517C152.67 4.21587 152.346 4.35611 152.067 4.56468C151.787 4.77325 151.56 5.04435 151.405 5.35629C151.64 4.96941 151.961 4.64085 152.341 4.39534L154.887 4.13113C156.569 4.13113 158.298 6.84564 159.691 11.3378C160.651 14.8331 161.271 18.4131 161.541 22.0277C161.709 24.1052 161.773 26.1896 161.733 28.2735C162.354 28.8948 163.112 29.362 163.946 29.6373C164.781 29.9127 165.668 29.9886 166.537 29.859L200.501 29.0422C211.165 28.7059 211.742 22.8445 211.766 22.0037C211.886 31.6126 208.932 39.3958 204.8 39.7321C206.89 39.564 208.691 37.4981 209.94 34.2311C210.797 31.8454 211.338 29.358 211.55 26.8322C211.799 24.438 211.839 22.0267 211.67 19.6255C211.496 16.5449 210.989 13.4922 210.157 10.5211L209.988 10.5931Z" fill="url(#paint10_linear_552_654)"/>
<path d="M205.256 8.69538C205.39 9.39698 205.289 10.1232 204.968 10.7613C204.968 10.7613 204.968 10.6172 204.968 10.5211C204.979 10.4012 204.979 10.2806 204.968 10.1607C204.488 8.45513 203.311 7.10991 202.254 7.03784H201.893L162.453 9.8484C162.264 9.82985 162.074 9.86516 161.904 9.95016C161.734 10.0352 161.591 10.1664 161.492 10.3289C161.492 10.3289 161.492 10.3289 161.492 10.2088C161.492 10.0887 161.492 10.473 161.613 10.6171C161.997 11.9864 162.958 13.0194 163.846 13.0194H164.063L203.983 11.2658C205.016 11.2658 205.593 10.1367 205.376 8.55126L205.256 8.69538Z" fill="url(#paint11_linear_552_654)"/>
<path d="M206.481 19.8897C206.551 20.1589 206.607 20.4316 206.649 20.7065C206.513 20.3424 206.266 20.0304 205.943 19.8148C205.619 19.5992 205.236 19.4909 204.848 19.5054L166.176 21.5954H165.864C164.951 21.7635 164.375 22.9886 164.495 24.3819C164.37 24.1457 164.273 23.8958 164.207 23.6372C164.567 24.9344 165.456 25.7992 166.32 25.6311L204.488 24.6942H204.776C205.905 24.526 206.697 22.8685 206.577 20.9948C206.552 20.6207 206.488 20.2502 206.385 19.8897H206.481Z" fill="url(#paint12_linear_552_654)"/>
<path d="M206.481 19.8897C206.121 18.6165 205.304 17.7998 204.416 17.9439L165.72 20.0338H165.384C164.471 20.2981 163.942 21.6434 164.183 23.1328C164.171 23.2767 164.171 23.4213 164.183 23.5652C164.249 23.8238 164.346 24.0737 164.471 24.3099C164.351 22.9166 164.927 21.6914 165.84 21.5232H166.056L204.728 19.4333C205.116 19.4188 205.499 19.5271 205.823 19.7427C206.146 19.9583 206.393 20.2703 206.529 20.6344C206.487 20.3595 206.431 20.0869 206.361 19.8177L206.481 19.8897Z" fill="url(#paint13_linear_552_654)"/>
<path d="M205.256 7.78253C204.776 6.10097 203.623 4.73173 202.542 4.65967C203.623 4.65967 204.776 6.10097 205.256 7.78253Z" fill="url(#paint14_linear_552_654)"/>
<path d="M205.064 7.8066C204.584 6.12505 203.431 4.75566 202.35 4.68359H202.086L162.621 7.51835C162.503 7.49441 162.38 7.49441 162.261 7.51835C161.493 7.73455 161.108 8.83954 161.372 10.1848C161.372 10.1848 161.372 10.1848 161.372 10.3049C161.471 10.1424 161.614 10.0111 161.784 9.92615C161.954 9.84115 162.144 9.80584 162.333 9.82439L201.894 7.06192H202.182C203.239 7.06192 204.416 8.4792 204.896 10.1848C204.907 10.3046 204.907 10.4252 204.896 10.545C204.896 10.545 204.896 10.7133 204.896 10.7853C205.217 10.1472 205.318 9.42105 205.184 8.71946C205.196 8.5515 205.196 8.3829 205.184 8.21494C205.195 8.09508 205.195 7.97441 205.184 7.85455L205.064 7.8066Z" fill="url(#paint15_linear_552_654)"/>
<path d="M209.1 10.3051C206.409 1.00848 202.158 1.44088 202.158 1.44088L159.547 4.27548L157.145 4.51579L158.971 7.63866C159.259 8.16715 159.499 8.3353 159.331 7.63866C158.802 5.83699 159.955 5.40461 159.955 5.40461L201.99 2.52191C205.713 2.78615 208.235 9.32025 209.58 13.9806C210.349 16.623 210.709 18.6409 210.709 18.6409C210.425 15.825 209.911 13.037 209.172 10.3051H209.1Z" fill="url(#paint16_linear_552_654)"/>
<path d="M159.595 11.3619C158.298 6.86979 156.568 4.15527 154.791 4.15527L152.245 4.41948C151.864 4.665 151.544 4.99356 151.308 5.38043L152.701 5.2363C154.287 5.11619 155.944 7.7827 157.145 12.0346C157.896 14.6997 158.419 17.424 158.706 20.1781C158.706 20.8027 158.85 21.4512 158.898 22.0998C158.946 22.7484 159.018 24.0938 159.066 25.0547C159.674 26.2594 160.486 27.3487 161.468 28.2736C161.509 26.1897 161.444 24.1052 161.276 22.0278C161.006 18.4132 160.387 14.8332 159.427 11.3379L159.595 11.3619Z" fill="url(#paint17_linear_552_654)"/>
<path d="M16.1977 33.3423C16.0851 32.9655 16.0047 32.5796 15.9575 32.1892L26.7423 31.5166C26.8153 32.0763 26.9277 32.6302 27.0786 33.1741C27.1936 33.5688 27.3381 33.9542 27.5109 34.3272L16.7502 34.7115C16.5081 34.2806 16.3224 33.8205 16.1977 33.3423ZM27.4148 24.2859L16.2457 25.1026C15.9815 25.1026 15.6692 25.4149 15.429 25.9434C14.8336 27.3026 14.586 28.7886 14.7085 30.2674C14.7502 31.0814 14.8872 31.8876 15.1168 32.6696C15.3242 33.5579 15.7446 34.3824 16.3418 35.0719C16.4752 35.2105 16.6545 35.2958 16.8462 35.312H28.3036C28.0261 34.7855 27.8085 34.2297 27.655 33.6546C27.3042 32.4152 27.0789 31.1436 26.9825 29.8591C26.9825 29.6669 26.9825 29.4507 26.9825 29.2585C26.831 27.595 26.9857 25.9177 27.4389 24.3099L27.4148 24.2859Z" fill="url(#paint18_linear_552_654)"/>
<path d="M27.7511 24.7663L27.9672 23.9975L31.1619 22.2678L30.8736 23.8774L27.7511 24.7663ZM32.1947 20.9467L28.2555 23.3489C27.9192 23.3489 27.6309 23.7333 27.4148 24.3339C26.9616 25.9417 26.8069 27.6189 26.9585 29.2824C26.8459 28.1803 26.8459 27.0695 26.9585 25.9674C26.851 27.8851 27.0538 29.8075 27.5589 31.6606C27.6874 32.165 27.8644 32.6557 28.0874 33.126L31.3781 33.2941C31.1776 32.1891 31.0332 31.0746 30.9456 29.955C30.9338 29.8673 30.9338 29.7785 30.9456 29.6908C30.6334 25.559 31.1379 22.0517 32.1227 20.9226L32.1947 20.9467Z" fill="url(#paint19_linear_552_654)"/>
<path d="M33.54 38.5552C32.7688 37.6016 32.2265 36.484 31.9547 35.2882C31.7865 34.6636 31.6184 33.9909 31.4742 33.2462L28.1836 33.078C27.9606 32.6077 27.7836 32.117 27.6551 31.6127C27.15 29.7596 26.9472 27.8371 27.0546 25.9194C26.9421 27.0216 26.9421 28.1324 27.0546 29.2345C27.0546 29.4267 27.0546 29.6429 27.0546 29.8351C27.1511 31.1196 27.3764 32.3912 27.7272 33.6306C27.8878 34.5616 28.3625 35.4095 29.0723 36.0329L33.588 38.4351L33.54 38.5552Z" fill="url(#paint20_linear_552_654)"/>
<path d="M31.7384 23.9976C31.8846 22.9955 32.2274 22.0322 32.7471 21.163L37.9835 20.7306L37.383 23.4691L31.7384 23.9976ZM38.9442 19.9619L32.9153 20.5144C32.6604 20.5453 32.4277 20.6747 32.2668 20.8748C31.282 22.0038 30.7776 25.511 31.0898 29.6428C31.0898 29.6428 31.0898 29.4266 31.0898 29.3305C31.1747 30.0125 31.3111 30.6871 31.4981 31.3484C31.7652 32.4165 32.2565 33.4155 32.9393 34.2791L37.7433 34.135C37.4083 30.8422 37.6029 27.5171 38.3197 24.2859C38.3808 22.8239 38.6064 21.3734 38.9923 19.9619H38.9442Z" fill="url(#paint21_linear_552_654)"/>
<path d="M37.9836 20.7307L32.7473 21.1631C32.2276 22.0323 31.8848 22.9956 31.7385 23.9977L37.3832 23.4691L37.9836 20.7307Z" fill="url(#paint22_linear_552_654)"/>
<path d="M38.2 24.2859C37.4832 27.5171 37.2885 30.8422 37.6235 34.135L32.8196 34.2791C32.1367 33.4155 31.6455 32.4165 31.3784 31.3484C31.1915 30.6871 31.0549 30.0125 30.9701 29.3305C30.9701 29.3305 30.9701 29.5467 30.9701 29.6428C30.9582 29.7305 30.9582 29.8193 30.9701 29.907C31.0892 31.7272 31.395 33.5305 31.8828 35.2881C32.5314 37.5222 33.3961 38.9635 34.2848 38.8915C33.6843 38.8915 33.0598 38.1948 32.5074 36.8976C32.7009 37.2138 32.9861 37.4636 33.3251 37.6138C33.664 37.764 34.0406 37.8074 34.4049 37.7383H39.2088C38.8212 35.977 38.5961 34.1838 38.5363 32.3814C38.5363 31.5406 38.3201 30.6758 38.248 29.7869C38.1298 27.9872 38.1298 26.1817 38.248 24.3819L38.2 24.2859Z" fill="url(#paint23_linear_552_654)"/>
<path d="M42.4752 17.5598H40.6017C39.8811 17.5598 39.3047 18.4967 38.8723 19.962C38.4865 21.3735 38.2609 22.824 38.1998 24.286C38.0815 26.0857 38.0815 27.8913 38.1998 29.691C38.1998 30.5798 38.3919 31.4447 38.488 32.2855C38.7027 33.7443 39.0075 35.1883 39.4007 36.6094C39.6126 37.4295 39.8856 38.2324 40.2174 39.0117C40.914 40.5491 41.6826 41.4139 42.4512 41.4139C41.3463 41.4139 40.2414 39.6603 39.4007 36.7536C39.1605 35.9128 38.9443 34.9758 38.7522 33.9669H38.8723L41.8507 33.7267C41.6345 32.4536 41.4664 31.1084 41.3463 29.7151C41.1891 27.942 41.1489 26.1604 41.2262 24.3821H38.1277C38.1277 23.9256 38.1277 23.4692 38.1277 23.0368H41.1782C41.1782 22.5083 41.1782 22.0038 41.3463 21.5234H38.3439C38.5028 20.6977 38.7525 19.892 39.0885 19.1212H41.8507C41.9724 18.7209 42.1168 18.328 42.2831 17.9441L42.4752 17.5598Z" fill="url(#paint24_linear_552_654)"/>
<path d="M44.4207 41.1975H42.5231C41.4182 41.1975 40.3134 39.4439 39.4727 36.5372C39.4644 36.4734 39.4644 36.4089 39.4727 36.3451C40.8898 40.4529 41.8746 39.9244 41.8746 39.9244L43.1236 39.7322C42.9555 38.8674 42.7393 37.0657 42.7393 37.0657C42.4067 35.8807 42.1421 34.6776 41.9467 33.4624L38.9683 33.7026H38.8481C39.0403 34.7115 39.2565 35.6485 39.4967 36.4892C40.3374 39.3959 41.4423 41.2937 42.5472 41.1496H44.4448L44.4207 41.1975Z" fill="url(#paint25_linear_552_654)"/>
<path d="M44.4208 41.1976C43.6628 39.9692 43.0958 38.6328 42.7394 37.234C42.7394 37.234 42.9556 39.0356 43.1237 39.9004L41.8747 40.0926C41.8747 40.0926 40.8659 40.621 39.4728 36.5132C39.4645 36.577 39.4645 36.6416 39.4728 36.7054C40.3135 39.6121 41.4183 41.5099 42.5232 41.3657H44.4208V41.1976Z" fill="url(#paint26_linear_552_654)"/>
<path d="M41.3704 22.7966H38.3198C38.3198 23.229 38.3198 23.6854 38.3198 24.1419H41.4184V22.7485L41.3704 22.7966Z" fill="url(#paint27_linear_552_654)"/>
<path d="M42.0428 18.7367H39.2805C38.9445 19.5075 38.6948 20.3131 38.5359 21.1389H41.5383C41.6485 20.2796 41.817 19.4289 42.0428 18.5925V18.7367Z" fill="url(#paint28_linear_552_654)"/>
<path d="M26.7421 31.5166L15.9573 32.1891C16.0045 32.5796 16.0849 32.9655 16.1975 33.3423C16.3222 33.8205 16.5079 34.2806 16.75 34.7115L27.5107 34.3272C27.3379 33.9542 27.1934 33.5688 27.0784 33.1741C26.9275 32.6302 26.8151 32.0763 26.7421 31.5166Z" fill="url(#paint29_linear_552_654)"/>
<path d="M31.162 22.196L27.9674 23.9256L27.7512 24.6943L30.8737 23.8055L31.162 22.196Z" fill="url(#paint30_linear_552_654)"/>
<path d="M150.179 6.67759C150.179 6.67759 152.821 7.39833 154.07 11.6983C154.33 12.642 154.507 13.6066 154.599 14.581L137.785 16.0704C137.953 16.0704 65.0295 22.7725 65.1496 22.4362L43.5319 24.334C43.587 22.5615 43.8203 20.799 44.2285 19.0732C44.422 18.2478 44.6956 17.4432 45.0452 16.6709L150.251 6.62965L150.179 6.67759ZM157.241 12.0347C156.04 7.78272 154.383 5.11621 152.797 5.23632L151.404 5.38044L43.9883 16.0223C43.4118 16.0223 42.8834 16.6229 42.4751 17.5597C42.3088 17.9436 42.1645 18.3366 42.0427 18.7368C41.817 19.5732 41.6484 20.4239 41.5383 21.2832C41.5383 21.7636 41.4182 22.2681 41.3702 22.7966V24.1899C41.2929 25.9683 41.333 27.7497 41.4903 29.5228C41.6104 30.9161 41.7785 32.2613 41.9946 33.5344C42.19 34.7497 42.4547 35.9528 42.7873 37.1378C43.1438 38.5366 43.7106 39.8731 44.4687 41.1015C45.0211 41.9423 45.5976 42.3747 46.1981 42.3267L154.07 39.5881H154.911L46.1981 42.3507C44.9731 42.3507 43.7962 40.4048 42.7873 37.1618C42.0962 34.6408 41.6537 32.0581 41.4662 29.4508C41.4662 28.9223 41.4662 28.3937 41.4662 27.8893C41.5714 28.6112 41.7239 29.3254 41.9226 30.0273C44.0363 37.234 49.729 37.0417 49.729 37.0417L141.34 34.039C161.853 34.4714 157.961 14.2446 157.937 14.0524C158.383 16.0506 158.719 18.0715 158.946 20.1061C158.659 17.3521 158.136 14.6276 157.385 11.9625L157.241 12.0347Z" fill="url(#paint31_linear_552_654)"/>
<path d="M158.802 20.2021C158.802 20.8267 158.946 21.4753 158.994 22.1239C159.042 22.7725 159.114 24.1178 159.163 25.0787C159.163 24.1178 159.163 23.1328 158.994 22.1239C158.826 21.115 158.874 20.8267 158.802 20.2021Z" fill="url(#paint32_linear_552_654)"/>
<path d="M157.794 14.1245C157.794 14.3167 161.709 34.5433 141.196 34.1109L49.5853 37.1137C49.5853 37.1137 43.8926 37.378 41.7789 30.0992C41.5802 29.3973 41.4277 28.6831 41.3225 27.9612C41.3225 28.4657 41.3225 28.9942 41.3225 29.5227C41.51 32.1301 41.9525 34.7128 42.6436 37.2339C43.5804 40.4769 44.8294 42.5187 46.0544 42.4226L154.767 39.6602C154.997 39.7774 155.255 39.8273 155.512 39.8043H155.776C157.986 39.1797 159.331 32.9819 159.067 25.1266C159.067 24.1657 159.067 23.1808 158.899 22.1719C158.731 21.163 158.779 20.8747 158.706 20.2502C158.48 18.2156 158.143 16.1947 157.698 14.1965L157.794 14.1245Z" fill="url(#paint33_linear_552_654)"/>
<path d="M154.07 11.626C152.821 7.32605 150.179 6.60547 150.179 6.60547C150.878 6.88511 151.514 7.30096 152.05 7.82887C152.586 8.35678 153.011 8.98612 153.302 9.68024L43.9645 19.6255C44.0093 19.4144 44.0654 19.2059 44.1326 19.0009C43.7245 20.7267 43.4911 22.4892 43.436 24.2618L65.0537 22.3641C65.1248 22.1223 65.2214 21.8887 65.3419 21.6673L69.8817 21.2349C69.8817 21.2349 70.9866 18.5684 73.0282 18.064L127.433 12.5148C127.822 12.4231 128.228 12.4299 128.614 12.5348C129 12.6397 129.353 12.8392 129.643 13.1154C131.932 14.9992 134.797 16.0421 137.761 16.0702L154.575 14.5809C154.483 13.6064 154.306 12.6419 154.046 11.6982L154.07 11.626Z" fill="url(#paint34_linear_552_654)"/>
<path d="M129.594 13.1156C129.305 12.8394 128.952 12.6399 128.566 12.535C128.18 12.4301 127.774 12.4233 127.385 12.515L73.0521 18.1363C71.0104 18.6408 69.9055 21.3073 69.9055 21.3073L65.3659 21.7397C65.2454 21.961 65.1488 22.1945 65.0776 22.4362L137.713 16.1665L129.594 13.1156Z" fill="url(#paint35_linear_552_654)"/>
<path d="M153.302 9.75241C153.011 9.05829 152.586 8.42895 152.05 7.90104C151.514 7.37312 150.878 6.95713 150.179 6.67749L44.9733 16.7188C44.6237 17.4911 44.3501 18.2956 44.1566 19.121C44.0894 19.326 44.0333 19.5345 43.9885 19.7456L153.326 9.80035L153.302 9.75241Z" fill="url(#paint36_linear_552_654)"/>
<path d="M36.3022 29.7629C37.9507 30.269 39.5569 30.9037 41.1062 31.6608C41.1062 31.9491 40.2175 38.8675 40.2175 38.8675H34.2846C33.8546 38.6948 33.4704 38.425 33.162 38.0791C32.8536 37.7332 32.6295 37.3206 32.5072 36.8736C31.9307 35.2641 35.6537 34.9999 35.6537 34.9999L36.3022 29.7629Z" fill="url(#paint37_linear_552_654)"/>
<defs>
<linearGradient id="paint0_linear_552_654" x1="4.24003" y1="5.8538" x2="4.48557" y2="12.3446" gradientUnits="userSpaceOnUse">
<stop stop-color="#524E4E"/>
<stop offset="0.08" stop-color="#524E4E"/>
<stop offset="0.1" stop-color="#4E4A4A"/>
<stop offset="0.2" stop-color="#3B3635"/>
<stop offset="0.32" stop-color="#2D2726"/>
<stop offset="0.47" stop-color="#251F1E"/>
<stop offset="0.69" stop-color="#231C1B"/>
<stop offset="1" stop-color="#231C1B"/>
</linearGradient>
<linearGradient id="paint1_linear_552_654" x1="4.24003" y1="5.85429" x2="4.48556" y2="12.345" gradientUnits="userSpaceOnUse">
<stop stop-color="#110F12"/>
<stop offset="0.08" stop-color="#110F12"/>
<stop offset="0.09" stop-color="#100E11"/>
<stop offset="0.32" stop-color="#080809"/>
<stop offset="0.69" stop-color="#060606"/>
<stop offset="1" stop-color="#060606"/>
</linearGradient>
<linearGradient id="paint2_linear_552_654" x1="26.2792" y1="39.9529" x2="26.4843" y2="49.3192" gradientUnits="userSpaceOnUse">
<stop stop-color="#524E4E"/>
<stop offset="0.03" stop-color="#4E4A4A"/>
<stop offset="0.21" stop-color="#3F3A3A"/>
<stop offset="0.41" stop-color="#363130"/>
<stop offset="0.68" stop-color="#332E2D"/>
<stop offset="1" stop-color="#332E2D"/>
</linearGradient>
<linearGradient id="paint3_linear_552_654" x1="205.758" y1="25.6189" x2="215.032" y2="26.5428" gradientUnits="userSpaceOnUse">
<stop stop-color="#17152C"/>
<stop offset="0.07" stop-color="#141327"/>
<stop offset="0.32" stop-color="#0F0E1D"/>
<stop offset="0.61" stop-color="#0D0D1A"/>
<stop offset="1" stop-color="#0D0D1A"/>
</linearGradient>
<linearGradient id="paint4_linear_552_654" x1="82.256" y1="21.3511" x2="181.231" y2="31.2116" gradientUnits="userSpaceOnUse">
<stop stop-color="#373435"/>
<stop offset="0.12" stop-color="#2F2C2C"/>
<stop offset="0.35" stop-color="#252222"/>
<stop offset="0.61" stop-color="#221F1E"/>
<stop offset="1" stop-color="#221F1E"/>
</linearGradient>
<linearGradient id="paint5_linear_552_654" x1="-2.83135" y1="16.4937" x2="165.53" y2="33.267" gradientUnits="userSpaceOnUse">
<stop stop-color="#282526"/>
<stop offset="0.03" stop-color="#262324"/>
<stop offset="0.3" stop-color="#1D191A"/>
<stop offset="0.61" stop-color="#1A1616"/>
<stop offset="1" stop-color="#1A1616"/>
</linearGradient>
<linearGradient id="paint6_linear_552_654" x1="156.468" y1="-1.32896" x2="158.799" y2="29.2718" gradientUnits="userSpaceOnUse">
<stop stop-color="#0F0E0E"/>
<stop offset="0.15" stop-color="#0C0B0B"/>
<stop offset="0.61" stop-color="#090909"/>
<stop offset="1" stop-color="#090909"/>
</linearGradient>
<linearGradient id="paint7_linear_552_654" x1="130.242" y1="0.668516" x2="132.573" y2="31.2693" gradientUnits="userSpaceOnUse">
<stop stop-color="#353131"/>
<stop offset="0.23" stop-color="#302B2A"/>
<stop offset="0.61" stop-color="#2D2827"/>
<stop offset="1" stop-color="#2D2827"/>
</linearGradient>
<linearGradient id="paint8_linear_552_654" x1="206.431" y1="15.7157" x2="218.501" y2="16.9182" gradientUnits="userSpaceOnUse">
<stop stop-color="#524E4E"/>
<stop offset="0.01" stop-color="#514C4C"/>
<stop offset="0.19" stop-color="#403B3B"/>
<stop offset="0.39" stop-color="#363130"/>
<stop offset="0.61" stop-color="#332E2D"/>
<stop offset="1" stop-color="#332E2D"/>
</linearGradient>
<linearGradient id="paint9_linear_552_654" x1="187.677" y1="-4.25451" x2="195.887" y2="24.2575" gradientUnits="userSpaceOnUse">
<stop stop-color="#8E8A83"/>
<stop offset="0.1" stop-color="#87837C"/>
<stop offset="0.34" stop-color="#7E7971"/>
<stop offset="0.61" stop-color="#7B766E"/>
<stop offset="1" stop-color="#7B766E"/>
</linearGradient>
<linearGradient id="paint10_linear_552_654" x1="150.1" y1="14.9064" x2="197.807" y2="19.6592" gradientUnits="userSpaceOnUse">
<stop stop-color="#524E4E"/>
<stop offset="0.01" stop-color="#514C4C"/>
<stop offset="0.19" stop-color="#403B3B"/>
<stop offset="0.39" stop-color="#363130"/>
<stop offset="0.61" stop-color="#332E2D"/>
<stop offset="1" stop-color="#332E2D"/>
</linearGradient>
<linearGradient id="paint11_linear_552_654" x1="101.2" y1="2.01875" x2="382.59" y2="30.0528" gradientUnits="userSpaceOnUse">
<stop stop-color="#413D3C"/>
<stop offset="0.03" stop-color="#403C3B"/>
<stop offset="0.29" stop-color="#363130"/>
<stop offset="0.61" stop-color="#332E2D"/>
<stop offset="1" stop-color="#332E2D"/>
</linearGradient>
<linearGradient id="paint12_linear_552_654" x1="158.654" y1="-1.49591" x2="160.985" y2="29.1051" gradientUnits="userSpaceOnUse">
<stop stop-color="#2E2B2B"/>
<stop offset="0.07" stop-color="#2A2727"/>
<stop offset="0.32" stop-color="#201D1C"/>
<stop offset="0.61" stop-color="#1D1A19"/>
<stop offset="1" stop-color="#1D1A19"/>
</linearGradient>
<linearGradient id="paint13_linear_552_654" x1="158.654" y1="-1.49602" x2="160.985" y2="29.1052" gradientUnits="userSpaceOnUse">
<stop stop-color="#161515"/>
<stop offset="0.21" stop-color="#100F10"/>
<stop offset="0.61" stop-color="#0D0C0D"/>
<stop offset="1" stop-color="#0D0C0D"/>
</linearGradient>
<linearGradient id="paint14_linear_552_654" x1="120.382" y1="1.3713" x2="419.961" y2="31.2176" gradientUnits="userSpaceOnUse">
<stop stop-color="#3F3B3A"/>
<stop offset="0.14" stop-color="#34302F"/>
<stop offset="0.36" stop-color="#292524"/>
<stop offset="0.61" stop-color="#262221"/>
<stop offset="1" stop-color="#262221"/>
</linearGradient>
<linearGradient id="paint15_linear_552_654" x1="156.468" y1="-1.32951" x2="158.799" y2="29.2719" gradientUnits="userSpaceOnUse">
<stop stop-color="#332F2F"/>
<stop offset="0.01" stop-color="#332F2F"/>
<stop offset="0.28" stop-color="#292524"/>
<stop offset="0.61" stop-color="#262221"/>
<stop offset="1" stop-color="#262221"/>
</linearGradient>
<linearGradient id="paint16_linear_552_654" x1="156.468" y1="-1.32914" x2="158.799" y2="29.2719" gradientUnits="userSpaceOnUse">
<stop stop-color="#8E8A83"/>
<stop offset="0.1" stop-color="#87837C"/>
<stop offset="0.34" stop-color="#7E7971"/>
<stop offset="0.61" stop-color="#7B766E"/>
<stop offset="1" stop-color="#7B766E"/>
</linearGradient>
<linearGradient id="paint17_linear_552_654" x1="130.242" y1="0.668452" x2="132.573" y2="31.2693" gradientUnits="userSpaceOnUse">
<stop stop-color="#3F3B39"/>
<stop offset="0.27" stop-color="#363130"/>
<stop offset="0.61" stop-color="#332E2D"/>
<stop offset="1" stop-color="#332E2D"/>
</linearGradient>
<linearGradient id="paint18_linear_552_654" x1="14.4986" y1="29.1082" x2="29.3413" y2="30.5869" gradientUnits="userSpaceOnUse">
<stop stop-color="#524E4E"/>
<stop offset="0.03" stop-color="#4E4A4A"/>
<stop offset="0.19" stop-color="#3F3A3A"/>
<stop offset="0.38" stop-color="#363130"/>
<stop offset="0.61" stop-color="#332E2D"/>
<stop offset="1" stop-color="#332E2D"/>
</linearGradient>
<linearGradient id="paint19_linear_552_654" x1="26.9761" y1="26.7061" x2="34.0748" y2="27.4133" gradientUnits="userSpaceOnUse">
<stop stop-color="#524E4E"/>
<stop offset="0.19" stop-color="#413D3C"/>
<stop offset="0.4" stop-color="#373231"/>
<stop offset="0.61" stop-color="#332E2D"/>
<stop offset="1" stop-color="#332E2D"/>
</linearGradient>
<linearGradient id="paint20_linear_552_654" x1="36.4418" y1="21.9752" x2="34.9383" y2="39.3692" gradientUnits="userSpaceOnUse">
<stop stop-color="#373435"/>
<stop offset="0.11" stop-color="#302D2E"/>
<stop offset="0.36" stop-color="#262322"/>
<stop offset="0.61" stop-color="#221F1E"/>
<stop offset="1" stop-color="#221F1E"/>
</linearGradient>
<linearGradient id="paint21_linear_552_654" x1="30.6974" y1="26.6666" x2="41.668" y2="27.7596" gradientUnits="userSpaceOnUse">
<stop stop-color="#524E4E"/>
<stop offset="0.01" stop-color="#514C4C"/>
<stop offset="0.19" stop-color="#403B3B"/>
<stop offset="0.39" stop-color="#363130"/>
<stop offset="0.61" stop-color="#332E2D"/>
<stop offset="1" stop-color="#332E2D"/>
</linearGradient>
<linearGradient id="paint22_linear_552_654" x1="41.1523" y1="9.14731" x2="42.982" y2="29.9177" gradientUnits="userSpaceOnUse">
<stop stop-color="#7A746B"/>
<stop offset="0.14" stop-color="#6F6960"/>
<stop offset="0.36" stop-color="#645F56"/>
<stop offset="0.61" stop-color="#615C53"/>
<stop offset="1" stop-color="#615C53"/>
</linearGradient>
<linearGradient id="paint23_linear_552_654" x1="28.063" y1="30.822" x2="40.6829" y2="32.0792" gradientUnits="userSpaceOnUse">
<stop stop-color="#393637"/>
<stop offset="0.13" stop-color="#302D2D"/>
<stop offset="0.36" stop-color="#262323"/>
<stop offset="0.61" stop-color="#23201F"/>
<stop offset="1" stop-color="#23201F"/>
</linearGradient>
<linearGradient id="paint24_linear_552_654" x1="37.4496" y1="7.07147" x2="44.3446" y2="31.0198" gradientUnits="userSpaceOnUse">
<stop stop-color="#524E4E"/>
<stop offset="0.01" stop-color="#514C4C"/>
<stop offset="0.19" stop-color="#403B3B"/>
<stop offset="0.39" stop-color="#363130"/>
<stop offset="0.61" stop-color="#332E2D"/>
<stop offset="1" stop-color="#332E2D"/>
</linearGradient>
<linearGradient id="paint25_linear_552_654" x1="35.739" y1="7.56401" x2="42.6339" y2="31.5122" gradientUnits="userSpaceOnUse">
<stop stop-color="#2F2C2E"/>
<stop offset="0.09" stop-color="#292628"/>
<stop offset="0.33" stop-color="#201D1D"/>
<stop offset="0.61" stop-color="#1D1A1A"/>
<stop offset="1" stop-color="#1D1A1A"/>
</linearGradient>
<linearGradient id="paint26_linear_552_654" x1="35.7392" y1="7.56345" x2="42.6343" y2="31.512" gradientUnits="userSpaceOnUse">
<stop stop-color="#020303"/>
<stop offset="0.61" stop-color="#010102"/>
<stop offset="1" stop-color="#010102"/>
</linearGradient>
<linearGradient id="paint27_linear_552_654" x1="37.4496" y1="7.07091" x2="44.3449" y2="31.0199" gradientUnits="userSpaceOnUse">
<stop stop-color="#868276"/>
<stop offset="0.12" stop-color="#7E796D"/>
<stop offset="0.35" stop-color="#746E62"/>
<stop offset="0.61" stop-color="#716B5F"/>
<stop offset="1" stop-color="#716B5F"/>
</linearGradient>
<linearGradient id="paint28_linear_552_654" x1="39.1599" y1="6.57879" x2="46.0548" y2="30.5271" gradientUnits="userSpaceOnUse">
<stop stop-color="#868276"/>
<stop offset="0.12" stop-color="#7E796D"/>
<stop offset="0.35" stop-color="#746E62"/>
<stop offset="0.61" stop-color="#716B5F"/>
<stop offset="1" stop-color="#716B5F"/>
</linearGradient>
<linearGradient id="paint29_linear_552_654" x1="48.9607" y1="26.954" x2="49.3273" y2="38.7278" gradientUnits="userSpaceOnUse">
<stop stop-color="#393537"/>
<stop offset="0.14" stop-color="#2F2B2C"/>
<stop offset="0.34" stop-color="#262222"/>
<stop offset="0.61" stop-color="#231F1F"/>
<stop offset="1" stop-color="#231F1F"/>
</linearGradient>
<linearGradient id="paint30_linear_552_654" x1="35.1995" y1="21.8679" x2="33.6961" y2="39.2616" gradientUnits="userSpaceOnUse">
<stop stop-color="#999384"/>
<stop offset="0.08" stop-color="#958F7F"/>
<stop offset="0.34" stop-color="#8A8474"/>
<stop offset="0.61" stop-color="#878170"/>
<stop offset="1" stop-color="#878170"/>
</linearGradient>
<linearGradient id="paint31_linear_552_654" x1="40.013" y1="17.9627" x2="151.632" y2="29.0829" gradientUnits="userSpaceOnUse">
<stop stop-color="#775A97"/>
<stop offset="0.1" stop-color="#775A97"/>
<stop offset="0.27" stop-color="#725790"/>
<stop offset="0.5" stop-color="#644F7E"/>
<stop offset="1" stop-color="#644F7E"/>
</linearGradient>
<linearGradient id="paint32_linear_552_654" x1="155.659" y1="22.3408" x2="160.846" y2="22.8575" gradientUnits="userSpaceOnUse">
<stop stop-color="#3E321C"/>
<stop offset="0.26" stop-color="#362A18"/>
<stop offset="0.61" stop-color="#322716"/>
<stop offset="1" stop-color="#322716"/>
</linearGradient>
<linearGradient id="paint33_linear_552_654" x1="100.801" y1="11.3735" x2="104.646" y2="45.8251" gradientUnits="userSpaceOnUse">
<stop stop-color="#775A97"/>
<stop offset="0.1" stop-color="#775A97"/>
<stop offset="0.26" stop-color="#725791"/>
<stop offset="0.48" stop-color="#655080"/>
<stop offset="0.5" stop-color="#644F7E"/>
<stop offset="1" stop-color="#644F7E"/>
</linearGradient>
<linearGradient id="paint34_linear_552_654" x1="30.053" y1="8.90689" x2="404.587" y2="46.2204" gradientUnits="userSpaceOnUse">
<stop stop-color="#775A97"/>
<stop offset="0.1" stop-color="#775A97"/>
<stop offset="0.27" stop-color="#715790"/>
<stop offset="0.5" stop-color="#644F7E"/>
<stop offset="1" stop-color="#644F7E"/>
</linearGradient>
<linearGradient id="paint35_linear_552_654" x1="95.6013" y1="17.4382" x2="97.5488" y2="45.0729" gradientUnits="userSpaceOnUse">
<stop stop-color="#775A97"/>
<stop offset="0.15" stop-color="#7E6684"/>
<stop offset="0.6" stop-color="#644F7E"/>
<stop offset="1" stop-color="#644F7E"/>
</linearGradient>
<linearGradient id="paint36_linear_552_654" x1="100.801" y1="11.3734" x2="104.646" y2="45.825" gradientUnits="userSpaceOnUse">
<stop stop-color="#9B819D"/>
<stop offset="1" stop-color="#644F7E"/>
</linearGradient>
<linearGradient id="paint37_linear_552_654" x1="26.7675" y1="25.2294" x2="30.6019" y2="38.3743" gradientUnits="userSpaceOnUse">
<stop stop-color="#393637"/>
<stop offset="0.13" stop-color="#302D2D"/>
<stop offset="0.36" stop-color="#262323"/>
<stop offset="0.61" stop-color="#23201F"/>
<stop offset="1" stop-color="#23201F"/>
</linearGradient>
</defs>
</svg>
