<svg width="24" height="38" viewBox="0 0 24 38" fill="none" xmlns="http://www.w3.org/2000/svg">
<g style="mix-blend-mode:multiply">
<path opacity="0.01" d="M6.72659 35.5155H17.2952V30.3747L11.2903 25.5702V1.76423C11.2903 1.57291 11.2523 1.38353 11.1784 1.20707C11.1044 1.03062 10.9961 0.870583 10.8597 0.736424C10.7233 0.602264 10.5616 0.496594 10.384 0.425589C10.2064 0.354584 10.0164 0.319766 9.82514 0.322955H2.18684C1.99557 0.319766 1.80562 0.354584 1.62799 0.425589C1.45035 0.496594 1.28864 0.602264 1.15226 0.736424C1.01588 0.870583 0.907535 1.03062 0.833612 1.20707C0.759689 1.38353 0.721653 1.57291 0.72168 1.76423V25.7865L6.72659 30.5909V35.5155Z" fill="#FCFCFC"/>
<path opacity="0.02" d="M6.72659 35.5153H17.2952V30.3745L11.2903 25.5701V1.76409C11.284 1.37963 11.1269 1.0131 10.8528 0.743468C10.5787 0.473835 10.2096 0.322763 9.82514 0.322815H2.16287C1.78065 0.322815 1.4141 0.474632 1.14383 0.744934C0.873553 1.01524 0.72168 1.38183 0.72168 1.76409V25.7863L6.72659 30.5908V35.5153Z" fill="#F9F9F9"/>
<path opacity="0.03" d="M6.72659 35.5153H17.2712V30.3745L11.2663 25.5701V1.76409C11.2663 1.38183 11.1145 1.01524 10.8442 0.744934C10.5739 0.474632 10.2074 0.322815 9.82514 0.322815H2.16287C1.78065 0.322815 1.4141 0.474632 1.14383 0.744934C0.873553 1.01524 0.72168 1.38183 0.72168 1.76409V25.7863L6.72659 30.5908V35.5153Z" fill="#F6F5F6"/>
<path opacity="0.03" d="M6.84671 35.5154H17.4154V30.3746L11.4105 25.5702V1.76421C11.4105 1.38195 11.2586 1.01536 10.9883 0.745056C10.7181 0.474754 10.3515 0.322937 9.9693 0.322937H2.30703C1.92256 0.322885 1.55343 0.473957 1.27934 0.74359C1.00524 1.01322 0.8481 1.37975 0.841797 1.76421V25.7865L6.84671 30.5909V35.5154Z" fill="#F3F2F3"/>
<path opacity="0.04" d="M6.89456 35.5154H17.4632V30.3746L11.4583 25.5702V1.76421C11.4583 1.38195 11.3064 1.01536 11.0361 0.745056C10.7659 0.474754 10.3993 0.322937 10.0171 0.322937H2.35481C1.97034 0.322885 1.60129 0.473957 1.32719 0.74359C1.05309 1.01322 0.895951 1.37975 0.889648 1.76421V25.7865L6.89456 30.5909V35.5154Z" fill="#F0EFF0"/>
<path opacity="0.05" d="M6.9429 35.5155H17.5115V30.3747L11.5066 25.5702V1.76426C11.5066 1.57294 11.4686 1.38356 11.3947 1.2071C11.3208 1.03065 11.2124 0.870613 11.076 0.736454C10.9397 0.602295 10.7779 0.496624 10.6003 0.425619C10.4227 0.354614 10.2327 0.319797 10.0415 0.322985H2.40322C2.21195 0.319797 2.02193 0.354614 1.8443 0.425619C1.66666 0.496624 1.50495 0.602295 1.36856 0.736454C1.23218 0.870613 1.12384 1.03065 1.04992 1.2071C0.975997 1.38356 0.937962 1.57294 0.937988 1.76426V25.7865L6.9429 30.591V35.5155Z" fill="#EDECED"/>
<path opacity="0.06" d="M6.99075 35.5155H17.5594V30.3747L11.5545 25.5702V1.76426C11.5546 1.57294 11.5165 1.38356 11.4425 1.2071C11.3686 1.03065 11.2603 0.870613 11.124 0.736454C10.9876 0.602295 10.8259 0.496624 10.6482 0.425619C10.4706 0.354614 10.2806 0.319797 10.0893 0.322985H2.45108C2.25981 0.319797 2.06978 0.354614 1.89215 0.425619C1.71451 0.496624 1.5528 0.602295 1.41642 0.736454C1.28004 0.870613 1.17177 1.03065 1.09785 1.2071C1.02392 1.38356 0.985813 1.57294 0.98584 1.76426V25.7865L6.99075 30.591V35.5155Z" fill="#EAE8EA"/>
<path opacity="0.07" d="M7.03909 35.5155H17.6077V30.3747L11.6028 25.5702V1.76426C11.6028 1.57294 11.5648 1.38356 11.4909 1.2071C11.4169 1.03065 11.3086 0.870613 11.1722 0.736454C11.0358 0.602295 10.8741 0.496624 10.6965 0.425619C10.5189 0.354614 10.3289 0.319797 10.1376 0.322985H2.49934C2.30807 0.319797 2.11812 0.354614 1.94049 0.425619C1.76285 0.496624 1.60114 0.602295 1.46476 0.736454C1.32838 0.870613 1.22004 1.03065 1.14611 1.2071C1.07219 1.38356 1.03415 1.57294 1.03418 1.76426V25.7865L7.03909 30.591V35.5155Z" fill="#E6E5E7"/>
<path opacity="0.08" d="M7.08694 35.5154H17.6556V30.3746L11.6507 25.5702V1.76421C11.6444 1.37975 11.4872 1.01322 11.2131 0.74359C10.939 0.473957 10.57 0.322885 10.1855 0.322937H2.52322C2.141 0.322937 1.77445 0.474754 1.50418 0.745056C1.2339 1.01536 1.08203 1.38195 1.08203 1.76421V25.7865L7.08694 30.5909V35.5154Z" fill="#E3E2E4"/>
<path opacity="0.08" d="M7.13479 35.5154H17.6794V30.3746L11.6745 25.5702V1.76421C11.6745 1.38195 11.5227 1.01536 11.2524 0.745056C10.9821 0.474754 10.6155 0.322937 10.2333 0.322937H2.571C2.18878 0.322937 1.82223 0.474754 1.55196 0.745056C1.28168 1.01536 1.12988 1.38195 1.12988 1.76421V25.7865L7.13479 30.5909V35.5154Z" fill="#E0DFE1"/>
<path opacity="0.09" d="M7.18313 35.5154H17.7277V30.3746L11.7228 25.5702V1.76421C11.7228 1.38195 11.571 1.01536 11.3007 0.745056C11.0305 0.474754 10.6639 0.322937 10.2817 0.322937H2.61942C2.23719 0.322937 1.87057 0.474754 1.6003 0.745056C1.33002 1.01536 1.17822 1.38195 1.17822 1.76421V25.7865L7.18313 30.5909V35.5154Z" fill="#DDDCDE"/>
<path opacity="0.1" d="M7.20706 35.5154H17.7757V30.3746L11.7708 25.5702V1.76421C11.7708 1.38195 11.6189 1.01536 11.3486 0.745056C11.0784 0.474754 10.7118 0.322937 10.3296 0.322937H2.66731C2.28284 0.322885 1.91379 0.473957 1.63969 0.74359C1.36559 1.01322 1.20845 1.37975 1.20215 1.76421V25.7865L7.20706 30.5909V35.5154Z" fill="#DAD9DB"/>
<path opacity="0.11" d="M7.25491 35.5155H17.8235V30.3747L11.8186 25.5702V1.76426C11.8187 1.57294 11.7806 1.38356 11.7067 1.2071C11.6328 1.03065 11.5244 0.870613 11.388 0.736454C11.2517 0.602295 11.09 0.496624 10.9123 0.425619C10.7347 0.354614 10.5447 0.319797 10.3535 0.322985H2.71516C2.52389 0.319797 2.33394 0.354614 2.15631 0.425619C1.97867 0.496624 1.81696 0.602295 1.68058 0.736454C1.5442 0.870613 1.43586 1.03065 1.36193 1.2071C1.28801 1.38356 1.24997 1.57294 1.25 1.76426V25.7865L7.25491 30.591V35.5155Z" fill="#D7D6D8"/>
<path opacity="0.12" d="M7.30325 35.5155H17.8719V30.3747L11.867 25.5702V1.76426C11.8671 1.57294 11.829 1.38356 11.755 1.2071C11.6811 1.03065 11.5728 0.870613 11.4365 0.736454C11.3001 0.602295 11.1384 0.496624 10.9607 0.425619C10.7831 0.354614 10.5931 0.319797 10.4018 0.322985H2.76358C2.57231 0.319797 2.38228 0.354614 2.20465 0.425619C2.02701 0.496624 1.8653 0.602295 1.72892 0.736454C1.59254 0.870613 1.48427 1.03065 1.41035 1.2071C1.33642 1.38356 1.29831 1.57294 1.29834 1.76426V25.7865L7.30325 30.591V35.5155Z" fill="#D4D3D6"/>
<path opacity="0.13" d="M7.3511 35.5155H17.9197V30.3747L11.9148 25.5702V1.76426C11.9148 1.57294 11.8768 1.38356 11.8029 1.2071C11.729 1.03065 11.6206 0.870613 11.4842 0.736454C11.3479 0.602295 11.1861 0.496624 11.0085 0.425619C10.8309 0.354614 10.6409 0.319797 10.4496 0.322985H2.81135C2.62008 0.319797 2.43013 0.354614 2.2525 0.425619C2.07487 0.496624 1.91315 0.602295 1.77677 0.736454C1.64039 0.870613 1.53205 1.03065 1.45812 1.2071C1.3842 1.38356 1.34616 1.57294 1.34619 1.76426V25.7865L7.3511 30.591V35.5155Z" fill="#D1D0D3"/>
<path opacity="0.14" d="M7.39895 35.5155H17.9676V30.3747L11.9627 25.5702V1.76426C11.9564 1.3798 11.7992 1.01327 11.5251 0.743638C11.251 0.474005 10.882 0.322934 10.4975 0.322985H2.85928C2.66801 0.319797 2.47798 0.354614 2.30035 0.425619C2.12272 0.496624 1.961 0.602295 1.82462 0.736454C1.68824 0.870613 1.5799 1.03065 1.50598 1.2071C1.43205 1.38356 1.39402 1.57294 1.39404 1.76426V25.7865L7.39895 30.591V35.5155Z" fill="#CFCDD0"/>
<path opacity="0.14" d="M7.44729 35.5154H18.016V30.3746L12.0111 25.5702V1.76421C12.0048 1.37975 11.8476 1.01322 11.5735 0.74359C11.2994 0.473957 10.9303 0.322885 10.5458 0.322937H2.88358C2.50135 0.322937 2.1348 0.474754 1.86453 0.745056C1.59426 1.01536 1.44238 1.38195 1.44238 1.76421V25.7865L7.44729 30.5909V35.5154Z" fill="#CCCACD"/>
<path opacity="0.15" d="M7.49514 35.5154H18.0397V30.3746L12.0348 25.5702V1.76421C12.0348 1.38195 11.883 1.01536 11.6127 0.745056C11.3425 0.474754 10.9758 0.322937 10.5936 0.322937H2.93143C2.5492 0.322937 2.18258 0.474754 1.91231 0.745056C1.64203 1.01536 1.49023 1.38195 1.49023 1.76421V25.7865L7.49514 30.5909V35.5154Z" fill="#C9C7CA"/>
<path opacity="0.16" d="M7.51907 35.5154H18.0878V30.3746L12.0829 25.5702V1.76421C12.0829 1.38195 11.931 1.01536 11.6607 0.745056C11.3904 0.474754 11.0239 0.322937 10.6417 0.322937H2.9794C2.59493 0.322885 2.22587 0.473957 1.95177 0.74359C1.67768 1.01322 1.52046 1.37975 1.51416 1.76421V25.7865L7.51907 30.5909V35.5154Z" fill="#C6C4C7"/>
<path opacity="0.17" d="M7.56741 35.5155H18.136V30.3747L12.1311 25.5702V1.76426C12.1312 1.57294 12.0931 1.38356 12.0192 1.2071C11.9453 1.03065 11.8369 0.870613 11.7005 0.736454C11.5642 0.602295 11.4025 0.496624 11.2248 0.425619C11.0472 0.354614 10.8572 0.319797 10.666 0.322985H3.02766C2.83639 0.319797 2.64644 0.354614 2.46881 0.425619C2.29117 0.496624 2.12946 0.602295 1.99308 0.736454C1.8567 0.870613 1.74836 1.03065 1.67443 1.2071C1.60051 1.38356 1.56247 1.57294 1.5625 1.76426V25.7865L7.56741 30.591V35.5155Z" fill="#C3C1C5"/>
<path opacity="0.18" d="M7.61526 35.5155H18.1839V30.3747L12.179 25.5702V1.76426C12.179 1.57294 12.141 1.38356 12.067 1.2071C11.9931 1.03065 11.8848 0.870613 11.7484 0.736454C11.612 0.602295 11.4503 0.496624 11.2727 0.425619C11.095 0.354614 10.9051 0.319797 10.7138 0.322985H3.07559C2.88432 0.319797 2.69429 0.354614 2.51666 0.425619C2.33903 0.496624 2.17731 0.602295 2.04093 0.736454C1.90455 0.870613 1.79621 1.03065 1.72228 1.2071C1.64836 1.38356 1.61033 1.57294 1.61035 1.76426V25.7865L7.61526 30.591V35.5155Z" fill="#C1BEC2"/>
<path opacity="0.19" d="M7.6636 35.5155H18.2322V30.3747L12.2273 25.5702V1.76426C12.2273 1.57294 12.1892 1.38356 12.1153 1.2071C12.0414 1.03065 11.9331 0.870613 11.7967 0.736454C11.6604 0.602295 11.4986 0.496624 11.321 0.425619C11.1434 0.354614 10.9534 0.319797 10.7621 0.322985H3.12385C2.93258 0.319797 2.74256 0.354614 2.56493 0.425619C2.38729 0.496624 2.22557 0.602295 2.08919 0.736454C1.95281 0.870613 1.84455 1.03065 1.77062 1.2071C1.6967 1.38356 1.65866 1.57294 1.65869 1.76426V25.7865L7.6636 30.591V35.5155Z" fill="#BEBCBF"/>
<path opacity="0.19" d="M7.71145 35.5155H18.2801V30.3747L12.2752 25.5702V1.76426C12.2752 1.57294 12.2372 1.38356 12.1632 1.2071C12.0893 1.03065 11.981 0.870613 11.8446 0.736454C11.7082 0.602295 11.5465 0.496624 11.3689 0.425619C11.1912 0.354614 11.0013 0.319797 10.81 0.322985H3.17171C2.98044 0.319797 2.79048 0.354614 2.61285 0.425619C2.43522 0.496624 2.2735 0.602295 2.13712 0.736454C2.00074 0.870613 1.8924 1.03065 1.81848 1.2071C1.74455 1.38356 1.70652 1.57294 1.70654 1.76426V25.7865L7.71145 30.591V35.5155Z" fill="#BBB9BD"/>
<path opacity="0.2" d="M7.7593 35.5154H18.3279V30.3746L12.323 25.5702V1.76421C12.3167 1.37975 12.1596 1.01322 11.8855 0.74359C11.6114 0.473957 11.2423 0.322885 10.8579 0.322937H3.19559C2.81336 0.322937 2.44681 0.474754 2.17654 0.745056C1.90627 1.01536 1.75439 1.38195 1.75439 1.76421V25.7865L7.7593 30.5909V35.5154Z" fill="#B8B6BA"/>
<path opacity="0.21" d="M7.80764 35.5154H18.3522V30.3746L12.3473 25.5702V1.76421C12.3473 1.38195 12.1955 1.01536 11.9252 0.745056C11.655 0.474754 11.2883 0.322937 10.9061 0.322937H3.24385C2.86163 0.322937 2.49508 0.474754 2.22481 0.745056C1.95453 1.01536 1.80273 1.38195 1.80273 1.76421V25.7865L7.80764 30.5909V35.5154Z" fill="#B6B3B7"/>
<path opacity="0.22" d="M7.83157 35.5154H18.4002V30.3746L12.3953 25.5702V1.76421C12.3953 1.38195 12.2435 1.01536 11.9732 0.745056C11.7029 0.474754 11.3364 0.322937 10.9542 0.322937H3.2919C2.90743 0.322885 2.5383 0.473957 2.2642 0.74359C1.9901 1.01322 1.83296 1.37975 1.82666 1.76421V25.7865L7.83157 30.5909V35.5154Z" fill="#B3B1B5"/>
<path opacity="0.23" d="M7.87942 35.5155H18.448V30.3747L12.4431 25.5702V1.76426C12.4432 1.57294 12.4051 1.38356 12.3312 1.2071C12.2573 1.03065 12.1489 0.870613 12.0126 0.736454C11.8762 0.602295 11.7145 0.496624 11.5368 0.425619C11.3592 0.354614 11.1692 0.319797 10.9779 0.322985H3.33967C2.95521 0.322934 2.58615 0.474005 2.31205 0.743638C2.03795 1.01327 1.88081 1.3798 1.87451 1.76426V25.7865L7.87942 30.591V35.5155Z" fill="#B0AEB2"/>
<path opacity="0.24" d="M7.92776 35.5155H18.4964V30.3747L12.4915 25.5702V1.76426C12.4915 1.57294 12.4535 1.38356 12.3795 1.2071C12.3056 1.03065 12.1973 0.870613 12.0609 0.736454C11.9245 0.602295 11.7628 0.496624 11.5852 0.425619C11.4075 0.354614 11.2176 0.319797 11.0263 0.322985H3.38801C3.19674 0.319797 3.00679 0.354614 2.82916 0.425619C2.65153 0.496624 2.48981 0.602295 2.35343 0.736454C2.21705 0.870613 2.10871 1.03065 2.03478 1.2071C1.96086 1.38356 1.92283 1.57294 1.92285 1.76426V25.7865L7.92776 30.591V35.5155Z" fill="#AEABAF"/>
<path opacity="0.25" d="M7.97561 35.5155H18.5443V30.3747L12.5394 25.5702V1.76426C12.5394 1.57294 12.5013 1.38356 12.4274 1.2071C12.3535 1.03065 12.2452 0.870613 12.1088 0.736454C11.9724 0.602295 11.8107 0.496624 11.6331 0.425619C11.4555 0.354614 11.2654 0.319797 11.0742 0.322985H3.43594C3.24467 0.319797 3.05464 0.354614 2.87701 0.425619C2.69938 0.496624 2.53766 0.602295 2.40128 0.736454C2.2649 0.870613 2.15663 1.03065 2.08271 1.2071C2.00879 1.38356 1.97068 1.57294 1.9707 1.76426V25.7865L7.97561 30.591V35.5155Z" fill="#ABA8AD"/>
<path opacity="0.25" d="M8.02346 35.5155H18.5921V30.3747L12.5872 25.5702V1.76426C12.5872 1.57294 12.5492 1.38356 12.4752 1.2071C12.4013 1.03065 12.293 0.870613 12.1566 0.736454C12.0202 0.602295 11.8585 0.496624 11.6809 0.425619C11.5032 0.354614 11.3132 0.319797 11.1219 0.322985H3.48372C3.29245 0.319797 3.1025 0.354614 2.92486 0.425619C2.74723 0.496624 2.58551 0.602295 2.44913 0.736454C2.31275 0.870613 2.20441 1.03065 2.13049 1.2071C2.05656 1.38356 2.01853 1.57294 2.01855 1.76426V25.7865L8.02346 30.591V35.5155Z" fill="#A8A6AA"/>
<path opacity="0.26" d="M8.0719 35.5154H18.7366V30.3746L12.7317 25.5702V1.76421C12.7254 1.37975 12.5683 1.01322 12.2942 0.74359C12.0201 0.473957 11.651 0.322885 11.2665 0.322937H3.60428C3.22205 0.322937 2.85543 0.474754 2.58516 0.745056C2.31489 1.01536 2.16309 1.38195 2.16309 1.76421V25.7865L8.16799 30.5909L8.0719 35.5154Z" fill="#A6A3A8"/>
<path opacity="0.27" d="M8.11987 35.5154H18.7366V30.3746L12.7317 25.5702V1.76421C12.7317 1.38195 12.5798 1.01536 12.3095 0.745056C12.0392 0.474754 11.6727 0.322937 11.2905 0.322937H3.6282C3.24598 0.322937 2.87943 0.474754 2.60916 0.745056C2.33889 1.01536 2.18701 1.38195 2.18701 1.76421V25.7865L8.19192 30.5909L8.11987 35.5154Z" fill="#A3A0A5"/>
<path opacity="0.28" d="M8.14395 35.5154H18.7366V30.3746L12.7317 25.5702V1.76421C12.7317 1.38195 12.5798 1.01536 12.3096 0.745056C12.0393 0.474754 11.6727 0.322937 11.2905 0.322937H3.60428C3.22205 0.322937 2.85543 0.474754 2.58516 0.745056C2.31489 1.01536 2.16309 1.38195 2.16309 1.76421V25.7865L8.14395 30.5909V35.5154Z" fill="#A19EA2"/>
<path opacity="0.29" d="M8.19196 35.5155H18.7366V30.3747L12.7317 25.5702V1.76426C12.7317 1.57294 12.6937 1.38356 12.6198 1.2071C12.5459 1.03065 12.4375 0.870613 12.3011 0.736454C12.1648 0.602295 12.003 0.496624 11.8254 0.425619C11.6478 0.354614 11.4578 0.319797 11.2665 0.322985H3.62825C3.24378 0.322934 2.87472 0.474005 2.60063 0.743638C2.32653 1.01327 2.16939 1.3798 2.16309 1.76426V25.7865L8.16799 30.591L8.19196 35.5155Z" fill="#9E9BA0"/>
<path opacity="0.3" d="M8.24005 35.5155H18.7366V30.3747L12.7317 25.5702V1.76426C12.7317 1.57294 12.6937 1.38356 12.6198 1.2071C12.5459 1.03065 12.4375 0.870613 12.3011 0.736454C12.1648 0.602295 12.003 0.496624 11.8254 0.425619C11.6478 0.354614 11.4578 0.319797 11.2665 0.322985H3.62825C3.43698 0.319797 3.24703 0.354614 3.06939 0.425619C2.89176 0.496624 2.73004 0.602295 2.59366 0.736454C2.45728 0.870613 2.34894 1.03065 2.27502 1.2071C2.20109 1.38356 2.16306 1.57294 2.16309 1.76426V25.7865L8.16799 30.591L8.24005 35.5155Z" fill="#9C999D"/>
<path opacity="0.31" d="M8.28811 35.5155H18.8567V30.3747L12.8518 25.5702V1.76423C12.8519 1.57291 12.8138 1.38353 12.7399 1.20707C12.666 1.03062 12.5577 0.870583 12.4213 0.736424C12.2849 0.602264 12.1232 0.496594 11.9455 0.425589C11.7679 0.354584 11.5779 0.319766 11.3867 0.322955H3.74844C3.55717 0.319766 3.36714 0.354584 3.18951 0.425589C3.01188 0.496594 2.85016 0.602264 2.71378 0.736424C2.5774 0.870583 2.46913 1.03062 2.39521 1.20707C2.32129 1.38353 2.28318 1.57291 2.2832 1.76423V25.7865L8.28811 30.5909V35.5155Z" fill="#99969B"/>
<path opacity="0.31" d="M8.33596 35.5155H18.9046V30.3747L12.8997 25.5702V1.76426C12.8997 1.57294 12.8616 1.38356 12.7877 1.2071C12.7138 1.03065 12.6055 0.870613 12.4691 0.736454C12.3327 0.602295 12.171 0.496624 11.9934 0.425619C11.8157 0.354614 11.6257 0.319797 11.4344 0.322985H3.79622C3.60495 0.319797 3.415 0.354614 3.23736 0.425619C3.05973 0.496624 2.89794 0.602295 2.76156 0.736454C2.62518 0.870613 2.51691 1.03065 2.44299 1.2071C2.36906 1.38356 2.33103 1.57294 2.33105 1.76426V25.7865L8.33596 30.591V35.5155Z" fill="#979499"/>
<path opacity="0.32" d="M8.38381 35.5154H18.9524V30.3746L12.9475 25.5702V1.76421C12.9412 1.37975 12.7841 1.01322 12.51 0.74359C12.2359 0.473957 11.8668 0.322885 11.4824 0.322937H3.8201C3.43787 0.322937 3.07125 0.474754 2.80098 0.745056C2.53071 1.01536 2.37891 1.38195 2.37891 1.76421V25.7865L8.38381 30.5909V35.5154Z" fill="#949196"/>
<path opacity="0.33" d="M8.43215 35.5154H19.0008V30.3746L12.9959 25.5702V1.76421C12.9896 1.37975 12.8324 1.01322 12.5583 0.74359C12.2842 0.473957 11.9152 0.322885 11.5307 0.322937H3.86844C3.48621 0.322937 3.11967 0.474754 2.84939 0.745056C2.57912 1.01536 2.42725 1.38195 2.42725 1.76421V25.7865L8.43215 30.5909V35.5154Z" fill="#928F94"/>
<path opacity="0.34" d="M8.45596 35.5154H19.0246V30.3746L13.0197 25.5702V1.76421C13.0197 1.38195 12.8679 1.01536 12.5976 0.745056C12.3273 0.474754 11.9607 0.322937 11.5785 0.322937H3.91622C3.53399 0.322937 3.16744 0.474754 2.89717 0.745056C2.6269 1.01536 2.4751 1.38195 2.4751 1.76421V25.7865L8.45596 30.5909V35.5154Z" fill="#8F8C91"/>
<path opacity="0.35" d="M8.50393 35.5154H19.0726V30.3746L13.0677 25.5702V1.76421C13.0677 1.38195 12.9158 1.01536 12.6456 0.745056C12.3753 0.474754 12.0088 0.322937 11.6265 0.322937H3.96426C3.57979 0.322885 3.21066 0.473957 2.93656 0.74359C2.66247 1.01322 2.50533 1.37975 2.49902 1.76421V25.7865L8.50393 30.5909V35.5154Z" fill="#8D8A8F"/>
<path opacity="0.36" d="M8.55227 35.5155H19.1209V30.3747L13.116 25.5702V1.76426C13.116 1.57294 13.078 1.38356 13.0041 1.2071C12.9301 1.03065 12.8218 0.870613 12.6854 0.736454C12.549 0.602295 12.3873 0.496624 12.2097 0.425619C12.032 0.354614 11.842 0.319797 11.6508 0.322985H4.01253C3.82126 0.319797 3.6313 0.354614 3.45367 0.425619C3.27604 0.496624 3.11432 0.602295 2.97794 0.736454C2.84156 0.870613 2.73322 1.03065 2.6593 1.2071C2.58537 1.38356 2.54734 1.57294 2.54736 1.76426V25.7865L8.55227 30.591V35.5155Z" fill="#8A878D"/>
<path opacity="0.36" d="M8.60012 35.5155H19.1687V30.3747L13.1638 25.5702V1.76426C13.1639 1.57294 13.1258 1.38356 13.0519 1.2071C12.978 1.03065 12.8696 0.870613 12.7333 0.736454C12.5969 0.602295 12.4352 0.496624 12.2575 0.425619C12.0799 0.354614 11.8899 0.319797 11.6987 0.322985H4.06045C3.86918 0.319797 3.67916 0.354614 3.50152 0.425619C3.32389 0.496624 3.16217 0.602295 3.02579 0.736454C2.88941 0.870613 2.78107 1.03065 2.70715 1.2071C2.63322 1.38356 2.59519 1.57294 2.59521 1.76426V25.7865L8.60012 30.591V35.5155Z" fill="#88858A"/>
<path opacity="0.37" d="M8.64798 35.5155H19.2167V30.3747L13.2118 25.5702V1.76426C13.2118 1.57294 13.1737 1.38356 13.0998 1.2071C13.0258 1.03065 12.9176 0.870613 12.7812 0.736454C12.6448 0.602295 12.4831 0.496624 12.3055 0.425619C12.1278 0.354614 11.9378 0.319797 11.7465 0.322985H4.1083C3.91703 0.319797 3.72701 0.354614 3.54937 0.425619C3.37174 0.496624 3.21002 0.602295 3.07364 0.736454C2.93726 0.870613 2.829 1.03065 2.75507 1.2071C2.68115 1.38356 2.64304 1.57294 2.64307 1.76426V25.7865L8.64798 30.591V35.5155Z" fill="#858388"/>
<path opacity="0.38" d="M8.69631 35.5155H19.2649V30.3747L13.26 25.5702V1.76426C13.2601 1.57294 13.222 1.38356 13.1481 1.2071C13.0742 1.03065 12.9658 0.870613 12.8295 0.736454C12.6931 0.602295 12.5314 0.496624 12.3537 0.425619C12.1761 0.354614 11.9861 0.319797 11.7948 0.322985H4.15657C3.9653 0.319797 3.77535 0.354614 3.59771 0.425619C3.42008 0.496624 3.25836 0.602295 3.12198 0.736454C2.9856 0.870613 2.87726 1.03065 2.80334 1.2071C2.72942 1.38356 2.69138 1.57294 2.69141 1.76426V25.7865L8.69631 30.591V35.5155Z" fill="#838086"/>
<path opacity="0.39" d="M8.74417 35.5154H19.3128V30.3746L13.3079 25.5702V1.76421C13.3016 1.37975 13.1444 1.01322 12.8703 0.74359C12.5962 0.473957 12.2272 0.322885 11.8427 0.322937H4.18045C3.99119 0.322937 3.80378 0.360175 3.62893 0.432609C3.45407 0.505043 3.29523 0.611216 3.1614 0.745056C3.02758 0.878897 2.92142 1.03776 2.84899 1.21263C2.77657 1.3875 2.73926 1.57493 2.73926 1.76421V25.7865L8.74417 30.5909V35.5154Z" fill="#817E83"/>
<path opacity="0.4" d="M8.79211 35.5154H19.3368V30.3746L13.3319 25.5702V1.76421C13.3319 1.38195 13.18 1.01536 12.9097 0.745056C12.6394 0.474754 12.2729 0.322937 11.8907 0.322937H4.32449C3.94227 0.322937 3.57572 0.474754 3.30545 0.745056C3.03517 1.01536 2.8833 1.38195 2.8833 1.76421V25.7865L8.88821 30.5909L8.79211 35.5154Z" fill="#7E7B81"/>
<path opacity="0.41" d="M8.8162 35.5154H19.3848V30.3746L13.3799 25.5702V1.76421C13.3799 1.38195 13.2281 1.01536 12.9578 0.745056C12.6876 0.474754 12.321 0.322937 11.9388 0.322937H4.32454C3.94007 0.322885 3.57101 0.473957 3.29692 0.74359C3.02282 1.01322 2.86568 1.37975 2.85938 1.76421V25.7865L8.86428 30.5909L8.8162 35.5154Z" fill="#7C797F"/>
<path opacity="0.42" d="M8.86428 35.5155H19.4329V30.3747L13.428 25.5702V1.76426C13.428 1.57294 13.3899 1.38356 13.316 1.2071C13.2421 1.03065 13.1338 0.870613 12.9974 0.736454C12.861 0.602295 12.6993 0.496624 12.5217 0.425619C12.3441 0.354614 12.154 0.319797 11.9628 0.322985H4.32454C4.13327 0.319797 3.94324 0.354614 3.76561 0.425619C3.58798 0.496624 3.42626 0.602295 3.28988 0.736454C3.1535 0.870613 3.04523 1.03065 2.97131 1.2071C2.89738 1.38356 2.85935 1.57294 2.85938 1.76426V25.7865L8.86428 30.591V35.5155Z" fill="#7A777C"/>
<path opacity="0.42" d="M8.9123 35.5155H19.4809V30.3747L13.476 25.5702V1.76426C13.476 1.57294 13.438 1.38356 13.3641 1.2071C13.2902 1.03065 13.1818 0.870613 13.0454 0.736454C12.9091 0.602295 12.7473 0.496624 12.5697 0.425619C12.3921 0.354614 12.2021 0.319797 12.0109 0.322985H4.32454C4.13327 0.319797 3.94324 0.354614 3.76561 0.425619C3.58798 0.496624 3.42626 0.602295 3.28988 0.736454C3.1535 0.870613 3.04523 1.03065 2.97131 1.2071C2.89738 1.38356 2.85935 1.57294 2.85938 1.76426V25.7865L8.86428 30.591L8.9123 35.5155Z" fill="#77757A"/>
<path opacity="0.43" d="M8.96031 35.5155H19.5289V30.3747L13.524 25.5702V1.76426C13.5241 1.57294 13.486 1.38356 13.4121 1.2071C13.3382 1.03065 13.2299 0.870613 13.0935 0.736454C12.9571 0.602295 12.7954 0.496624 12.6177 0.425619C12.4401 0.354614 12.2501 0.319797 12.0589 0.322985H4.32454C4.13327 0.319797 3.94324 0.354614 3.76561 0.425619C3.58798 0.496624 3.42626 0.602295 3.28988 0.736454C3.1535 0.870613 3.04523 1.03065 2.97131 1.2071C2.89738 1.38356 2.85935 1.57294 2.85938 1.76426V25.7865L8.86428 30.591L8.96031 35.5155Z" fill="#757278"/>
<path opacity="0.44" d="M9.12844 35.5155H19.6971V30.3747L13.6922 25.5702V1.76426C13.6922 1.57294 13.6542 1.38356 13.5802 1.2071C13.5063 1.03065 13.398 0.870613 13.2616 0.736454C13.1252 0.602295 12.9635 0.496624 12.7859 0.425619C12.6082 0.354614 12.4183 0.319797 12.227 0.322985H4.5887C4.39743 0.319797 4.20748 0.354614 4.02984 0.425619C3.85221 0.496624 3.69049 0.602295 3.55411 0.736454C3.41773 0.870613 3.30939 1.03065 3.23547 1.2071C3.16154 1.38356 3.12351 1.57294 3.12354 1.76426V25.7865L9.12844 30.591V35.5155Z" fill="#737076"/>
<path opacity="0.45" d="M9.12844 35.5154H19.6971V30.3746L13.6922 25.5702V1.76421C13.6859 1.37975 13.5287 1.01322 13.2546 0.74359C12.9805 0.473957 12.6115 0.322885 12.227 0.322937H4.56473C4.1825 0.322937 3.81596 0.474754 3.54568 0.745056C3.27541 1.01536 3.12354 1.38195 3.12354 1.76421V25.7865L9.12844 30.5909V35.5154Z" fill="#716E74"/>
<path opacity="0.46" d="M9.12844 35.5154H19.6731V30.3746L13.6682 25.5702V1.76421C13.6682 1.38195 13.5163 1.01536 13.246 0.745056C12.9758 0.474754 12.6092 0.322937 12.227 0.322937H4.56473C4.1825 0.322937 3.81596 0.474754 3.54568 0.745056C3.27541 1.01536 3.12354 1.38195 3.12354 1.76421V25.7865L9.12844 30.5909V35.5154Z" fill="#6E6C71"/>
<path opacity="0.47" d="M9.12844 35.5154H19.6971V30.3746L13.6922 25.5702V1.76421C13.6922 1.38195 13.5404 1.01536 13.2701 0.745056C12.9998 0.474754 12.6332 0.322937 12.251 0.322937H4.5887C4.20423 0.322885 3.83517 0.473957 3.56108 0.74359C3.28698 1.01322 3.12984 1.37975 3.12354 1.76421V25.7865L9.12844 30.5909V35.5154Z" fill="#6C6A6F"/>
<path opacity="0.47" d="M9.12844 35.5155H19.6971V30.3747L13.6922 25.5702V1.76426C13.6922 1.57294 13.6542 1.38356 13.5802 1.2071C13.5063 1.03065 13.398 0.870613 13.2616 0.736454C13.1252 0.602295 12.9635 0.496624 12.7859 0.425619C12.6082 0.354614 12.4183 0.319797 12.227 0.322985H4.5887C4.20423 0.322934 3.83517 0.474005 3.56108 0.743638C3.28698 1.01327 3.12984 1.3798 3.12354 1.76426V25.7865L9.12844 30.591V35.5155Z" fill="#6A676D"/>
<path opacity="0.48" d="M9.12844 35.5155H19.6971V30.3747L13.6922 25.5702V1.76426C13.6922 1.57294 13.6542 1.38356 13.5802 1.2071C13.5063 1.03065 13.398 0.870613 13.2616 0.736454C13.1252 0.602295 12.9635 0.496624 12.7859 0.425619C12.6082 0.354614 12.4183 0.319797 12.227 0.322985H4.5887C4.39743 0.319797 4.20748 0.354614 4.02984 0.425619C3.85221 0.496624 3.69049 0.602295 3.55411 0.736454C3.41773 0.870613 3.30939 1.03065 3.23547 1.2071C3.16154 1.38356 3.12351 1.57294 3.12354 1.76426V25.7865L9.12844 30.591V35.5155Z" fill="#68656B"/>
<path opacity="0.49" d="M9.27249 35.5155H19.8411V30.3747L13.8362 25.5702V1.76426C13.8362 1.57294 13.7982 1.38356 13.7243 1.2071C13.6503 1.03065 13.542 0.870613 13.4056 0.736454C13.2692 0.602295 13.1075 0.496624 12.9299 0.425619C12.7523 0.354614 12.5623 0.319797 12.371 0.322985H4.73281C4.54154 0.319797 4.35152 0.354614 4.17389 0.425619C3.99625 0.496624 3.83453 0.602295 3.69815 0.736454C3.56177 0.870613 3.45343 1.03065 3.37951 1.2071C3.30559 1.38356 3.26755 1.57294 3.26758 1.76426V25.7865L9.27249 30.591V35.5155Z" fill="#666369"/>
<path opacity="0.5" d="M9.32083 35.5155H19.8895V30.3747L13.8846 25.5702V1.76426C13.8846 1.57294 13.8465 1.38356 13.7726 1.2071C13.6987 1.03065 13.5904 0.870613 13.454 0.736454C13.3177 0.602295 13.1559 0.496624 12.9783 0.425619C12.8007 0.354614 12.6107 0.319797 12.4194 0.322985H4.78115C4.58988 0.319797 4.39986 0.354614 4.22223 0.425619C4.04459 0.496624 3.88287 0.602295 3.74649 0.736454C3.61011 0.870613 3.50185 1.03065 3.42792 1.2071C3.354 1.38356 3.31589 1.57294 3.31592 1.76426V25.7865L9.32083 30.591V35.5155Z" fill="#646167"/>
<path opacity="0.51" d="M9.36868 35.5154H19.9373V30.3746L13.9324 25.5702V1.76421C13.9261 1.37975 13.769 1.01322 13.4949 0.74359C13.2208 0.473957 12.8517 0.322885 12.4672 0.322937H4.80496C4.6157 0.322937 4.42829 0.360175 4.25344 0.432609C4.07859 0.505043 3.91967 0.611216 3.78584 0.745056C3.65202 0.878897 3.54586 1.03776 3.47343 1.21263C3.401 1.3875 3.36377 1.57493 3.36377 1.76421V25.7865L9.36868 30.5909V35.5154Z" fill="#625F65"/>
<path opacity="0.52" d="M9.41702 35.5154H19.9617V30.3746L13.9568 25.5702V1.76421C13.9568 1.57493 13.9195 1.3875 13.847 1.21263C13.7746 1.03776 13.6684 0.878897 13.5346 0.745056C13.4008 0.611216 13.2419 0.505043 13.0671 0.432609C12.8922 0.360175 12.7048 0.322937 12.5156 0.322937H4.8533C4.66404 0.322937 4.47663 0.360175 4.30178 0.432609C4.12693 0.505043 3.96808 0.611216 3.83426 0.745056C3.70043 0.878897 3.59427 1.03776 3.52184 1.21263C3.44942 1.3875 3.41211 1.57493 3.41211 1.76421V25.7865L9.41702 30.5909V35.5154Z" fill="#605D63"/>
<path opacity="0.53" d="M9.44083 35.5154H20.0095V30.3746L14.0045 25.5702V1.76421C14.0045 1.57493 13.9672 1.3875 13.8948 1.21263C13.8224 1.03776 13.7163 0.878897 13.5825 0.745056C13.4486 0.611216 13.2897 0.505043 13.1149 0.432609C12.94 0.360175 12.7526 0.322937 12.5634 0.322937H4.90108C4.71182 0.322937 4.52441 0.360175 4.34956 0.432609C4.1747 0.505043 4.01586 0.611216 3.88203 0.745056C3.74821 0.878897 3.64205 1.03776 3.56962 1.21263C3.49719 1.3875 3.45996 1.57493 3.45996 1.76421V25.7865L9.44083 30.5909V35.5154Z" fill="#5E5B61"/>
<path opacity="0.53" d="M9.4888 35.5155H20.0574V30.3747L14.0525 25.5702V1.76426C14.0525 1.57294 14.0145 1.38356 13.9406 1.2071C13.8667 1.03065 13.7584 0.870613 13.622 0.736454C13.4856 0.602295 13.3238 0.496624 13.1462 0.425619C12.9686 0.354614 12.7786 0.319797 12.5873 0.322985H4.94912C4.56465 0.322934 4.19552 0.474005 3.92143 0.743638C3.64733 1.01327 3.49019 1.3798 3.48389 1.76426V25.7865L9.4888 30.591V35.5155Z" fill="#5C595F"/>
<path opacity="0.54" d="M9.53714 35.5155H20.1058V30.3747L14.1009 25.5702V1.76426C14.1009 1.57294 14.0628 1.38356 13.9888 1.2071C13.9149 1.03065 13.8067 0.870613 13.6703 0.736454C13.5339 0.602295 13.3722 0.496624 13.1945 0.425619C13.0169 0.354614 12.8269 0.319797 12.6356 0.322985H4.99739C4.80612 0.319797 4.61617 0.354614 4.43853 0.425619C4.2609 0.496624 4.09911 0.602295 3.96273 0.736454C3.82635 0.870613 3.71808 1.03065 3.64416 1.2071C3.57024 1.38356 3.5322 1.57294 3.53223 1.76426V25.7865L9.53714 30.591V35.5155Z" fill="#5A575D"/>
<path opacity="0.55" d="M9.58499 35.5155H20.1536V30.3747L14.1487 25.5702V1.76426C14.1487 1.57294 14.1107 1.38356 14.0368 1.2071C13.9628 1.03065 13.8545 0.870613 13.7181 0.736454C13.5817 0.602295 13.42 0.496624 13.2424 0.425619C13.0648 0.354614 12.8748 0.319797 12.6835 0.322985H5.04524C4.85397 0.319797 4.66402 0.354614 4.48639 0.425619C4.30875 0.496624 4.14703 0.602295 4.01065 0.736454C3.87427 0.870613 3.76593 1.03065 3.69201 1.2071C3.61809 1.38356 3.58005 1.57294 3.58008 1.76426V25.7865L9.58499 30.591V35.5155Z" fill="#58555B"/>
<path opacity="0.56" d="M9.63284 35.5155H20.2015V30.3747L14.1966 25.5702V1.76426C14.1966 1.57294 14.1585 1.38356 14.0846 1.2071C14.0107 1.03065 13.9024 0.870613 13.7661 0.736454C13.6297 0.602295 13.468 0.496624 13.2903 0.425619C13.1127 0.354614 12.9227 0.319797 12.7314 0.322985H5.09317C4.9019 0.319797 4.71187 0.354614 4.53424 0.425619C4.3566 0.496624 4.19489 0.602295 4.05851 0.736454C3.92213 0.870613 3.81386 1.03065 3.73994 1.2071C3.66601 1.38356 3.6279 1.57294 3.62793 1.76426V25.7865L9.63284 30.591V35.5155Z" fill="#565359"/>
<path opacity="0.57" d="M9.68118 35.5155H20.2498V30.3747L14.2449 25.5702V1.76426C14.2386 1.3798 14.0815 1.01327 13.8074 0.743638C13.5333 0.474005 13.1641 0.322934 12.7797 0.322985H5.14143C4.95016 0.319797 4.76021 0.354614 4.58258 0.425619C4.40494 0.496624 4.24323 0.602295 4.10685 0.736454C3.97047 0.870613 3.86213 1.03065 3.7882 1.2071C3.71428 1.38356 3.67624 1.57294 3.67627 1.76426V25.7865L9.68118 30.591V35.5155Z" fill="#545157"/>
<path opacity="0.58" d="M9.72903 35.5154H20.2977V30.3746L14.2927 25.5702V1.76421C14.2864 1.37975 14.1293 1.01322 13.8552 0.74359C13.5811 0.473957 13.2121 0.322885 12.8276 0.322937H5.16531C4.78309 0.322937 4.41654 0.474754 4.14627 0.745056C3.87599 1.01536 3.72412 1.38195 3.72412 1.76421V25.7865L9.72903 30.5909V35.5154Z" fill="#524F55"/>
<path opacity="0.58" d="M9.75291 35.5154H20.3215V30.3746L14.3166 25.5702V1.76421C14.3166 1.38195 14.1648 1.01536 13.8945 0.745056C13.6242 0.474754 13.2577 0.322937 12.8754 0.322937H5.21317C4.83094 0.322937 4.46439 0.474754 4.19412 0.745056C3.92385 1.01536 3.77197 1.38195 3.77197 1.76421V25.7865L9.75291 30.5909V35.5154Z" fill="#504E53"/>
<path opacity="0.59" d="M9.8013 35.5154H20.3699V30.3746L14.365 25.5702V1.76421C14.365 1.38195 14.2132 1.01536 13.9429 0.745056C13.6727 0.474754 13.306 0.322937 12.9238 0.322937H5.26162C4.87715 0.322885 4.50802 0.473957 4.23393 0.74359C3.95983 1.01322 3.80269 1.37975 3.79639 1.76421V25.7865L9.8013 30.5909V35.5154Z" fill="#4E4C51"/>
<path opacity="0.6" d="M9.84915 35.5155H20.4178V30.3747L14.4129 25.5702V1.76426C14.413 1.57294 14.3749 1.38356 14.3009 1.2071C14.227 1.03065 14.1187 0.870613 13.9824 0.736454C13.846 0.602295 13.6843 0.496624 13.5066 0.425619C13.329 0.354614 13.139 0.319797 12.9477 0.322985H5.30947C5.1182 0.319797 4.92818 0.354614 4.75055 0.425619C4.57291 0.496624 4.4112 0.602295 4.27481 0.736454C4.13843 0.870613 4.03017 1.03065 3.95624 1.2071C3.88232 1.38356 3.84421 1.57294 3.84424 1.76426V25.7865L9.84915 30.591V35.5155Z" fill="#4C4A50"/>
<path opacity="0.61" d="M9.897 35.5155H20.4656V30.3747L14.4607 25.5702V1.76426C14.4607 1.57294 14.4227 1.38356 14.3488 1.2071C14.2749 1.03065 14.1665 0.870613 14.0301 0.736454C13.8938 0.602295 13.732 0.496624 13.5544 0.425619C13.3768 0.354614 13.1867 0.319797 12.9955 0.322985H5.35725C5.16598 0.319797 4.97603 0.354614 4.7984 0.425619C4.62076 0.496624 4.45905 0.602295 4.32267 0.736454C4.18629 0.870613 4.07795 1.03065 4.00402 1.2071C3.9301 1.38356 3.89206 1.57294 3.89209 1.76426V25.7865L9.897 30.591V35.5155Z" fill="#4A484E"/>
<path opacity="0.62" d="M9.94534 35.5155H20.514V30.3747L14.5091 25.5702V1.76426C14.5091 1.57294 14.471 1.38356 14.3971 1.2071C14.3232 1.03065 14.2149 0.870613 14.0785 0.736454C13.9421 0.602295 13.7804 0.496624 13.6027 0.425619C13.4251 0.354614 13.2352 0.319797 13.0439 0.322985H5.40567C5.2144 0.319797 5.02437 0.354614 4.84674 0.425619C4.6691 0.496624 4.50739 0.602295 4.37101 0.736454C4.23463 0.870613 4.12629 1.03065 4.05236 1.2071C3.97844 1.38356 3.9404 1.57294 3.94043 1.76426V25.7865L9.94534 30.591V35.5155Z" fill="#48464C"/>
<path opacity="0.63" d="M9.99319 35.5155H20.5619V30.3747L14.557 25.5702V1.76426C14.557 1.57294 14.5189 1.38356 14.445 1.2071C14.3711 1.03065 14.2628 0.870613 14.1264 0.736454C13.99 0.602295 13.8283 0.496624 13.6507 0.425619C13.473 0.354614 13.283 0.319797 13.0917 0.322985H5.45352C5.26225 0.319797 5.07222 0.354614 4.89459 0.425619C4.71695 0.496624 4.55524 0.602295 4.41886 0.736454C4.28248 0.870613 4.17421 1.03065 4.10029 1.2071C4.02636 1.38356 3.98825 1.57294 3.98828 1.76426V25.7865L9.99319 30.591V35.5155Z" fill="#46444A"/>
<path opacity="0.64" d="M10.0415 35.5154H20.6102V30.3746L14.6052 25.5702V1.76421C14.5989 1.37975 14.4418 1.01322 14.1677 0.74359C13.8936 0.473957 13.5246 0.322885 13.1401 0.322937H5.47781C5.09559 0.322937 4.72897 0.474754 4.45869 0.745056C4.18842 1.01536 4.03662 1.38195 4.03662 1.76421V25.7865L10.0415 30.5909V35.5154Z" fill="#444348"/>
<path opacity="0.64" d="M10.0894 35.5154H20.634V30.3746L14.6291 25.5702V1.76421C14.6291 1.38195 14.4773 1.01536 14.207 0.745056C13.9367 0.474754 13.5702 0.322937 13.1879 0.322937H5.52567C5.14344 0.322937 4.77689 0.474754 4.50662 0.745056C4.23635 1.01536 4.08447 1.38195 4.08447 1.76421V25.7865L10.0894 30.5909V35.5154Z" fill="#424146"/>
<path opacity="0.65" d="M10.1133 35.5154H20.6819V30.3746L14.677 25.5702V1.76421C14.677 1.57493 14.6397 1.3875 14.5673 1.21263C14.4949 1.03776 14.3888 0.878897 14.2549 0.745056C14.1211 0.611216 13.9622 0.505043 13.7874 0.432609C13.6125 0.360175 13.4251 0.322937 13.2358 0.322937H5.57356C5.18909 0.322885 4.82004 0.473957 4.54594 0.74359C4.27184 1.01322 4.1147 1.37975 4.1084 1.76421V25.7865L10.1133 30.5909V35.5154Z" fill="#403F45"/>
<path opacity="0.66" d="M10.1612 35.5155H20.7298V30.3747L14.7249 25.5702V1.76426C14.7249 1.57294 14.6869 1.38356 14.6129 1.2071C14.539 1.03065 14.4308 0.870613 14.2944 0.736454C14.158 0.602295 13.9962 0.496624 13.8186 0.425619C13.6409 0.354614 13.451 0.319797 13.2597 0.322985H5.62149C5.43022 0.319797 5.24019 0.354614 5.06256 0.425619C4.88492 0.496624 4.72321 0.602295 4.58683 0.736454C4.45045 0.870613 4.34218 1.03065 4.26826 1.2071C4.19433 1.38356 4.15622 1.57294 4.15625 1.76426V25.7865L10.1612 30.591V35.5155Z" fill="#3F3D43"/>
<path opacity="0.67" d="M10.2095 35.5155H20.7781V30.3747L14.7732 25.5702V1.76426C14.7732 1.57294 14.7351 1.38356 14.6612 1.2071C14.5873 1.03065 14.479 0.870613 14.3426 0.736454C14.2063 0.602295 14.0445 0.496624 13.8669 0.425619C13.6893 0.354614 13.4992 0.319797 13.308 0.322985H5.66975C5.47848 0.319797 5.28853 0.354614 5.1109 0.425619C4.93326 0.496624 4.77147 0.602295 4.63509 0.736454C4.49871 0.870613 4.39045 1.03065 4.31652 1.2071C4.2426 1.38356 4.20456 1.57294 4.20459 1.76426V25.7865L10.2095 30.591V35.5155Z" fill="#3D3B41"/>
<path opacity="0.68" d="M10.2574 35.5155H20.826V30.3747L14.8211 25.5702V1.76426C14.8211 1.57294 14.7831 1.38356 14.7091 1.2071C14.6352 1.03065 14.5269 0.870613 14.3905 0.736454C14.2541 0.602295 14.0924 0.496624 13.9148 0.425619C13.7371 0.354614 13.5472 0.319797 13.3559 0.322985H5.7176C5.52633 0.319797 5.33638 0.354614 5.15875 0.425619C4.98112 0.496624 4.8194 0.602295 4.68302 0.736454C4.54664 0.870613 4.4383 1.03065 4.36437 1.2071C4.29045 1.38356 4.25241 1.57294 4.25244 1.76426V25.7865L10.2574 30.591V35.5155Z" fill="#3B3A3F"/>
<path opacity="0.69" d="M10.3057 35.5155H20.8744V30.3747L14.8695 25.5702V1.76426C14.8695 1.57294 14.8314 1.38356 14.7575 1.2071C14.6836 1.03065 14.5753 0.870613 14.4389 0.736454C14.3025 0.602295 14.1408 0.496624 13.9632 0.425619C13.7855 0.354614 13.5955 0.319797 13.4042 0.322985H5.76602C5.57475 0.319797 5.38472 0.354614 5.20709 0.425619C5.02945 0.496624 4.86774 0.602295 4.73136 0.736454C4.59498 0.870613 4.48671 1.03065 4.41279 1.2071C4.33886 1.38356 4.30075 1.57294 4.30078 1.76426V25.7865L10.3057 30.591V35.5155Z" fill="#39383E"/>
<path opacity="0.69" d="M10.3535 35.5154H20.9222V30.3746L14.9173 25.5702V1.76421C14.911 1.37975 14.7538 1.01322 14.4797 0.74359C14.2056 0.473957 13.8365 0.322885 13.452 0.322937H5.78975C5.40753 0.322937 5.04098 0.474754 4.77071 0.745056C4.50043 1.01536 4.34863 1.38195 4.34863 1.76421V25.7865L10.3535 30.5909V35.5154Z" fill="#37363C"/>
<path opacity="0.7" d="M10.4014 35.5154H20.946V30.3746L14.9411 25.5702V1.76421C14.9411 1.38195 14.7893 1.01536 14.519 0.745056C14.2487 0.474754 13.8822 0.322937 13.4999 0.322937H5.83768C5.45545 0.322937 5.0889 0.474754 4.81863 0.745056C4.54836 1.01536 4.39648 1.38195 4.39648 1.76421V25.7865L10.4014 30.5909V35.5154Z" fill="#36353A"/>
<path opacity="0.71" d="M10.4258 35.5154H20.9944V30.3746L14.9895 25.5702V1.76421C14.9895 1.38195 14.8376 1.01536 14.5673 0.745056C14.2971 0.474754 13.9305 0.322937 13.5483 0.322937H5.88602C5.69676 0.322937 5.50934 0.360175 5.33449 0.432609C5.15964 0.505043 5.0008 0.611216 4.86697 0.745056C4.73315 0.878897 4.62698 1.03776 4.55456 1.21263C4.48213 1.3875 4.44482 1.57493 4.44482 1.76421V25.7865L10.4258 30.5909V35.5154Z" fill="#343338"/>
<path opacity="0.72" d="M10.4738 35.5155H21.1385V30.3747L15.1336 25.5702V1.76426C15.1336 1.57294 15.0956 1.38356 15.0216 1.2071C14.9477 1.03065 14.8394 0.870613 14.703 0.736454C14.5666 0.602295 14.4049 0.496624 14.2273 0.425619C14.0496 0.354614 13.8597 0.319797 13.6684 0.322985H6.0301C5.64564 0.322934 5.27658 0.474005 5.00248 0.743638C4.72838 1.01327 4.57124 1.3798 4.56494 1.76426V25.7865L10.5699 30.591L10.4738 35.5155Z" fill="#323137"/>
<path opacity="0.73" d="M10.5218 35.5155H21.1385V30.3747L15.1336 25.5702V1.76426C15.1336 1.57294 15.0956 1.38356 15.0216 1.2071C14.9477 1.03065 14.8394 0.870613 14.703 0.736454C14.5666 0.602295 14.4049 0.496624 14.2273 0.425619C14.0496 0.354614 13.8597 0.319797 13.6684 0.322985H6.0301C5.83883 0.319797 5.64888 0.354614 5.47125 0.425619C5.29362 0.496624 5.1319 0.602295 4.99552 0.736454C4.85914 0.870613 4.7508 1.03065 4.67687 1.2071C4.60295 1.38356 4.56491 1.57294 4.56494 1.76426V25.7865L10.5699 30.591L10.5218 35.5155Z" fill="#303035"/>
<path opacity="0.74" d="M10.5699 35.5155H21.1385V30.3747L15.1336 25.5702V1.76426C15.1336 1.57294 15.0956 1.38356 15.0216 1.2071C14.9477 1.03065 14.8394 0.870613 14.703 0.736454C14.5666 0.602295 14.4049 0.496624 14.2273 0.425619C14.0496 0.354614 13.8597 0.319797 13.6684 0.322985H6.0301C5.83883 0.319797 5.64888 0.354614 5.47125 0.425619C5.29362 0.496624 5.1319 0.602295 4.99552 0.736454C4.85914 0.870613 4.7508 1.03065 4.67687 1.2071C4.60295 1.38356 4.56491 1.57294 4.56494 1.76426V25.7865L10.5699 30.591V35.5155Z" fill="#2F2E34"/>
<path opacity="0.75" d="M10.6179 35.5155H21.1385V30.3747L15.1336 25.5702V1.76426C15.1336 1.57294 15.0956 1.38356 15.0216 1.2071C14.9477 1.03065 14.8394 0.870613 14.703 0.736454C14.5666 0.602295 14.4049 0.496624 14.2273 0.425619C14.0496 0.354614 13.8597 0.319797 13.6684 0.322985H6.0301C5.83883 0.319797 5.64888 0.354614 5.47125 0.425619C5.29362 0.496624 5.1319 0.602295 4.99552 0.736454C4.85914 0.870613 4.7508 1.03065 4.67687 1.2071C4.60295 1.38356 4.56491 1.57294 4.56494 1.76426V25.7865L10.5699 30.591L10.6179 35.5155Z" fill="#2D2D32"/>
<path opacity="0.75" d="M10.6659 35.5154H21.1385V30.3746L15.1336 25.5702V1.76421C15.1273 1.37975 14.9701 1.01322 14.696 0.74359C14.4219 0.473957 14.0529 0.322885 13.6684 0.322937H6.00613C5.62391 0.322937 5.25729 0.474754 4.98701 0.745056C4.71674 1.01536 4.56494 1.38195 4.56494 1.76421V25.7865L10.5699 30.5909L10.6659 35.5154Z" fill="#2B2B30"/>
<path opacity="0.76" d="M10.7139 35.5154H21.2585V30.3746L15.2776 25.5702V1.76421C15.2713 1.37975 15.1142 1.01322 14.8401 0.74359C14.566 0.473957 14.1969 0.322885 13.8124 0.322937H6.15018C5.76795 0.322937 5.40133 0.474754 5.13106 0.745056C4.86078 1.01536 4.70898 1.38195 4.70898 1.76421V25.7865L10.7139 30.5909V35.5154Z" fill="#2A2A2F"/>
<path opacity="0.77" d="M10.7378 35.5154H21.3064V30.3746L15.3015 25.5702V1.76421C15.3015 1.38195 15.1496 1.01536 14.8793 0.745056C14.6091 0.474754 14.2425 0.322937 13.8603 0.322937H6.19803C5.8158 0.322937 5.44926 0.474754 5.17898 0.745056C4.90871 1.01536 4.75684 1.38195 4.75684 1.76421V25.7865L10.7378 30.5909V35.5154Z" fill="#28282D"/>
<path opacity="0.78" d="M10.7862 35.5155H21.3548V30.3747L15.3499 25.5702V1.76426C15.3499 1.57294 15.3119 1.38356 15.2379 1.2071C15.164 1.03065 15.0557 0.870613 14.9193 0.736454C14.7829 0.602295 14.6212 0.496624 14.4436 0.425619C14.2659 0.354614 14.076 0.319797 13.8847 0.322985H6.24641C5.86194 0.322934 5.49289 0.474005 5.21879 0.743638C4.94469 1.01327 4.78755 1.3798 4.78125 1.76426V25.7865L10.7862 30.591V35.5155Z" fill="#26262C"/>
<path opacity="0.79" d="M10.834 35.5155H21.4026V30.3747L15.3977 25.5702V1.76426C15.3978 1.57294 15.3597 1.38356 15.2858 1.2071C15.2119 1.03065 15.1036 0.870613 14.9672 0.736454C14.8308 0.602295 14.6691 0.496624 14.4915 0.425619C14.3139 0.354614 14.1238 0.319797 13.9326 0.322985H6.29434C6.10307 0.319797 5.91304 0.354614 5.73541 0.425619C5.55778 0.496624 5.39606 0.602295 5.25968 0.736454C5.1233 0.870613 5.01503 1.03065 4.94111 1.2071C4.86718 1.38356 4.82908 1.57294 4.8291 1.76426V25.7865L10.834 30.591V35.5155Z" fill="#25252A"/>
<path opacity="0.8" d="M10.8819 35.5155H21.4505V30.3747L15.4456 25.5702V1.76426C15.4456 1.57294 15.4076 1.38356 15.3336 1.2071C15.2597 1.03065 15.1514 0.870613 15.015 0.736454C14.8786 0.602295 14.7169 0.496624 14.5393 0.425619C14.3616 0.354614 14.1716 0.319797 13.9803 0.322985H6.34212C6.15085 0.319797 5.96089 0.354614 5.78326 0.425619C5.60563 0.496624 5.44391 0.602295 5.30753 0.736454C5.17115 0.870613 5.06281 1.03065 4.98889 1.2071C4.91496 1.38356 4.87693 1.57294 4.87695 1.76426V25.7865L10.8819 30.591V35.5155Z" fill="#232329"/>
<path opacity="0.81" d="M10.9302 35.5155H21.4988V30.3747L15.4939 25.5702V1.76426C15.4939 1.57294 15.4559 1.38356 15.382 1.2071C15.3081 1.03065 15.1997 0.870613 15.0633 0.736454C14.927 0.602295 14.7652 0.496624 14.5876 0.425619C14.41 0.354614 14.22 0.319797 14.0288 0.322985H6.39046C6.19919 0.319797 6.00923 0.354614 5.8316 0.425619C5.65397 0.496624 5.49225 0.602295 5.35587 0.736454C5.21949 0.870613 5.11115 1.03065 5.03723 1.2071C4.9633 1.38356 4.92527 1.57294 4.92529 1.76426V25.7865L10.9302 30.591V35.5155Z" fill="#222227"/>
<path opacity="0.81" d="M10.9781 35.5155H21.5468V30.3747L15.5418 25.5702V1.76426C15.5419 1.57294 15.5038 1.38356 15.4298 1.2071C15.3559 1.03065 15.2476 0.870613 15.1113 0.736454C14.9749 0.602295 14.8132 0.496624 14.6355 0.425619C14.4579 0.354614 14.2679 0.319797 14.0766 0.322985H6.43838C6.24711 0.319797 6.05709 0.354614 5.87945 0.425619C5.70182 0.496624 5.5401 0.602295 5.40372 0.736454C5.26734 0.870613 5.15907 1.03065 5.08515 1.2071C5.01123 1.38356 4.97312 1.57294 4.97314 1.76426V25.7865L10.9781 30.591V35.5155Z" fill="#202126"/>
<path opacity="0.82" d="M11.0259 35.5154H21.5945V30.3746L15.5896 25.5702V1.76421C15.5833 1.37975 15.4262 1.01322 15.1521 0.74359C14.878 0.473957 14.5089 0.322885 14.1244 0.322937H6.46219C6.07996 0.322937 5.71334 0.474754 5.44307 0.745056C5.1728 1.01536 5.021 1.38195 5.021 1.76421V25.7865L11.0259 30.5909V35.5154Z" fill="#1F1F24"/>
<path opacity="0.83" d="M11.0502 35.5154H21.6189V30.3746L15.614 25.5702V1.76421C15.614 1.38195 15.4621 1.01536 15.1918 0.745056C14.9216 0.474754 14.555 0.322937 14.1728 0.322937H6.51053C6.1283 0.322937 5.76176 0.474754 5.49148 0.745056C5.22121 1.01536 5.06934 1.38195 5.06934 1.76421V25.7865L11.0502 30.5909V35.5154Z" fill="#1D1E23"/>
<path opacity="0.84" d="M11.0982 35.5155H21.6668V30.3747L15.6619 25.5702V1.76426C15.6619 1.57294 15.6239 1.38356 15.55 1.2071C15.476 1.03065 15.3677 0.870613 15.2313 0.736454C15.0949 0.602295 14.9332 0.496624 14.7556 0.425619C14.5779 0.354614 14.3879 0.319797 14.1967 0.322985H6.55842C6.17396 0.322934 5.8049 0.474005 5.5308 0.743638C5.2567 1.01327 5.09956 1.3798 5.09326 1.76426V25.7865L11.0982 30.591V35.5155Z" fill="#1C1C21"/>
<path opacity="0.85" d="M11.146 35.5155H21.7146V30.3747L15.7097 25.5702V1.76426C15.7097 1.57294 15.6717 1.38356 15.5978 1.2071C15.5239 1.03065 15.4155 0.870613 15.2791 0.736454C15.1428 0.602295 14.981 0.496624 14.8034 0.425619C14.6258 0.354614 14.4358 0.319797 14.2446 0.322985H6.72639C6.53512 0.319797 6.3451 0.354614 6.16746 0.425619C5.98983 0.496624 5.82811 0.602295 5.69173 0.736454C5.55535 0.870613 5.44709 1.03065 5.37316 1.2071C5.29924 1.38356 5.2612 1.57294 5.26123 1.76426V25.7865L11.2661 30.591L11.146 35.5155Z" fill="#1A1B1F"/>
<path opacity="0.86" d="M11.194 35.5155H21.7627V30.3747L15.7578 25.5702V1.76426C15.7578 1.57294 15.7197 1.38356 15.6458 1.2071C15.5719 1.03065 15.4636 0.870613 15.3272 0.736454C15.1908 0.602295 15.0291 0.496624 14.8515 0.425619C14.6739 0.354614 14.4838 0.319797 14.2926 0.322985H6.72639C6.53512 0.319797 6.3451 0.354614 6.16746 0.425619C5.98983 0.496624 5.82811 0.602295 5.69173 0.736454C5.55535 0.870613 5.44709 1.03065 5.37316 1.2071C5.29924 1.38356 5.2612 1.57294 5.26123 1.76426V25.7865L11.2661 30.591L11.194 35.5155Z" fill="#19191E"/>
<path opacity="0.86" d="M11.2421 35.5155H21.8107V30.3747L15.8058 25.5702V1.76426C15.8058 1.57294 15.7678 1.38356 15.6939 1.2071C15.62 1.03065 15.5116 0.870613 15.3752 0.736454C15.2389 0.602295 15.0771 0.496624 14.8995 0.425619C14.7219 0.354614 14.5319 0.319797 14.3407 0.322985H6.72639C6.53512 0.319797 6.3451 0.354614 6.16746 0.425619C5.98983 0.496624 5.82811 0.602295 5.69173 0.736454C5.55535 0.870613 5.44709 1.03065 5.37316 1.2071C5.29924 1.38356 5.2612 1.57294 5.26123 1.76426V25.7865L11.2661 30.591L11.2421 35.5155Z" fill="#17181C"/>
<path opacity="0.87" d="M11.2901 35.5155H21.8587V30.3747L15.8538 25.5702V1.76426C15.8539 1.57294 15.8158 1.38356 15.7419 1.2071C15.668 1.03065 15.5597 0.870613 15.4233 0.736454C15.2869 0.602295 15.1252 0.496624 14.9475 0.425619C14.7699 0.354614 14.5799 0.319797 14.3887 0.322985H6.72639C6.53512 0.319797 6.3451 0.354614 6.16746 0.425619C5.98983 0.496624 5.82811 0.602295 5.69173 0.736454C5.55535 0.870613 5.44709 1.03065 5.37316 1.2071C5.29924 1.38356 5.2612 1.57294 5.26123 1.76426V25.7865L11.2661 30.591L11.2901 35.5155Z" fill="#16161B"/>
<path opacity="0.88" d="M11.3386 35.5154H21.9073V30.3746L15.9024 25.5702V1.76421C15.8961 1.37975 15.7389 1.01322 15.4648 0.74359C15.1907 0.473957 14.8216 0.322885 14.4371 0.322937H6.72684C6.34461 0.322937 5.97806 0.474754 5.70779 0.745056C5.43752 1.01536 5.28564 1.38195 5.28564 1.76421V25.7865L11.2906 30.5909L11.3386 35.5154Z" fill="#141519"/>
<path opacity="0.89" d="M11.3626 35.5154H21.9312V30.3746L15.9263 25.5702V1.76421C15.9263 1.38195 15.7745 1.01536 15.5043 0.745056C15.234 0.474754 14.8674 0.322937 14.4852 0.322937H6.72684C6.34461 0.322937 5.97806 0.474754 5.70779 0.745056C5.43752 1.01536 5.28564 1.38195 5.28564 1.76421V25.7865L11.2666 30.5909L11.3626 35.5154Z" fill="#131318"/>
<path opacity="0.9" d="M11.5303 35.5154H22.0989V30.3746L16.094 25.5702V1.76421C16.094 1.38195 15.9422 1.01536 15.6719 0.745056C15.4017 0.474754 15.035 0.322937 14.6528 0.322937H6.99055C6.60608 0.322885 6.23703 0.473957 5.96293 0.74359C5.68883 1.01322 5.53169 1.37975 5.52539 1.76421V25.7865L11.5303 30.5909V35.5154Z" fill="#111216"/>
<path opacity="0.91" d="M11.5303 35.5155H22.0989V30.3747L16.094 25.5702V1.76426C16.094 1.57294 16.056 1.38356 15.9821 1.2071C15.9082 1.03065 15.7998 0.870613 15.6634 0.736454C15.5271 0.602295 15.3653 0.496624 15.1877 0.425619C15.0101 0.354614 14.8201 0.319797 14.6289 0.322985H6.99055C6.60608 0.322934 6.23703 0.474005 5.96293 0.743638C5.68883 1.01327 5.53169 1.3798 5.52539 1.76426V25.7865L11.5303 30.591V35.5155Z" fill="#0F1014"/>
<path opacity="0.92" d="M11.5304 35.5155H22.099V30.3747L16.0941 25.5702V1.76426C16.0942 1.57294 16.0561 1.38356 15.9822 1.2071C15.9083 1.03065 15.7999 0.870613 15.6636 0.736454C15.5272 0.602295 15.3655 0.496624 15.1878 0.425619C15.0102 0.354614 14.8202 0.319797 14.629 0.322985H6.9667C6.77543 0.319797 6.58541 0.354614 6.40777 0.425619C6.23014 0.496624 6.06842 0.602295 5.93204 0.736454C5.79566 0.870613 5.68739 1.03065 5.61347 1.2071C5.53955 1.38356 5.50144 1.57294 5.50146 1.76426V25.7865L11.5064 30.591L11.5304 35.5155Z" fill="#0E0F13"/>
<path opacity="0.92" d="M11.5303 35.5155H22.0989V30.3747L16.094 25.5702V1.76426C16.094 1.57294 16.056 1.38356 15.9821 1.2071C15.9082 1.03065 15.7998 0.870613 15.6634 0.736454C15.5271 0.602295 15.3653 0.496624 15.1877 0.425619C15.0101 0.354614 14.8201 0.319797 14.6289 0.322985H6.99055C6.79928 0.319797 6.60933 0.354614 6.4317 0.425619C6.25406 0.496624 6.09235 0.602295 5.95597 0.736454C5.81959 0.870613 5.71125 1.03065 5.63732 1.2071C5.5634 1.38356 5.52536 1.57294 5.52539 1.76426V25.7865L11.5303 30.591V35.5155Z" fill="#0C0D11"/>
<path opacity="0.93" d="M11.5303 35.5155H22.0989V30.3747L16.094 25.5702V1.76426C16.094 1.57294 16.056 1.38356 15.9821 1.2071C15.9082 1.03065 15.7998 0.870613 15.6634 0.736454C15.5271 0.602295 15.3653 0.496624 15.1877 0.425619C15.0101 0.354614 14.8201 0.319797 14.6289 0.322985H6.99055C6.79928 0.319797 6.60933 0.354614 6.4317 0.425619C6.25406 0.496624 6.09235 0.602295 5.95597 0.736454C5.81959 0.870613 5.71125 1.03065 5.63732 1.2071C5.5634 1.38356 5.52536 1.57294 5.52539 1.76426V25.7865L11.5303 30.591V35.5155Z" fill="#0B0C0F"/>
<path opacity="0.94" d="M11.6504 35.5154H22.2191V30.3746L16.2142 25.5702V1.76421C16.2079 1.37975 16.0508 1.01322 15.7767 0.74359C15.5026 0.473957 15.1334 0.322885 14.749 0.322937H7.0867C6.70448 0.322937 6.33793 0.474754 6.06765 0.745056C5.79738 1.01536 5.64551 1.38195 5.64551 1.76421V25.7865L11.6504 30.5909V35.5154Z" fill="#090A0D"/>
<path opacity="0.95" d="M11.6988 35.5154H22.2433V30.3746L16.2384 25.5702V1.76421C16.2384 1.38195 16.0866 1.01536 15.8164 0.745056C15.5461 0.474754 15.1795 0.322937 14.7972 0.322937H7.13504C6.75282 0.322937 6.38619 0.474754 6.11592 0.745056C5.84565 1.01536 5.69385 1.38195 5.69385 1.76421V25.7865L11.6988 30.5909V35.5154Z" fill="#07080B"/>
<path opacity="0.96" d="M11.7226 35.5154H22.2913V30.3746L16.2864 25.5702V1.76421C16.2864 1.38195 16.1345 1.01536 15.8642 0.745056C15.5939 0.474754 15.2274 0.322937 14.8452 0.322937H7.18289C6.80067 0.322937 6.43412 0.474754 6.16385 0.745056C5.89357 1.01536 5.7417 1.38195 5.7417 1.76421V25.7865L11.7226 30.5909V35.5154Z" fill="#060709"/>
<path opacity="0.97" d="M11.7705 35.5155H22.3392V30.3747L16.3342 25.5702V1.76426C16.3343 1.57294 16.2962 1.38356 16.2223 1.2071C16.1484 1.03065 16.0401 0.870613 15.9037 0.736454C15.7673 0.602295 15.6056 0.496624 15.4279 0.425619C15.2503 0.354614 15.0604 0.319797 14.8691 0.322985H7.23079C6.84632 0.322934 6.47726 0.474005 6.20317 0.743638C5.92907 1.01327 5.77193 1.3798 5.76562 1.76426V25.7865L11.7705 30.591V35.5155Z" fill="#050607"/>
<path opacity="0.97" d="M11.8189 35.5155H22.3875V30.3747L16.3826 25.5702V1.76426C16.3826 1.57294 16.3446 1.38356 16.2707 1.2071C16.1967 1.03065 16.0884 0.870613 15.952 0.736454C15.8156 0.602295 15.6539 0.496624 15.4763 0.425619C15.2986 0.354614 15.1087 0.319797 14.9174 0.322985H7.2792C7.08793 0.319797 6.89791 0.354614 6.72027 0.425619C6.54264 0.496624 6.38092 0.602295 6.24454 0.736454C6.10816 0.870613 5.99982 1.03065 5.9259 1.2071C5.85197 1.38356 5.81394 1.57294 5.81396 1.76426V25.7865L11.8189 30.591V35.5155Z" fill="#040406"/>
<path opacity="0.98" d="M11.8667 35.5155H22.4353V30.3747L16.4304 25.5702V1.76426C16.4305 1.57294 16.3924 1.38356 16.3184 1.2071C16.2445 1.03065 16.1362 0.870613 15.9999 0.736454C15.8635 0.602295 15.7018 0.496624 15.5241 0.425619C15.3465 0.354614 15.1565 0.319797 14.9652 0.322985H7.32698C7.13571 0.319797 6.94568 0.354614 6.76805 0.425619C6.59042 0.496624 6.4287 0.602295 6.29232 0.736454C6.15594 0.870613 6.04767 1.03065 5.97375 1.2071C5.89983 1.38356 5.86179 1.57294 5.86182 1.76426V25.7865L11.8667 30.591V35.5155Z" fill="#030304"/>
<path opacity="0.99" d="M11.9151 35.5155H22.4837V30.3747L16.4788 25.5702V1.76426C16.4788 1.57294 16.4408 1.38356 16.3668 1.2071C16.2929 1.03065 16.1846 0.870613 16.0482 0.736454C15.9118 0.602295 15.7501 0.496624 15.5725 0.425619C15.3948 0.354614 15.2049 0.319797 15.0136 0.322985H7.37532C7.18405 0.319797 6.9941 0.354614 6.81646 0.425619C6.63883 0.496624 6.47711 0.602295 6.34073 0.736454C6.20435 0.870613 6.09601 1.03065 6.02209 1.2071C5.94817 1.38356 5.91013 1.57294 5.91016 1.76426V25.7865L11.9151 30.591V35.5155Z" fill="#020203"/>
<path d="M11.9629 35.5154H22.5315V30.3746L16.5266 25.5702V1.76421C16.5203 1.37975 16.3632 1.01322 16.0891 0.74359C15.815 0.473957 15.4459 0.322885 15.0615 0.322937H7.3992C7.01698 0.322937 6.65043 0.474754 6.38015 0.745056C6.10988 1.01536 5.95801 1.38195 5.95801 1.76421V25.7865L11.9629 30.5909V35.5154Z" fill="#010101"/>
</g>
<path d="M15.7583 25.498V1.76403C15.7583 1.57475 15.721 1.38732 15.6486 1.21245C15.5761 1.03757 15.47 0.878714 15.3361 0.744873C15.2023 0.611033 15.0435 0.50486 14.8686 0.432426C14.6938 0.359992 14.5064 0.322754 14.3171 0.322754H6.72688C6.34241 0.322702 5.97336 0.473774 5.69926 0.743407C5.42516 1.01304 5.26802 1.37957 5.26172 1.76403V25.7863L11.2666 30.5907V36.7645L11.9151 37.2449H21.8353V30.2303L15.7583 25.498Z" fill="url(#paint0_linear_552_659)"/>
<path d="M6.72654 0.34668H17.055V25.402H6.48633V0.442863L6.72654 0.34668Z" fill="url(#paint1_linear_552_659)"/>
<path d="M23.1082 30.3745H12.5635L6.55859 25.498H17.1032L23.1082 30.3745Z" fill="url(#paint2_linear_552_659)"/>
<path d="M23.1077 30.3745H12.5391V37.4132H23.1077V30.3745Z" fill="url(#paint3_linear_552_659)"/>
<defs>
<linearGradient id="paint0_linear_552_659" x1="13.4764" y1="37.3891" x2="13.4764" y2="0.346776" gradientUnits="userSpaceOnUse">
<stop stop-color="#2A292A"/>
<stop offset="0.12" stop-color="#6A6A6A"/>
<stop offset="1" stop-color="#A8A8A8"/>
</linearGradient>
<linearGradient id="paint1_linear_552_659" x1="11.8187" y1="25.4981" x2="11.8187" y2="0.34668" gradientUnits="userSpaceOnUse">
<stop stop-color="white"/>
<stop offset="0.12" stop-color="#D5D5D4"/>
<stop offset="0.88" stop-color="#D5D5D4"/>
<stop offset="1" stop-color="white"/>
</linearGradient>
<linearGradient id="paint2_linear_552_659" x1="14.8214" y1="30.3745" x2="14.8214" y2="25.498" gradientUnits="userSpaceOnUse">
<stop stop-color="white"/>
<stop offset="0.12" stop-color="#D5D5D4"/>
<stop offset="0.76" stop-color="#C4C4C3"/>
<stop offset="1" stop-color="white"/>
</linearGradient>
<linearGradient id="paint3_linear_552_659" x1="17.8234" y1="37.3891" x2="17.8234" y2="30.3745" gradientUnits="userSpaceOnUse">
<stop stop-color="#2A292A"/>
<stop offset="0.12" stop-color="#6A6A6A"/>
<stop offset="0.88" stop-color="#A8A8A8"/>
<stop offset="1" stop-color="white"/>
</linearGradient>
</defs>
</svg>
