<svg width="147" height="43" viewBox="0 0 147 43" fill="none" xmlns="http://www.w3.org/2000/svg">
<g clip-path="url(#clip0_10_2677)">
<path d="M52.3869 32.2281L53.5209 30.9263V9.59154L52.7004 10.0637L52.4269 9.5106L59.0844 5.39609V14.4345L60.9523 13.2946C63.1326 13.2097 65.2982 13.6904 67.243 14.6908C68.7759 15.5055 70.031 16.7676 70.8452 18.313C71.5978 19.7915 71.9846 21.4324 71.9726 23.0952C71.9746 24.2139 71.8174 25.327 71.5057 26.4003C70.8074 28.7341 69.7623 30.4137 68.3703 31.4389C67.1141 32.4159 65.5789 32.9554 63.9942 32.9768C62.9329 33.0092 61.891 32.6842 61.0323 32.0527C60.1572 31.3323 59.4701 30.4059 59.0311 29.3547L54.2414 32.9768H49.4316V32.2281H52.3869ZM59.8249 29.0984C60.176 30.1141 60.846 30.9858 61.7328 31.5806C62.4968 32.0349 63.3884 32.22 64.2677 32.1067C64.674 32.0297 65.0606 31.8705 65.4045 31.6387C65.7484 31.4069 66.0425 31.1072 66.269 30.7577C66.8694 29.955 67.1629 28.5857 67.1629 26.6431C67.1362 25.0949 66.9665 23.5526 66.6559 22.0362C66.4415 20.9183 66.1174 19.8247 65.6886 18.7716C65.2585 17.6616 64.6598 16.6261 63.9142 15.7026C63.6338 15.3118 63.2685 14.9912 62.8464 14.7655C62.4243 14.5398 61.9566 14.4151 61.4793 14.4008C61.1054 14.41 60.7366 14.4901 60.3919 14.6369L59.0578 15.5407V24.3566C59.0079 25.9724 59.2685 27.5828 59.8249 29.0984Z" fill="white"/>
<path d="M92.9995 32.9768H89.9976L85.0944 29.4693C84.7391 30.6411 83.9506 31.6292 82.893 32.2281C82.0734 32.6845 81.1597 32.9409 80.2247 32.9768C78.9016 33.0231 77.592 32.6961 76.4423 32.0325C75.4996 31.4699 74.7286 30.6554 74.2142 29.6784C73.7498 28.783 73.5201 27.7821 73.5471 26.7713C73.5031 25.5468 73.9203 24.3511 74.7145 23.4257C75.3867 22.6564 76.2338 22.0638 77.1827 21.699C78.2072 21.3324 79.2546 21.0349 80.3181 20.8086C80.7673 20.7378 81.1905 20.5495 81.5455 20.2623C81.7652 19.9689 81.8697 19.6037 81.839 19.237V13.2946C84.6408 13.2946 86.6843 13.7263 87.9696 14.5896C89.101 15.2505 89.9318 16.3326 90.2844 17.6047C90.5788 19.1011 90.7107 20.6255 90.678 22.1509V30.9195L91.8054 32.2213H93.0128L92.9995 32.9768ZM84.5474 15.4395C84.3624 15.0447 84.0612 14.7174 83.685 14.5024C83.3088 14.2875 82.876 14.1954 82.4461 14.2389V19.4731C82.4582 19.8814 82.3362 20.2822 82.0992 20.613C81.7383 21.0171 81.278 21.3173 80.765 21.4831C80.6916 21.4831 80.4048 21.618 79.9112 21.8136C79.3938 22.0309 78.9702 22.428 78.7171 22.9333C78.3968 23.5572 78.2428 24.2546 78.2701 24.9569C78.2703 25.6048 78.3352 26.2511 78.4636 26.886C78.6397 28.0533 79.1159 29.1535 79.8444 30.0764C80.1025 30.4668 80.4463 30.7917 80.849 31.0257C81.2516 31.2597 81.7023 31.3965 82.1659 31.4254C82.5327 31.4257 82.8934 31.3305 83.2132 31.1489C83.7155 30.7484 84.131 30.2479 84.434 29.6784C84.9372 28.6881 85.1676 27.5791 85.1011 26.4678V18.4883C85.1837 17.4406 84.9928 16.3893 84.5474 15.4395Z" fill="white"/>
<path d="M103.259 15.7498C103.453 15.495 103.567 15.1872 103.586 14.8662C103.586 14.421 103.212 14.1917 102.458 14.1917L97.048 14.2322L95.7606 19.1493L95.1802 19.0347L96.7278 13.2946H107.281C109.282 13.2946 110.316 13.8274 110.316 14.9067C110.339 15.2569 110.243 15.6044 110.043 15.8914L98.7958 32.0325H99.3028L99.9699 31.0477H109.002L109.816 29.8673L110.403 30.299L108.569 32.997H98.2955L93.7793 29.6245L102.845 16.3973L103.259 15.7498Z" fill="white"/>
<path d="M129.869 32.9768H126.873L121.964 29.4693C121.608 30.6411 120.82 31.6292 119.762 32.2281C118.943 32.6863 118.029 32.9429 117.094 32.9768C115.773 33.024 114.465 32.6969 113.318 32.0325C112.372 31.472 111.599 30.6571 111.083 29.6784C110.619 28.783 110.389 27.7821 110.416 26.7713C110.379 25.552 110.796 24.3629 111.584 23.4392C112.256 22.6699 113.103 22.0773 114.052 21.7125C115.076 21.3459 116.124 21.0484 117.187 20.8221C117.637 20.7513 118.06 20.5629 118.415 20.2758C118.634 19.9824 118.739 19.6172 118.708 19.2505V13.2946C121.51 13.2946 123.558 13.7263 124.839 14.5896C125.972 15.2483 126.804 16.3313 127.154 17.6047C127.448 19.1011 127.58 20.6255 127.547 22.1509V30.9195L128.675 32.2213H129.882L129.869 32.9768ZM121.41 15.4395C121.225 15.0447 120.924 14.7174 120.548 14.5024C120.171 14.2875 119.739 14.1954 119.309 14.2389V19.4731C119.321 19.8814 119.199 20.2822 118.962 20.613C118.601 21.0169 118.14 21.317 117.628 21.4831C117.548 21.4831 117.261 21.618 116.767 21.8136C116.245 22.0282 115.816 22.4256 115.56 22.9333C115.239 23.5572 115.085 24.2546 115.113 24.9569C115.113 25.6048 115.178 26.2511 115.306 26.886C115.482 28.0533 115.958 29.1535 116.687 30.0764C116.945 30.4668 117.289 30.7917 117.692 31.0257C118.094 31.2597 118.545 31.3965 119.008 31.4254C119.375 31.4264 119.736 31.3311 120.056 31.1489C120.569 30.7531 120.995 30.252 121.303 29.6784C121.806 28.6881 122.037 27.5791 121.97 26.4678V18.4883C122.051 17.44 121.858 16.3886 121.41 15.4395Z" fill="white"/>
<path d="M133.685 17.3889L140.356 13.2946V18.0161C140.727 16.9806 141.246 16.0057 141.897 15.1225C142.413 14.463 143.109 13.9707 143.898 13.706C144.914 13.3995 145.973 13.2605 147.033 13.2946L145.426 18.6434C145.31 18.0782 145.055 17.5516 144.685 17.1123C144.524 16.9118 144.321 16.7507 144.09 16.6409C143.859 16.5311 143.606 16.4755 143.351 16.4783C143.111 16.497 142.875 16.5516 142.651 16.6401C142.163 16.845 141.734 17.1704 141.403 17.5864C141.072 18.0024 140.85 18.4957 140.756 19.0212C140.459 20.4763 140.322 21.9603 140.349 23.446V29.3142L135.479 32.9768H130.656V32.2281H133.651L134.752 30.9263V17.4361L133.938 17.9082L133.685 17.3889Z" fill="white"/>
<path d="M6.76429 22.4679C5.53684 24.822 4.00253 26.9804 2.70171 29.3007C0.804598 25.0166 0.451794 20.1958 1.70459 15.676C2.95739 11.1562 5.73662 7.22294 9.55939 4.55969C10.581 10.6776 9.59961 16.9655 6.76429 22.4679Z" fill="white"/>
<path d="M20.6268 8.35044C17.6716 14.0973 17.1046 20.9098 18.3787 27.2772C19.4083 32.1114 21.2785 36.7224 23.9022 40.8955C21.1368 41.3338 18.3111 41.1771 15.6097 40.4355C12.9083 39.694 10.3921 38.3843 8.22559 36.5922C8.22559 36.4033 8.22559 36.2077 8.22559 36.0121C8.22559 29.6042 9.98003 23.3448 10.9406 17.0044C11.6077 12.6066 11.8612 7.9862 10.9406 3.67609C15.1571 1.24789 20.1043 0.456561 24.8561 1.45021C23.4819 3.77052 21.8609 5.94919 20.6268 8.35044Z" fill="white"/>
<path d="M37.284 31.5468L37.5441 31.8436C36.5988 33.336 35.464 34.6967 34.1687 35.8907C29.6957 31.3492 26.6626 25.563 25.4565 19.2708C24.7656 16.1442 24.7134 12.9079 25.303 9.76016C25.9148 7.19878 26.933 4.75459 28.3183 2.52267C29.7025 3.10171 31.0163 3.83951 32.2341 4.72158C31.1067 9.55781 30.4596 14.475 31.5136 19.2775C31.9308 20.9968 32.4521 22.6885 33.0746 24.3431C33.4689 25.5474 33.9574 26.718 34.5356 27.8438C35.3297 29.166 36.2503 30.4063 37.284 31.5468Z" fill="white"/>
<path d="M40.6322 21.0852C40.6354 23.3019 40.2747 25.5037 39.5648 27.601C37.7037 23.7832 36.6697 19.5068 35.8959 15.2777C35.3459 12.5846 35.0466 9.84536 35.002 7.09586C38.6198 10.8324 40.6416 15.8561 40.6322 21.0852Z" fill="white"/>
</g>
<defs>
<clipPath id="clip0_10_2677">
<rect width="147" height="43" fill="white"/>
</clipPath>
</defs>
</svg>
