<svg width="226" height="18" viewBox="0 0 226 18" fill="none" xmlns="http://www.w3.org/2000/svg">
<g clip-path="url(#clip0_10_2706)">
<path d="M1.79013 9.63997V7.11997C1.79013 6.11997 1.79013 5.40997 1.79013 4.84997C1.79013 4.28997 1.79013 3.84997 1.71013 3.60997C1.69642 3.41287 1.6383 3.22143 1.54013 3.04997C1.47972 2.9652 1.3965 2.89931 1.30013 2.85997C0.430133 2.54997 0.000133198 2.08997 0.000133198 1.46997C-0.0174833 1.28054 0.0227925 1.09022 0.115638 0.924174C0.208484 0.758123 0.349529 0.624153 0.520133 0.539967C1.02724 0.334471 1.57405 0.245613 2.12013 0.279967H3.53013C4.02013 0.279967 4.53013 0.279967 5.08013 0.279967C5.63013 0.279967 5.97013 0.279967 6.46013 0.279967L7.88013 0.239967L9.17013 0.169967H10.1701C11.552 0.0596145 12.9279 0.446138 14.0501 1.25997C14.4702 1.62218 14.8028 2.07491 15.0227 2.58413C15.2427 3.09335 15.3444 3.6458 15.3201 4.19997C15.3317 4.98916 15.0583 5.75606 14.5501 6.35997C14.3163 6.61501 14.0547 6.84309 13.7701 7.03997C13.4801 7.23997 13.3401 7.42997 13.3401 7.59997C13.3401 7.76997 13.5501 7.82997 13.9801 7.95997C14.4526 8.1155 14.8858 8.37134 15.2501 8.70997C15.6174 9.07267 15.8919 9.51861 16.0501 10.01C16.2673 10.6023 16.3757 11.2291 16.3701 11.86C16.3847 12.6027 16.2165 13.3376 15.8801 14C15.554 14.6155 15.0924 15.1489 14.5301 15.56C13.9283 16.0097 13.251 16.3484 12.5301 16.56C11.6989 16.7832 10.8408 16.8909 9.98013 16.88C8.98013 16.88 8.03013 16.88 7.14013 16.78C6.25013 16.68 5.37013 16.67 4.49013 16.67C4.04013 16.67 3.56013 16.67 3.05013 16.74C2.54013 16.81 2.14013 16.81 1.83013 16.81C1.57647 16.8408 1.31921 16.8203 1.07358 16.7499C0.827947 16.6795 0.598946 16.5605 0.400133 16.4C0.149714 16.1505 0.00624869 15.8134 0.000133198 15.46C0.000133198 15.03 0.110133 14.75 0.340133 14.65C0.649779 14.4701 0.935387 14.2517 1.19013 14C1.30656 13.8999 1.40177 13.7775 1.47013 13.64C1.55953 13.436 1.62011 13.2206 1.65013 13C1.70013 12.69 1.73013 12.27 1.76013 11.74C1.79013 11.21 1.79013 10.51 1.79013 9.63997ZM7.10013 3.44997V6.56997C7.10013 6.93997 7.33013 7.11997 7.80013 7.11997C8.04172 7.1414 8.28512 7.1115 8.51433 7.03222C8.74355 6.95294 8.95341 6.82608 9.13013 6.65997C9.45683 6.19018 9.60571 5.61948 9.55013 5.04997C9.60304 4.45633 9.46651 3.86118 9.16013 3.34997C8.96514 3.16377 8.73121 3.02322 8.47526 2.93847C8.2193 2.85373 7.94772 2.82692 7.68013 2.85997C7.60069 2.84991 7.52 2.85834 7.44435 2.88459C7.3687 2.91084 7.30014 2.95421 7.244 3.01131C7.18786 3.06841 7.14567 3.13771 7.12072 3.2138C7.09576 3.28989 7.08872 3.37071 7.10013 3.44997ZM7.24013 10.52V13C7.22125 13.1458 7.23476 13.294 7.27971 13.434C7.32465 13.574 7.39991 13.7024 7.50013 13.81C7.74887 13.9717 8.04455 14.0456 8.34013 14.02C9.56013 14.02 10.1701 13.24 10.1701 11.69C10.2177 11.1347 10.0806 10.5793 9.78013 10.11C9.5798 9.92252 9.34067 9.78146 9.07971 9.69678C8.81875 9.6121 8.54236 9.58587 8.27013 9.61997C7.99965 9.59804 7.72937 9.66473 7.50013 9.80997C7.40162 9.8977 7.32632 10.0084 7.28096 10.1323C7.2356 10.2562 7.22157 10.3894 7.24013 10.52Z" fill="white"/>
<path d="M18.9095 7.81995C18.9095 6.88995 18.9095 6.13995 18.9095 5.54995C18.9095 4.95995 18.9095 4.54995 18.8395 4.15995C18.828 3.89726 18.7775 3.63775 18.6895 3.38995C18.6197 3.2471 18.5286 3.11562 18.4195 2.99995C18.3019 2.87182 18.1589 2.76964 17.9995 2.69995C17.8472 2.61951 17.7002 2.52933 17.5595 2.42995C17.4207 2.33433 17.299 2.21601 17.1995 2.07995C17.0913 1.92142 17.0386 1.73156 17.0495 1.53995C17.0895 0.709946 17.7295 0.299946 18.9995 0.299946C19.4295 0.299946 20.1395 0.299946 21.1195 0.359946C22.0995 0.419946 23.3395 0.419946 24.8695 0.419946C25.8695 0.419946 26.6595 0.419946 27.2995 0.359946L28.8895 0.239946C29.3095 0.239946 29.6495 0.169946 29.8895 0.129946C30.1343 0.0912993 30.3817 0.071242 30.6295 0.0699463C30.847 0.0735181 31.0585 0.142089 31.2367 0.266837C31.4149 0.391584 31.5517 0.566802 31.6295 0.769946C31.8927 1.32183 32.0196 1.92884 31.9995 2.53995C32.0374 3.24699 31.9072 3.95296 31.6195 4.59995C31.5388 4.80365 31.402 4.98032 31.2251 5.10952C31.0481 5.23871 30.8381 5.31513 30.6195 5.32995C30.473 5.31492 30.3315 5.26768 30.2053 5.19162C30.0791 5.11555 29.9713 5.01254 29.8895 4.88995C29.684 4.61485 29.4637 4.35113 29.2295 4.09995C28.9275 3.73188 28.5345 3.4492 28.0895 3.27995C27.5756 3.11703 27.0385 3.03934 26.4995 3.04995C25.786 2.97519 25.0653 3.08898 24.4095 3.37995C24.3562 3.42821 24.3121 3.48583 24.2795 3.54995C24.2285 3.66018 24.198 3.77878 24.1895 3.89995C24.1532 4.12823 24.1332 4.35882 24.1295 4.58995C24.1295 4.87995 24.1295 5.27995 24.1295 5.76995C24.0959 6.15062 24.1506 6.53393 24.2895 6.88995C24.3895 7.04995 24.6895 7.11995 25.1795 7.11995C25.4719 7.14706 25.7639 7.06514 25.9995 6.88995C26.0773 6.82295 26.1398 6.74012 26.1829 6.64698C26.226 6.55385 26.2488 6.45257 26.2495 6.34995C26.2305 5.96426 26.3061 5.57978 26.4695 5.22995C26.5312 5.10327 26.6283 4.99716 26.7489 4.9244C26.8696 4.85165 27.0087 4.81537 27.1495 4.81995C27.4204 4.82645 27.6831 4.91368 27.904 5.07047C28.1249 5.22725 28.294 5.44644 28.3895 5.69995C28.7241 6.50663 28.8744 7.3778 28.8295 8.24995C28.8717 9.20574 28.7256 10.1605 28.3995 11.0599C28.1095 11.7299 27.6995 12.0599 27.1495 12.0599C26.5995 12.0599 26.2495 11.6299 26.2495 10.7799C26.2287 10.5039 26.143 10.2367 25.9995 9.99995C25.9129 9.85353 25.7853 9.73571 25.6325 9.66106C25.4796 9.58641 25.3082 9.55821 25.1395 9.57995C24.6895 9.57995 24.4195 9.67995 24.3295 9.86995C24.2203 10.26 24.1763 10.6655 24.1995 11.0699C24.1995 11.6099 24.1995 12.0699 24.1995 12.3599C24.1856 12.6098 24.1856 12.8601 24.1995 13.1099C24.2085 13.2367 24.2461 13.3598 24.3095 13.4699C24.3551 13.5305 24.409 13.5844 24.4695 13.6299C24.67 13.7523 24.8957 13.8276 25.1295 13.8499C25.5445 13.8964 25.962 13.9165 26.3795 13.9099C27.1203 13.966 27.8611 13.8025 28.5095 13.4399C28.9112 13.1828 29.2524 12.8416 29.5095 12.4399C29.7151 12.1211 29.8956 11.7867 30.0495 11.4399C30.0946 11.3012 30.183 11.1805 30.3019 11.0959C30.4207 11.0113 30.5637 10.9671 30.7095 10.9699C30.9449 10.9673 31.1788 11.008 31.3995 11.0899C31.6247 11.1749 31.8172 11.3289 31.9495 11.5299C32.1242 11.8087 32.2462 12.1172 32.3095 12.4399C32.4034 12.9376 32.447 13.4435 32.4395 13.9499C32.4325 14.2859 32.3957 14.6205 32.3295 14.9499C32.2655 15.2942 32.1614 15.6298 32.0195 15.9499C31.8942 16.2409 31.7104 16.503 31.4795 16.7199C31.2716 16.9162 30.9954 17.0238 30.7095 17.0199C30.5575 17.0127 30.4066 16.9892 30.2595 16.9499C30.0495 16.9499 29.7295 16.8599 29.2595 16.8099L27.5695 16.6699C26.8695 16.6699 25.9795 16.5999 24.8895 16.5999C24.2495 16.5999 23.7295 16.5999 23.3195 16.5999L22.1795 16.6699L21.1095 16.7399C20.7395 16.7399 20.2895 16.7399 19.7395 16.7399C19.0519 16.7632 18.368 16.6298 17.7395 16.3499C17.1895 16.0799 16.9095 15.7799 16.9095 15.4399C16.9053 15.2485 16.9393 15.0581 17.0095 14.8799C17.0801 14.7467 17.175 14.628 17.2895 14.5299C17.4048 14.4399 17.5249 14.3565 17.6495 14.2799C17.7832 14.1965 17.9102 14.1029 18.0295 13.9999C18.3961 13.4304 18.5905 12.7672 18.5895 12.0899C18.8595 11.1999 18.9095 9.74995 18.9095 7.81995Z" fill="white"/>
<path d="M41.4697 12.6901H40.5597C39.9239 12.6644 39.2877 12.7283 38.6697 12.8801C38.496 12.9154 38.3405 13.0111 38.2306 13.1503C38.1208 13.2894 38.0638 13.4629 38.0697 13.6401C38.0599 13.731 38.0752 13.823 38.114 13.9058C38.1528 13.9887 38.2136 14.0593 38.2897 14.1101C38.4499 14.2088 38.617 14.2957 38.7897 14.3701C38.974 14.4418 39.1435 14.5469 39.2897 14.6801C39.372 14.7676 39.4342 14.8719 39.4722 14.9859C39.5102 15.0998 39.523 15.2207 39.5097 15.3401C39.509 15.5975 39.4248 15.8478 39.2697 16.0534C39.1147 16.2589 38.8971 16.4087 38.6497 16.4801C37.8021 16.7577 36.9105 16.8764 36.0197 16.8301C35.1818 16.8839 34.3423 16.7542 33.5597 16.4501C33.3385 16.3606 33.149 16.2072 33.0154 16.0095C32.8818 15.8117 32.8102 15.5787 32.8097 15.3401C32.7979 15.1438 32.8358 14.9478 32.9197 14.7701C33.0069 14.6501 33.1196 14.5511 33.2497 14.4801C33.4094 14.3917 33.5767 14.318 33.7497 14.2601C33.9733 14.1718 34.1822 14.0504 34.3697 13.9001C34.7729 13.5004 35.0746 13.0101 35.2497 12.4701C35.5764 11.6967 36.0264 10.6767 36.5997 9.41006C37.4597 7.48006 38.1497 5.93006 38.6997 4.75006C39.127 3.95469 39.4017 3.08643 39.5097 2.19006C39.5215 2.04217 39.4939 1.89381 39.4297 1.76006C39.3608 1.54381 39.3337 1.31644 39.3497 1.09006C39.3558 0.987766 39.376 0.886808 39.4097 0.790057C39.4657 0.647979 39.559 0.523621 39.6797 0.430056C39.8613 0.284823 40.0732 0.182292 40.2997 0.130056C40.6812 0.0292577 41.0755 -0.0145499 41.4697 5.64794e-05C41.9831 -0.00460274 42.4957 0.0422992 42.9997 0.140056C43.4321 0.235533 43.832 0.44237 44.1597 0.740057C44.5655 1.13542 44.9033 1.5949 45.1597 2.10006C45.5738 2.87014 45.9477 3.6612 46.2797 4.47006L48.4497 9.66006C48.6597 10.1701 48.8697 10.6601 49.0597 11.1601C49.2497 11.6601 49.4397 12.0901 49.6097 12.4801C49.7493 12.8245 49.913 13.1587 50.0997 13.4801C50.1941 13.6735 50.3484 13.8313 50.5397 13.9301C50.9118 14.0471 51.2533 14.2452 51.5397 14.5101C51.7172 14.7601 51.802 15.0642 51.7797 15.3701C51.7749 15.5721 51.7008 15.7663 51.5697 15.9201C51.3681 16.1406 51.1133 16.3059 50.8297 16.4001C50.3736 16.5647 49.9008 16.6787 49.4197 16.7401C48.6865 16.8285 47.9482 16.8686 47.2097 16.8601C46.0092 16.9121 44.8073 16.7942 43.6397 16.5101C42.8997 16.2767 42.5297 15.8967 42.5297 15.3701C42.5121 15.1312 42.5874 14.8948 42.7397 14.7101C42.8768 14.5622 43.0394 14.4403 43.2197 14.3501C43.3847 14.2655 43.5449 14.172 43.6997 14.0701C43.7692 14.0254 43.8254 13.9628 43.8624 13.8889C43.8993 13.815 43.9157 13.7325 43.9097 13.6501C43.9397 13.0001 43.1097 12.6901 41.4697 12.6901ZM39.4697 9.69006H42.8897C42.6272 8.86234 42.2926 8.05926 41.8897 7.29006C41.5797 6.77006 41.3397 6.50006 41.1697 6.50006C40.9997 6.50006 40.7797 6.77006 40.5297 7.31006C40.2797 7.85006 39.9297 8.61006 39.5097 9.66006L39.4697 9.69006Z" fill="white"/>
<path d="M54.7904 0.279985C55.2486 0.28771 55.7059 0.321096 56.1604 0.379985C56.6944 0.44814 57.232 0.48487 57.7704 0.489985C58.6004 0.489985 59.4404 0.489985 60.2604 0.379985C61.0804 0.269985 61.7904 0.279985 62.4004 0.279985C63.6945 0.220101 64.9686 0.616486 66.0004 1.39999C66.4589 1.77546 66.8227 2.25347 67.0624 2.79545C67.3021 3.33742 67.411 3.92816 67.3804 4.51999C67.4111 5.10598 67.2902 5.68999 67.0291 6.21554C66.7681 6.74109 66.3759 7.19039 65.8904 7.51999C65.6756 7.67243 65.4441 7.79992 65.2004 7.89999C64.9904 7.98999 64.8804 8.10999 64.8804 8.25999C64.8797 8.31273 64.8945 8.36451 64.923 8.40894C64.9514 8.45337 64.9922 8.4885 65.0404 8.50998C65.1663 8.57006 65.2967 8.62021 65.4304 8.65998C65.5904 8.65998 65.7704 8.75998 65.9704 8.82998C66.1623 8.90266 66.3438 9.00016 66.5104 9.11998C66.9825 9.4507 67.3558 9.90351 67.5904 10.43C67.8438 11.0324 68.0218 11.6639 68.1204 12.31C68.2004 12.79 68.2704 13.19 68.3304 13.49C68.338 13.6036 68.374 13.7136 68.4352 13.8097C68.4963 13.9058 68.5807 13.985 68.6804 14.04C69.0451 14.1546 69.3845 14.3379 69.6804 14.58C69.7534 14.6518 69.8113 14.7374 69.8508 14.8318C69.8903 14.9263 69.9105 15.0276 69.9104 15.13C69.9006 15.4049 69.8139 15.6715 69.6601 15.8995C69.5063 16.1276 69.2916 16.3079 69.0404 16.42C68.2238 16.8069 67.322 16.9789 66.4204 16.92C65.2629 17.0007 64.1173 16.6438 63.2104 15.92C62.453 15.1566 61.9771 14.1589 61.8604 13.09C61.7701 12.1703 61.4763 11.2821 61.0004 10.49C60.8691 10.2953 60.6939 10.1341 60.489 10.0195C60.284 9.90486 60.055 9.83995 59.8204 9.82998C59.6236 9.82976 59.4279 9.86012 59.2404 9.91998V12.08C59.2297 12.5408 59.2498 13.0018 59.3004 13.46C59.305 13.5537 59.3286 13.6455 59.3699 13.7297C59.4112 13.814 59.4692 13.8889 59.5404 13.95C59.8865 14.1084 60.1963 14.3365 60.4504 14.62C60.616 14.8237 60.7077 15.0775 60.7104 15.34C60.7104 15.92 60.3704 16.34 59.7104 16.55C58.6815 16.8295 57.6155 16.9476 56.5504 16.9C53.6104 16.9 52.1504 16.36 52.1504 15.27C52.1504 14.76 52.5204 14.34 53.2604 14.02C53.3641 13.9679 53.4483 13.8837 53.5004 13.78C53.6128 13.5339 53.6805 13.2698 53.7004 13C53.7732 12.4427 53.8166 11.8819 53.8304 11.32C53.8304 10.58 53.8804 9.57998 53.8804 8.31998V7.49999C53.8804 6.12999 53.8804 5.07999 53.8204 4.32999C53.7604 3.57999 53.6504 3.13999 53.4404 2.99999C53.1704 2.8175 52.8861 2.65698 52.5904 2.51999C52.4425 2.44475 52.3217 2.32543 52.2447 2.17851C52.1677 2.0316 52.1382 1.86438 52.1604 1.69999C52.1612 1.49595 52.2162 1.29579 52.3199 1.12006C52.4236 0.944326 52.5722 0.799342 52.7504 0.699985C53.3814 0.382298 54.0852 0.237386 54.7904 0.279985ZM59.1604 4.72999V5.72999C59.164 6.19498 59.1974 6.65926 59.2604 7.11999L59.5704 7.20999C59.6601 7.21981 59.7507 7.21981 59.8404 7.20999C60.0831 7.23526 60.3282 7.19474 60.5499 7.09269C60.7716 6.99065 60.9617 6.83082 61.1004 6.62999C61.3704 6.06311 61.4909 5.43658 61.4504 4.80999C61.4504 3.53999 60.9304 2.89999 59.9104 2.89999C59.7776 2.8807 59.6423 2.90802 59.5274 2.97731C59.4126 3.0466 59.3253 3.15356 59.2804 3.27999C59.1754 3.75573 59.135 4.24346 59.1604 4.72999Z" fill="white"/>
<path d="M86.9201 12.69H86.0001C85.3643 12.6643 84.728 12.7283 84.1101 12.88C83.9364 12.9153 83.7808 13.0111 83.671 13.1502C83.5612 13.2893 83.5042 13.4628 83.5101 13.64C83.5002 13.731 83.5155 13.8229 83.5543 13.9058C83.5931 13.9886 83.6539 14.0593 83.7301 14.11C83.8902 14.2087 84.0573 14.2956 84.2301 14.37C84.4144 14.4417 84.5839 14.5468 84.7301 14.68C84.8123 14.7675 84.8746 14.8719 84.9126 14.9858C84.9506 15.0998 84.9633 15.2206 84.9501 15.34C84.9494 15.5975 84.8651 15.8478 84.7101 16.0533C84.555 16.2589 84.3375 16.4086 84.0901 16.48C83.2425 16.7577 82.3508 16.8763 81.4601 16.83C80.6222 16.8838 79.7827 16.7541 79.0001 16.45C78.7789 16.3605 78.5894 16.2071 78.4558 16.0094C78.3222 15.8117 78.2506 15.5786 78.2501 15.34C78.233 15.1435 78.2711 14.9461 78.3601 14.77C78.4472 14.6501 78.5599 14.551 78.6901 14.48C78.8497 14.3916 79.0171 14.318 79.1901 14.26C79.4136 14.1717 79.6226 14.0504 79.8101 13.9C80.2097 13.4975 80.5109 13.0081 80.6901 12.47C81.0167 11.6967 81.4667 10.6767 82.0401 9.41C82.8934 7.48333 83.5934 5.92999 84.1401 4.74999C84.5848 3.95815 84.8765 3.08971 85.0001 2.19C85.0055 2.04251 84.9781 1.89567 84.9201 1.75999C84.8512 1.54375 84.824 1.31638 84.8401 1.09C84.8461 0.987705 84.8663 0.886746 84.9001 0.789995C84.952 0.648365 85.042 0.523797 85.1601 0.429995C85.3468 0.287005 85.5614 0.184801 85.7901 0.129995C86.1586 0.0330543 86.5391 -0.0107215 86.9201 -5.03019e-06C87.4402 -0.00601273 87.9595 0.0408953 88.4701 0.139995C88.9024 0.235472 89.3023 0.442309 89.6301 0.739995C90.0358 1.13536 90.3737 1.59484 90.6301 2.09999C91.0442 2.87008 91.418 3.66114 91.7501 4.46999L93.9201 9.66C94.1301 10.17 94.3401 10.66 94.5301 11.16C94.7201 11.66 94.9101 12.09 95.0801 12.48C95.2196 12.8245 95.3834 13.1586 95.5701 13.48C95.6645 13.6734 95.8188 13.8313 96.0101 13.93C96.3822 14.0471 96.7237 14.2452 97.0101 14.51C97.184 14.7614 97.2653 15.0653 97.2401 15.37C97.2343 15.5701 97.1642 15.763 97.0401 15.92C96.8384 16.1406 96.5837 16.3058 96.3001 16.4C95.844 16.5646 95.3711 16.6786 94.8901 16.74C94.1568 16.8284 93.4186 16.8685 92.6801 16.86C91.4795 16.9127 90.2775 16.7948 89.1101 16.51C88.3701 16.2567 88.0001 15.8667 88.0001 15.34C87.9825 15.1012 88.0577 14.8648 88.2101 14.68C88.3472 14.5322 88.5098 14.4102 88.6901 14.32C88.8551 14.2355 89.0153 14.142 89.1701 14.04C89.2363 13.9927 89.2894 13.9293 89.3244 13.8558C89.3593 13.7824 89.3751 13.7012 89.3701 13.62C89.3767 13 88.5601 12.69 86.9201 12.69ZM84.9201 9.68999H88.3401C88.0776 8.86228 87.743 8.0592 87.3401 7.28999C87.0301 6.76999 86.7801 6.49999 86.6101 6.49999C86.4401 6.49999 86.2301 6.76999 85.9701 7.30999C85.7101 7.84999 85.3801 8.60999 85.0001 9.66L84.9201 9.68999Z" fill="white"/>
<path d="M99.4398 9.09995C99.4398 7.71995 99.4398 6.56995 99.3598 5.65995C99.3527 4.94852 99.2066 4.24534 98.9298 3.58995C98.8436 3.40375 98.6899 3.25722 98.4998 3.17995C98.3198 3.10995 98.1698 3.03995 98.0498 2.97995C97.8564 2.89287 97.6917 2.75266 97.5748 2.57562C97.458 2.39859 97.3938 2.19202 97.3898 1.97995C97.3851 1.69112 97.483 1.40999 97.6661 1.18659C97.8492 0.963181 98.1057 0.811999 98.3898 0.759948C99.369 0.508169 100.38 0.40037 101.39 0.439948C101.74 0.422027 102.09 0.422027 102.44 0.439948C102.701 0.460123 102.956 0.531476 103.19 0.649948C103.632 0.949685 104.05 1.28407 104.44 1.64995C104.92 2.06995 105.44 2.57995 106.1 3.18995C107.37 4.41995 108.37 5.35995 109.1 6.00995C109.83 6.65995 110.34 7.00995 110.65 7.00995C110.96 7.00995 111.14 6.66995 111.14 6.00995C111.14 5.60995 111.14 5.28995 111.14 5.00995C111.14 4.72995 111.14 4.62995 111.14 4.55995C111.162 4.19104 111.115 3.82125 111 3.46995C110.851 3.19037 110.606 2.97385 110.31 2.85995C110.125 2.76823 109.947 2.66119 109.78 2.53995C109.62 2.42995 109.54 2.16995 109.54 1.76995C109.519 1.50475 109.592 1.24062 109.745 1.0233C109.898 0.80597 110.123 0.649135 110.38 0.579948C111.235 0.360698 112.118 0.266387 113 0.299948C113.813 0.26847 114.626 0.36292 115.41 0.579948C115.648 0.649951 115.855 0.799106 115.997 1.00276C116.139 1.2064 116.207 1.45236 116.19 1.69995C116.21 1.84503 116.198 1.99278 116.155 2.13275C116.112 2.27272 116.038 2.40148 115.94 2.50995C115.744 2.69768 115.521 2.85599 115.28 2.97995C114.999 3.10169 114.777 3.32755 114.66 3.60995C114.526 4.06465 114.429 4.52952 114.37 4.99995C114.29 5.72995 114.25 6.51995 114.24 7.35995C114.23 8.19995 114.24 9.10995 114.18 10.0499C114.18 11.4599 114.1 12.6099 114.07 13.4899C114.059 14.1109 113.996 14.7298 113.88 15.3399C113.68 16.2799 113.27 16.7599 112.65 16.7599C111.999 16.6376 111.404 16.312 110.95 15.8299C110.22 15.2099 109.26 14.3399 108.08 13.2399C106.7 11.9399 105.65 10.9099 104.94 10.1699C104.23 9.42995 103.73 9.04995 103.45 9.04995C103.304 9.04798 103.162 9.09834 103.05 9.19191C102.938 9.28547 102.864 9.41605 102.84 9.55995C102.73 10.0825 102.683 10.6163 102.7 11.1499C102.69 11.7298 102.737 12.3092 102.84 12.8799C102.887 13.1651 102.967 13.4437 103.08 13.7099C103.158 13.8268 103.269 13.9174 103.4 13.9699C103.544 14.0458 103.684 14.1293 103.82 14.2199C103.958 14.312 104.08 14.4269 104.18 14.5599C104.288 14.7185 104.341 14.9083 104.33 15.0999C104.33 16.1899 103.25 16.7299 101.1 16.7299C98.9498 16.7299 97.7398 16.2199 97.7398 15.1999C97.7302 15.007 97.7867 14.8165 97.8998 14.6599C97.9946 14.5237 98.1092 14.4024 98.2398 14.2999C98.3718 14.203 98.5086 14.1129 98.6498 14.0299C98.7807 13.9645 98.8939 13.8685 98.9798 13.7499C99.2347 13.259 99.3652 12.7131 99.3598 12.1599C99.4198 11.4199 99.4398 10.3899 99.4398 9.09995Z" fill="white"/>
<path d="M128.2 6.00004C128.033 6.22671 127.853 6.45671 127.66 6.69004C127.469 6.92947 127.32 7.20009 127.22 7.49004C127.104 7.81143 127.036 8.14855 127.02 8.49004C127.02 8.85004 127.02 9.27004 127.02 9.74004V10.27C127.02 12.27 127.19 13.34 127.53 13.61L127.9 13.82C128.039 13.8809 128.17 13.9581 128.29 14.05C128.407 14.1482 128.505 14.2668 128.58 14.4C128.664 14.5744 128.702 14.7671 128.69 14.96C128.692 15.2828 128.588 15.5973 128.392 15.8542C128.197 16.1111 127.922 16.296 127.61 16.38C126.536 16.7097 125.413 16.8518 124.29 16.8C121.33 16.8 119.85 16.2167 119.85 15.05C119.842 14.9077 119.865 14.7654 119.917 14.6326C119.969 14.4998 120.048 14.3796 120.15 14.28C120.375 14.095 120.616 13.9309 120.87 13.79C120.996 13.7287 121.114 13.6514 121.22 13.56C121.312 13.4815 121.379 13.3769 121.41 13.26C121.469 12.8657 121.506 12.4684 121.52 12.07C121.52 11.49 121.57 10.73 121.57 9.78004C121.57 9.39004 121.57 9.06004 121.57 8.78004C121.562 8.56026 121.528 8.34216 121.47 8.13004C121.401 7.87594 121.282 7.63805 121.12 7.43004C120.95 7.19004 120.76 6.94004 120.54 6.66004L118.38 3.77004C118.192 3.4656 117.906 3.2332 117.57 3.11004C117.347 3.07511 117.131 3.00419 116.93 2.90004C116.717 2.79586 116.539 2.63339 116.415 2.43157C116.291 2.22974 116.227 1.99686 116.23 1.76004C116.221 1.46224 116.315 1.17046 116.498 0.934975C116.68 0.699492 116.939 0.535068 117.23 0.470043C118.298 0.218153 119.394 0.110527 120.49 0.150043C121.626 0.109186 122.762 0.216762 123.87 0.470043C124.58 0.680043 124.94 1.08004 124.94 1.67004C124.955 1.8134 124.938 1.95821 124.892 2.09457C124.845 2.23092 124.769 2.35559 124.67 2.46004C124.595 2.51957 124.532 2.59359 124.486 2.67775C124.439 2.7619 124.41 2.85448 124.4 2.95004C124.416 3.08496 124.453 3.21654 124.51 3.34004C124.609 3.56479 124.729 3.77917 124.87 3.98004C125.19 4.47004 125.47 4.72004 125.68 4.72004C125.808 4.69674 125.923 4.62517 126 4.52004C126.142 4.37609 126.269 4.21868 126.38 4.05004C126.502 3.86889 126.609 3.67828 126.7 3.48004C126.771 3.31896 126.812 3.14601 126.82 2.97004C126.784 2.76189 126.674 2.57376 126.51 2.44004C126.405 2.32755 126.324 2.19536 126.271 2.05116C126.218 1.90696 126.194 1.75361 126.2 1.60004C126.2 0.650043 127.27 0.180043 129.41 0.180043C130.235 0.141775 131.06 0.243206 131.85 0.480043C132.083 0.544357 132.288 0.684396 132.433 0.87811C132.578 1.07182 132.654 1.30821 132.65 1.55004C132.67 1.80906 132.588 2.06557 132.422 2.26528C132.256 2.46498 132.018 2.59222 131.76 2.62004C131.594 2.67396 131.423 2.7141 131.25 2.74004C131.063 2.77058 130.887 2.84991 130.74 2.97004C130.505 3.1639 130.29 3.38174 130.1 3.62004L129.41 4.47004L128.2 6.00004Z" fill="white"/>
<path d="M134.76 5.52006C134.553 4.94006 134.363 4.47006 134.19 4.11006C134.035 3.75097 133.749 3.46472 133.39 3.31006L132.75 3.00006C132.56 2.89006 132.46 2.63006 132.46 2.23006C132.459 1.89837 132.56 1.57434 132.749 1.30227C132.939 1.0302 133.208 0.823369 133.52 0.710061C134.506 0.310346 135.568 0.132802 136.63 0.190061C137.588 0.142765 138.546 0.268092 139.46 0.560061C139.722 0.631677 139.953 0.786517 140.119 1.0012C140.285 1.21587 140.377 1.47873 140.38 1.75006C140.388 1.93954 140.35 2.12811 140.27 2.30006C140.212 2.42564 140.138 2.54327 140.05 2.65006L139.83 2.90006C139.798 2.92729 139.771 2.96085 139.752 2.99868C139.733 3.03652 139.722 3.07783 139.72 3.12006C139.727 3.24845 139.747 3.37578 139.78 3.50006C139.837 3.74159 139.91 3.97885 140 4.21006L141 7.00006C141.18 7.51006 141.36 7.77006 141.53 7.77006C141.7 7.77006 141.87 7.58006 141.98 7.21006L142.47 6.00006C142.558 5.80856 142.621 5.60706 142.66 5.40006C142.607 5.13581 142.526 4.87777 142.42 4.63006L142.17 3.84006C142.098 3.52201 141.942 3.22877 141.72 2.99006C141.6 2.89815 141.486 2.7979 141.38 2.69006C141.161 2.44972 141.043 2.1348 141.05 1.81006C141.051 1.52153 141.15 1.24197 141.332 1.0181C141.514 0.794223 141.768 0.639597 142.05 0.580061C143.025 0.305165 144.038 0.187024 145.05 0.230061C145.939 0.189208 146.829 0.300819 147.68 0.560061C147.931 0.632391 148.151 0.785109 148.306 0.994708C148.461 1.20431 148.544 1.45917 148.54 1.72006C148.546 1.89403 148.497 2.06545 148.4 2.21006C148.309 2.34337 148.208 2.47033 148.1 2.59006C147.99 2.71006 147.89 2.81006 147.8 2.92006C147.756 2.95911 147.721 3.00687 147.697 3.06025C147.673 3.11364 147.66 3.17148 147.66 3.23006C147.668 3.47151 147.722 3.70917 147.82 3.93006C147.93 4.19006 148.04 4.50006 148.17 4.86006L148.77 6.44006C148.95 6.89006 149.08 7.24006 149.19 7.44006C149.3 7.64006 149.42 7.80006 149.54 7.80006C149.66 7.80006 149.76 7.70006 149.86 7.50006C149.96 7.30006 150.08 7.01006 150.22 6.64006L151 4.73006C151.118 4.43043 151.215 4.12303 151.29 3.81006C151.334 3.65342 151.361 3.49248 151.37 3.33006C151.37 3.10006 151.31 2.95006 151.2 2.90006C151.058 2.82624 150.921 2.74271 150.79 2.65006C150.625 2.56482 150.488 2.43552 150.392 2.2766C150.297 2.11768 150.248 1.93538 150.25 1.75006C150.252 1.50808 150.324 1.2719 150.457 1.06974C150.59 0.867582 150.779 0.707996 151 0.610061C151.684 0.291376 152.436 0.147081 153.19 0.190061C153.974 0.149166 154.76 0.247345 155.51 0.480061C155.743 0.568578 155.94 0.73088 156.072 0.942161C156.204 1.15344 156.263 1.40208 156.24 1.65006C156.26 1.79979 156.248 1.95205 156.205 2.09683C156.162 2.24161 156.089 2.37563 155.99 2.49006C155.773 2.66657 155.535 2.81445 155.28 2.93006C154.889 3.08914 154.561 3.37416 154.35 3.74006C154.2 4.06006 154 4.52006 153.77 5.15006L151.49 11.1501C151.12 12.1501 150.8 12.9801 150.55 13.7101C150.334 14.3334 150.084 14.9444 149.8 15.5401C149.617 15.943 149.367 16.3117 149.06 16.6301C148.811 16.8646 148.482 16.9937 148.14 16.9901C147.892 17.0008 147.645 16.9454 147.426 16.8294C147.206 16.7134 147.021 16.5411 146.89 16.3301C146.506 15.676 146.204 14.9775 145.99 14.2501L144.5 9.94006C144.45 9.79006 144.41 9.67006 144.37 9.58006C144.35 9.53907 144.319 9.50484 144.28 9.4817C144.241 9.45856 144.195 9.44755 144.15 9.45006C144.04 9.45006 143.92 9.60006 143.8 9.90006L142.28 14.3401C142.066 15.0421 141.763 15.7141 141.38 16.3401C141.256 16.5382 141.084 16.7012 140.879 16.8133C140.674 16.9254 140.444 16.9828 140.21 16.9801C139.868 16.9494 139.542 16.8248 139.266 16.6201C138.991 16.4154 138.778 16.1385 138.65 15.8201C138.39 15.2642 138.172 14.6892 138 14.1001C137.71 13.2701 137.32 12.1901 136.82 10.8701L134.76 5.52006Z" fill="white"/>
<path d="M166.52 9.62005H165.38C164.944 9.57382 164.505 9.6722 164.13 9.90005C164.001 10.05 163.905 10.2254 163.848 10.4149C163.791 10.6044 163.775 10.8038 163.8 11.0001C163.786 11.6689 163.826 12.3377 163.92 13.0001C163.99 13.4701 164.09 13.7501 164.22 13.8301L164.93 14.3201C165.048 14.4129 165.141 14.5338 165.201 14.6718C165.26 14.8098 165.284 14.9605 165.27 15.1101C165.27 16.2701 163.803 16.8501 160.87 16.8501C159.811 16.894 158.753 16.7415 157.75 16.4001C157 16.1001 156.63 15.6701 156.63 15.1301C156.63 14.5901 156.75 14.3701 157 14.2501C157.25 14.1301 157.52 14.0001 157.82 13.8701C158.12 13.7401 158.35 12.0801 158.35 9.01005C158.35 7.22005 158.35 5.85005 158.28 4.90005C158.302 4.31709 158.206 3.73572 158 3.19005C157.908 3.11026 157.803 3.04608 157.69 3.00005C157.529 2.93164 157.373 2.85487 157.22 2.77005C157.057 2.6723 156.911 2.54714 156.79 2.40005C156.665 2.22173 156.602 2.00756 156.61 1.79005C156.61 0.790053 158.07 0.280053 160.98 0.280053C162.051 0.239569 163.122 0.354086 164.16 0.620053C164.88 0.840053 165.25 1.23005 165.25 1.79005C165.264 2.04661 165.209 2.30224 165.09 2.53005C164.967 2.72746 164.795 2.88944 164.59 3.00005C164.326 3.14729 164.106 3.36105 163.95 3.62005C163.815 3.98081 163.758 4.36566 163.78 4.75005V5.61005C163.756 5.77405 163.777 5.94146 163.84 6.09459C163.904 6.24773 164.007 6.38091 164.14 6.48005C164.693 6.68312 165.283 6.76166 165.87 6.71005C166.23 6.72951 166.59 6.72951 166.95 6.71005C167.161 6.69546 167.366 6.63397 167.55 6.53005C167.681 6.45872 167.781 6.34105 167.83 6.20005C167.883 6.02517 167.907 5.84269 167.9 5.66005V4.75005C167.92 4.33912 167.876 3.92761 167.77 3.53005C167.737 3.41053 167.676 3.30043 167.593 3.20844C167.509 3.11645 167.406 3.04511 167.29 3.00005C167.056 2.90573 166.85 2.75447 166.69 2.56005C166.513 2.34314 166.421 2.06967 166.43 1.79005C166.43 1.16005 166.81 0.790053 167.55 0.560053C168.686 0.335049 169.843 0.241101 171 0.280053C172.041 0.2391 173.082 0.350272 174.09 0.610053C174.367 0.660865 174.619 0.806196 174.801 1.02133C174.983 1.23646 175.085 1.5081 175.09 1.79005C175.104 1.98684 175.055 2.18296 174.95 2.35005C174.861 2.49088 174.746 2.61313 174.61 2.71005C174.476 2.81376 174.332 2.90419 174.18 2.98005C174.033 3.05503 173.893 3.14199 173.76 3.24005C173.58 3.39005 173.47 3.89005 173.43 4.73005C173.39 5.57005 173.37 6.78005 173.37 8.36005C173.37 9.52005 173.37 10.4601 173.37 11.1601C173.37 11.8601 173.42 12.4201 173.47 12.8201C173.489 13.1063 173.547 13.3888 173.64 13.6601C173.674 13.7378 173.724 13.8079 173.786 13.8663C173.848 13.9247 173.92 13.9701 174 14.0001C174.22 14.1101 174.46 14.2401 174.73 14.4001C174.872 14.4856 174.986 14.6105 175.059 14.7595C175.132 14.9085 175.16 15.0754 175.14 15.2401C175.14 15.8301 174.75 16.2401 173.98 16.4801C172.916 16.7547 171.818 16.8759 170.72 16.8401C167.91 16.8401 166.5 16.2601 166.5 15.1001C166.493 14.8526 166.552 14.6077 166.67 14.3901C166.793 14.1721 166.992 14.008 167.23 13.9301C167.36 13.8811 167.484 13.8174 167.6 13.7401C167.71 13.6302 167.786 13.4915 167.82 13.3401C167.882 13.0671 167.922 12.7895 167.94 12.5101C167.94 12.1601 167.94 11.6601 167.94 11.0201C167.988 10.6266 167.884 10.2298 167.65 9.91005C167.323 9.67462 166.92 9.57106 166.52 9.62005Z" fill="white"/>
<path d="M177.56 7.81995C177.56 6.88995 177.56 6.13995 177.56 5.54995C177.56 4.95995 177.56 4.54995 177.49 4.15995C177.47 3.89737 177.417 3.63848 177.33 3.38995C177.275 3.24008 177.193 3.10123 177.09 2.97995C176.986 2.86343 176.86 2.76832 176.72 2.69995C176.566 2.62183 176.419 2.53154 176.28 2.42995C176.14 2.33195 176.015 2.21403 175.91 2.07995C175.801 1.92142 175.749 1.73156 175.76 1.53995C175.76 0.709946 176.4 0.299946 177.67 0.299946C178.11 0.299946 178.81 0.299946 179.79 0.359946C180.77 0.419946 182.02 0.419946 183.54 0.419946C184.513 0.419946 185.333 0.399946 186 0.359946L187.6 0.239946C188.02 0.239946 188.36 0.169946 188.6 0.129946C188.848 0.0911381 189.099 0.0710813 189.35 0.0699463C189.567 0.0735181 189.779 0.142089 189.957 0.266837C190.135 0.391584 190.272 0.566802 190.35 0.769946C190.609 1.32269 190.733 1.92965 190.71 2.53995C190.745 3.24782 190.611 3.95391 190.32 4.59995C190.241 4.80503 190.105 4.98303 189.927 5.11253C189.75 5.24204 189.539 5.31753 189.32 5.32995C189.171 5.31635 189.028 5.26978 188.9 5.19366C188.772 5.11753 188.662 5.01377 188.58 4.88995C188.377 4.61249 188.157 4.34859 187.92 4.09995C187.618 3.73188 187.225 3.4492 186.78 3.27995C186.269 3.11706 185.735 3.03935 185.2 3.04995C184.483 2.97529 183.759 3.08904 183.1 3.37995C183.046 3.42821 183.002 3.48583 182.97 3.54995C182.919 3.66018 182.888 3.77878 182.88 3.89995C182.88 4.05995 182.86 4.28995 182.82 4.58995C182.82 4.87995 182.82 5.27995 182.82 5.76995C182.784 6.14982 182.836 6.53278 182.97 6.88995C183.07 7.04995 183.37 7.11995 183.87 7.11995C184.172 7.15177 184.475 7.06976 184.72 6.88995C184.794 6.82088 184.854 6.7374 184.895 6.64458C184.936 6.55175 184.958 6.45152 184.96 6.34995C184.941 5.96426 185.016 5.57978 185.18 5.22995C185.243 5.10248 185.342 4.99599 185.464 4.92327C185.587 4.85055 185.727 4.81467 185.87 4.81995C186.122 4.84471 186.362 4.94054 186.562 5.09631C186.762 5.25208 186.914 5.46139 187 5.69995C187.339 6.50518 187.49 7.3775 187.44 8.24995C187.482 9.20574 187.336 10.1605 187.01 11.0599C186.936 11.3366 186.776 11.5826 186.553 11.7623C186.33 11.9421 186.056 12.0463 185.77 12.0599C185.16 12.0599 184.86 11.6299 184.86 10.7799C184.853 10.5038 184.781 10.2331 184.65 9.98995C184.563 9.84353 184.435 9.72571 184.283 9.65106C184.13 9.57642 183.958 9.54821 183.79 9.56995C183.34 9.56995 183.07 9.66995 182.99 9.85995C182.875 10.249 182.831 10.6554 182.86 11.0599C182.86 11.5999 182.86 12.0599 182.86 12.3499C182.861 12.6007 182.878 12.8512 182.91 13.0999C182.912 13.2265 182.946 13.3505 183.01 13.4599C183.058 13.5182 183.111 13.5717 183.17 13.6199C183.373 13.7438 183.602 13.8191 183.84 13.8399C184.251 13.8868 184.665 13.9069 185.08 13.8999C185.821 13.959 186.562 13.7953 187.21 13.4299C187.608 13.1692 187.949 12.8288 188.21 12.4299C188.409 12.1089 188.586 11.7748 188.74 11.4299C188.788 11.2912 188.879 11.1712 188.999 11.0868C189.119 11.0025 189.263 10.9581 189.41 10.9599C189.642 10.9574 189.872 10.9981 190.09 11.0799C190.316 11.1624 190.51 11.317 190.64 11.5199C190.823 11.7944 190.945 12.1045 191 12.4299C191.099 12.9269 191.142 13.4334 191.13 13.9399C191.126 14.2756 191.093 14.6103 191.03 14.9399C190.962 15.2846 190.855 15.6202 190.71 15.9399C190.584 16.2282 190.404 16.4897 190.18 16.7099C189.971 16.9053 189.695 17.0128 189.41 17.0099C189.273 17.0199 189.136 17.0165 189 16.9999C188.79 16.9999 188.48 16.9099 188.05 16.8599L186.36 16.7199C185.66 16.7199 184.77 16.6499 183.68 16.6499C183.05 16.6499 182.52 16.6499 182.11 16.6499L180.97 16.7199L179.9 16.7899C179.53 16.7899 179.08 16.7899 178.54 16.7899C177.852 16.8118 177.169 16.6785 176.54 16.3999C175.99 16.1299 175.71 15.8299 175.71 15.4899C175.703 15.2974 175.741 15.1059 175.82 14.9299C175.887 14.7947 175.982 14.6753 176.1 14.5799C176.211 14.4854 176.332 14.4017 176.46 14.3299C176.59 14.2463 176.714 14.1527 176.83 14.0499C177.201 13.4826 177.396 12.818 177.39 12.1399C177.51 11.1999 177.56 9.74995 177.56 7.81995Z" fill="white"/>
<path d="M194.58 0.280059C195.038 0.287444 195.496 0.320832 195.95 0.380059C196.484 0.447874 197.022 0.484602 197.56 0.490059C198.4 0.490059 199.23 0.490059 200.05 0.380059C200.87 0.270059 201.59 0.280059 202.19 0.280059C203.497 0.214111 204.786 0.610637 205.83 1.40006C206.286 1.77758 206.647 2.25623 206.884 2.79789C207.122 3.33955 207.23 3.92926 207.2 4.52006C207.231 5.10605 207.11 5.69007 206.849 6.21562C206.588 6.74117 206.196 7.19047 205.71 7.52006C205.495 7.67251 205.264 7.79999 205.02 7.90006C204.81 7.99006 204.71 8.11006 204.71 8.26006C204.709 8.31172 204.722 8.36273 204.748 8.40705C204.775 8.45136 204.814 8.48711 204.86 8.51006C204.989 8.57161 205.123 8.6218 205.26 8.66006C205.44 8.70742 205.616 8.76417 205.79 8.83006C205.985 8.90267 206.17 9.00014 206.34 9.12006C206.809 9.45138 207.179 9.90428 207.41 10.4301C207.663 11.0325 207.841 11.664 207.94 12.3101C208.02 12.7901 208.09 13.1901 208.15 13.4901C208.21 13.7901 208.33 13.9701 208.5 14.0401C208.865 14.1531 209.205 14.3365 209.5 14.5801C209.574 14.6513 209.634 14.7367 209.675 14.8311C209.716 14.9255 209.738 15.0271 209.74 15.1301C209.731 15.4063 209.643 15.6742 209.487 15.9026C209.331 16.131 209.114 16.3104 208.86 16.4201C208.047 16.8061 207.148 16.9782 206.25 16.9201C205.089 17.0023 203.94 16.6454 203.03 15.9201C202.273 15.1567 201.797 14.159 201.68 13.0901C201.596 12.1642 201.305 11.269 200.83 10.4701C200.7 10.2761 200.527 10.1154 200.324 10.0007C200.12 9.88609 199.893 9.82078 199.66 9.81006C199.46 9.80912 199.261 9.83949 199.07 9.90006V12.0601C199.059 12.5209 199.079 12.9819 199.13 13.4401C199.134 13.5349 199.158 13.6278 199.202 13.7123C199.245 13.7969 199.306 13.8712 199.38 13.9301C199.722 14.0909 200.028 14.3187 200.28 14.6001C200.446 14.8037 200.537 15.0576 200.54 15.3201C200.537 15.6056 200.436 15.8815 200.254 16.1016C200.072 16.3218 199.82 16.473 199.54 16.5301C198.508 16.8095 197.438 16.9275 196.37 16.8801C193.437 16.8801 191.97 16.3367 191.97 15.2501C191.97 14.7401 192.34 14.3201 193.09 14.0001C193.188 13.9438 193.268 13.8604 193.32 13.7601C193.43 13.5238 193.498 13.2699 193.52 13.0101C193.57 12.6301 193.61 12.0701 193.65 11.3301C193.69 10.5901 193.65 9.59006 193.65 8.33006V7.50006C193.65 6.13006 193.65 5.08006 193.59 4.33006C193.53 3.58006 193.43 3.14006 193.21 2.98006C192.941 2.79549 192.657 2.63488 192.36 2.50006C192.212 2.42483 192.091 2.3055 192.014 2.15859C191.937 2.01168 191.908 1.84445 191.93 1.68006C191.933 1.47644 191.989 1.27709 192.092 1.10171C192.196 0.926325 192.343 0.780986 192.52 0.680059C193.16 0.368953 193.87 0.231036 194.58 0.280059ZM199 4.73006V5.73006C199.005 6.19468 199.035 6.6587 199.09 7.12006L199.4 7.21006C199.49 7.21989 199.58 7.21989 199.67 7.21006C199.913 7.23753 200.159 7.19801 200.381 7.09578C200.603 6.99354 200.793 6.83249 200.93 6.63006C201.2 6.06319 201.321 5.43665 201.28 4.81006C201.28 3.54006 200.77 2.90006 199.74 2.90006C199.607 2.88077 199.472 2.9081 199.357 2.97738C199.242 3.04667 199.155 3.15363 199.11 3.28006C199.016 3.75725 198.979 4.24407 199 4.73006Z" fill="white"/>
<path d="M211.9 7.81995C211.9 6.88995 211.9 6.13995 211.9 5.54995C211.9 4.95995 211.9 4.54995 211.83 4.15995C211.818 3.89726 211.768 3.63775 211.68 3.38995C211.621 3.23953 211.537 3.1007 211.43 2.97995C211.311 2.85372 211.163 2.75773 211 2.69995C210.847 2.61951 210.7 2.52933 210.56 2.42995C210.421 2.33433 210.299 2.21601 210.2 2.07995C210.092 1.92142 210.039 1.73156 210.05 1.53995C210.05 0.709946 210.68 0.299946 211.96 0.299946C212.39 0.299946 213.1 0.299946 214.07 0.359946C215.04 0.419946 216.3 0.419946 217.82 0.419946C218.82 0.419946 219.61 0.419946 220.26 0.359946L221.85 0.239946C222.27 0.239946 222.61 0.169946 222.85 0.129946C223.095 0.0912993 223.342 0.071242 223.59 0.0699463C223.807 0.0735181 224.019 0.142089 224.197 0.266837C224.375 0.391584 224.512 0.566802 224.59 0.769946C224.867 1.31839 225.007 1.92556 225 2.53995C225.033 3.24668 224.903 3.95154 224.62 4.59995C224.539 4.80365 224.402 4.98032 224.225 5.10952C224.048 5.23871 223.838 5.31513 223.62 5.32995C223.472 5.31931 223.329 5.27391 223.202 5.19744C223.075 5.12098 222.968 5.01562 222.89 4.88995C222.681 4.61461 222.457 4.35089 222.22 4.09995C221.922 3.7276 221.527 3.444 221.08 3.27995C220.569 3.11634 220.035 3.03861 219.5 3.04995C218.783 2.97668 218.059 3.09038 217.4 3.37995C217.35 3.42877 217.309 3.4864 217.28 3.54995C217.229 3.66111 217.196 3.77903 217.18 3.89995C217.18 4.05995 217.16 4.28995 217.12 4.58995C217.12 4.87995 217.12 5.27995 217.12 5.76995C217.084 6.14982 217.136 6.53278 217.27 6.88995C217.37 7.04995 217.67 7.11995 218.17 7.11995C218.472 7.15376 218.776 7.07155 219.02 6.88995C219.094 6.82088 219.154 6.7374 219.195 6.64458C219.236 6.55175 219.258 6.45152 219.26 6.34995C219.246 5.96464 219.321 5.58132 219.48 5.22995C219.543 5.10248 219.642 4.99599 219.764 4.92327C219.887 4.85055 220.027 4.81467 220.17 4.81995C220.441 4.82645 220.703 4.91368 220.924 5.07047C221.145 5.22725 221.314 5.44644 221.41 5.69995C221.744 6.50663 221.895 7.3778 221.85 8.24995C221.887 9.20547 221.741 10.1593 221.42 11.0599C221.342 11.3366 221.18 11.5821 220.956 11.7615C220.732 11.941 220.457 12.0454 220.17 12.0599C219.57 12.0599 219.26 11.6299 219.26 10.7799C219.236 10.5031 219.147 10.2358 219 9.99995C218.914 9.85262 218.787 9.73404 218.634 9.65926C218.48 9.58449 218.309 9.55688 218.14 9.57995C217.69 9.57995 217.42 9.67995 217.34 9.86995C217.225 10.259 217.181 10.6654 217.21 11.0699C217.21 11.6099 217.21 12.0699 217.21 12.3599C217.21 12.6499 217.21 12.9299 217.26 13.1099C217.267 13.2358 217.301 13.3586 217.36 13.4699C217.411 13.5283 217.468 13.5819 217.53 13.6299C217.729 13.7554 217.955 13.8309 218.19 13.8499C218.605 13.8967 219.022 13.9168 219.44 13.9099C220.18 13.966 220.921 13.8025 221.57 13.4399C221.969 13.1802 222.31 12.8395 222.57 12.4399C222.775 12.1211 222.956 11.7867 223.11 11.4399C223.155 11.3012 223.243 11.1805 223.362 11.0959C223.481 11.0113 223.624 10.9671 223.77 10.9699C224.005 10.9673 224.239 11.008 224.46 11.0899C224.683 11.1729 224.873 11.3277 225 11.5299C225.182 11.8058 225.308 12.1151 225.37 12.4399C225.459 12.9381 225.5 13.4439 225.49 13.9499C225.486 14.2856 225.453 14.6203 225.39 14.9499C225.322 15.2946 225.215 15.6302 225.07 15.9499C224.948 16.2403 224.767 16.5025 224.54 16.7199C224.332 16.9162 224.056 17.0238 223.77 17.0199C223.618 17.0127 223.467 16.9892 223.32 16.9499C223.11 16.9499 222.79 16.8599 222.32 16.8099L220.63 16.6699C219.94 16.6699 219.04 16.5999 217.96 16.5999C217.32 16.5999 216.8 16.5999 216.38 16.5999L215.24 16.6699L214.17 16.7399C213.81 16.7399 213.35 16.7399 212.81 16.7399C212.122 16.7618 211.439 16.6285 210.81 16.3499C210.26 16.0799 209.99 15.7799 209.99 15.4399C209.981 15.2481 210.015 15.0567 210.09 14.8799C210.157 14.7447 210.252 14.6253 210.37 14.5299C210.485 14.4399 210.605 14.3565 210.73 14.2799C210.862 14.1988 210.986 14.105 211.1 13.9999C211.471 13.4326 211.666 12.768 211.66 12.0899C211.86 11.1999 211.9 9.74995 211.9 7.81995Z" fill="white"/>
</g>
<defs>
<clipPath id="clip0_10_2706">
<rect width="225.52" height="17.04" fill="white"/>
</clipPath>
</defs>
</svg>
