<svg width="125" height="51" viewBox="0 0 125 51" fill="none" xmlns="http://www.w3.org/2000/svg">
<path d="M7.99219 31.3555V42.0905H21.9617V31.3555H7.99219ZM20.2112 37.6243V40.5635H18.3225V37.6243H20.2112ZM14.3263 33.4451V36.3728H12.4376V33.4451H14.3263ZM9.4663 33.4451H11.355V36.3728H9.4663V33.4451Z" fill="white"/>
<path d="M23.0672 30.3451H6.875V31.1603H23.0672V30.3451Z" fill="white"/>
<path d="M3.45508 19.0934V29.8514H17.39V19.0934H3.45508ZM6.79486 24.9144V27.8421H4.90616V24.9144H6.79486ZM4.90616 24.1107V21.1715H6.79486V24.1107H4.90616ZM7.57798 24.1107V21.1715H9.46669V24.1107H7.57798Z" fill="white"/>
<path d="M18.4951 18.0831H2.31445V18.8983H18.4951V18.0831Z" fill="white"/>
<path d="M10.0996 6.98059V17.7156H24.0691V6.98059H10.0996ZM11.5852 11.9864V9.05871H13.4739V11.9864H11.5852ZM14.3377 11.9864V9.05871H16.2264V11.9864H14.3377ZM17.0901 11.9864V9.05871H18.9788V11.9864H17.0901ZM22.5835 16.2345H20.7293V13.3068H22.6296L22.5835 16.2345Z" fill="white"/>
<path d="M25.1863 5.97034H8.99414V6.78551H25.1863V5.97034Z" fill="white"/>
<path d="M40.9413 24.0418V19.5182H30.9795V42.0905H36.8529V32.6184H40.4806V28.3244H36.8529V24.0418H40.9413Z" fill="white"/>
<path d="M53.8625 37.5783V19.5182H47.9775V42.0905H57.4441V37.5783H53.8625Z" fill="white"/>
<path d="M77.3216 24.0075C77.2074 23.0726 76.8457 22.185 76.2736 21.4356C75.685 20.6395 74.8882 20.0199 73.9703 19.6446C72.9322 19.2408 71.8253 19.0419 70.7111 19.059C69.5582 19.0321 68.4124 19.2472 67.3483 19.6905C66.4276 20.0611 65.6297 20.6816 65.045 21.4816C64.483 22.2549 64.1337 23.1613 64.0315 24.1108C63.9279 25.0637 63.8703 26.6596 63.8703 28.9329V32.7907C63.8419 34.4191 63.8996 36.0479 64.0431 37.6702C64.1711 38.5839 64.5319 39.4496 65.0911 40.1846C65.6775 40.9775 66.4756 41.5901 67.3944 41.9528C69.522 42.768 71.8772 42.768 74.0048 41.9528C74.9229 41.5722 75.7194 40.949 76.3081 40.1502C76.8638 39.3917 77.2093 38.5007 77.3101 37.5669C77.4469 35.9672 77.5007 34.3615 77.4713 32.7562V28.887C77.5059 27.259 77.456 25.6303 77.3216 24.0075ZM71.5633 35.6954C71.6039 36.5412 71.5459 37.3889 71.3906 38.2213C71.3432 38.3848 71.2404 38.5268 71.0997 38.6232C70.9589 38.7195 70.789 38.7641 70.619 38.7495C70.4604 38.7692 70.2998 38.7345 70.1638 38.651C70.0277 38.5675 69.9242 38.4402 69.8704 38.2902C69.7237 37.4877 69.6696 36.671 69.7092 35.8562V25.3278C69.6426 24.6183 69.725 23.9028 69.951 23.2267C70.0317 23.1144 70.1393 23.024 70.264 22.9639C70.3888 22.9037 70.5266 22.8757 70.665 22.8823C70.8158 22.8651 70.9681 22.8987 71.0975 22.9777C71.2269 23.0568 71.326 23.1768 71.3791 23.3186C71.5391 23.9757 71.6012 24.6527 71.5633 25.3278V35.6954Z" fill="white"/>
<path d="M98.5701 24.0074C98.4445 23.0478 98.066 22.1385 97.4733 21.3721C96.8806 20.6058 96.0947 20.0096 95.1958 19.6445C94.1537 19.2407 93.043 19.0418 91.9251 19.0589C90.776 19.0333 89.6343 19.2484 88.5738 19.6904C87.6773 20.0631 86.8988 20.6708 86.3209 21.4491C85.743 22.2274 85.3873 23.1471 85.2916 24.1107C85.1548 25.7143 85.101 27.3238 85.1304 28.9329V32.7906C85.0998 34.4188 85.1536 36.0475 85.2916 37.6702C85.4298 38.5871 85.8026 39.4531 86.3741 40.1846C86.9606 40.9774 87.7587 41.59 88.6774 41.9527C90.8051 42.7679 93.1603 42.7679 95.2879 41.9527C96.206 41.5722 97.0024 40.9489 97.5912 40.1501C98.1468 39.3916 98.4924 38.5007 98.5931 37.5668C98.6968 36.6254 98.7544 35.018 98.7544 32.7561V28.8869C98.7313 26.5562 98.6738 24.9374 98.5701 24.0074ZM92.8119 35.6954C92.854 36.5407 92.7999 37.3881 92.6506 38.2213C92.6033 38.3847 92.5004 38.5268 92.3597 38.6231C92.219 38.7194 92.0491 38.7641 91.879 38.7494C91.7208 38.767 91.5611 38.7314 91.4255 38.6482C91.2898 38.565 91.186 38.439 91.1305 38.2901C90.9876 37.4871 90.9373 36.6705 90.9807 35.8561V25.3277C90.9142 24.6182 90.9965 23.9027 91.2226 23.2267C91.3033 23.1143 91.4109 23.024 91.5356 22.9638C91.6603 22.9036 91.7982 22.8756 91.9366 22.8822C92.0874 22.865 92.2397 22.8986 92.3691 22.9777C92.4985 23.0567 92.5976 23.1767 92.6506 23.3185C92.8048 23.9765 92.863 24.6532 92.8234 25.3277L92.8119 35.6954Z" fill="white"/>
<path d="M118.781 31.4702C118.144 30.8694 117.342 30.4699 116.478 30.3221C116.959 30.3315 117.438 30.2403 117.882 30.0545C118.326 29.8686 118.727 29.5921 119.057 29.2429C119.606 28.1491 119.837 26.9244 119.725 25.7066C119.839 24.2447 119.515 22.782 118.793 21.5045C118.219 20.6486 117.329 20.0542 116.317 19.8512C114.449 19.5751 112.56 19.4675 110.673 19.5297H106.539V42.0905H112.424V31.918C113.23 31.918 113.725 32.0673 113.921 32.3543C114.185 33.0695 114.283 33.8348 114.209 34.5932V42.0905H119.679V36.1431C119.716 35.0273 119.666 33.9102 119.53 32.8021C119.376 32.3109 119.121 31.8572 118.781 31.4702ZM114.174 26.3725C114.174 27.3714 114.036 27.957 113.771 28.1407C113.345 28.3576 112.866 28.4492 112.389 28.4047V23.3874C112.882 23.3403 113.376 23.4574 113.794 23.7204C114.102 24.1231 114.239 24.6303 114.174 25.1326V26.3725Z" fill="white"/>
</svg>
