<svg width="220" height="20" viewBox="0 0 184 17" fill="none" xmlns="http://www.w3.org/2000/svg">
    <g clip-path="url(#clip0_10_2693)">
        <path
            d="M0 0H7.07L9.39 14.94H10.29L12.6 0H19.67V15.83H16.08V3.14L16.76 0.9H15.86L13.32 15.83H6.32L3.82 0.9H2.92L3.59 3.14V15.83H0V0Z"
            fill="white" />
        <path
            d="M21.9297 0H33.2297V3.14H25.5297V6.33H32.1097V9.48H25.5297V12.69H33.2297V15.83H21.9297V0Z"
            fill="white" />
        <path d="M48.7596 3.14H43.5896V15.83H39.9996V3.14H34.8096V0H48.7596V3.14Z" fill="white" />
        <path
            d="M58.6704 10.76H52.2504L50.8304 15.83H47.1904L51.7504 0H59.1704L63.7504 15.83H60.1104L58.6704 10.76ZM57.7904 7.61L55.9104 0.9H55.0004L53.1204 7.61H57.7904Z"
            fill="white" />
        <path
            d="M65.3301 0H70.9001C75.3001 0 77.4301 0.76 77.4301 3.89C77.4301 6.89 75.3201 6.89 73.6401 7.05V8C76.0401 8.09 78.6401 8.32 78.6401 11.68C78.6401 15.28 75.3401 15.88 71.2101 15.88H65.3301V0ZM71.3301 6C72.7901 6 73.8201 6 73.8201 4.56C73.8201 3.12 72.8201 3.12 71.3301 3.12H68.9201V6H71.3301ZM71.6001 12.67C73.7301 12.67 74.9901 12.67 74.9901 10.92C74.9901 9.17 73.7301 9.14 71.6001 9.14H68.9001V12.67H71.6001Z"
            fill="white" />
        <path
            d="M80.4097 14.17V0H83.9997V12.91L91.6997 12.69V15.83L82.3397 16.06C82.0814 16.0952 81.8185 16.071 81.5711 15.9891C81.3237 15.9072 81.0982 15.7698 80.912 15.5875C80.7258 15.4051 80.5837 15.1826 80.4967 14.9369C80.4096 14.6912 80.3798 14.4289 80.4097 14.17Z"
            fill="white" />
        <path
            d="M100.47 3.14V12.69H104.06V15.83H93.2803V12.69H96.8803V3.14H93.2803V0H104.06V3.14H100.47Z"
            fill="white" />
        <path
            d="M105.87 9.21L118.15 3.37V2.47L116.15 3.14H105.87V0H119.05V6.63L106.77 12.47V13.36L108.77 12.69H119.03V15.83H105.87V9.21Z"
            fill="white" />
        <path
            d="M120.86 9.21L133.14 3.37V2.47L131.14 3.14H120.86V0H134V6.63L121.72 12.47V13.36L123.72 12.69H134V15.83H120.86V9.21Z"
            fill="white" />
        <path
            d="M146.87 10.76H140.45L139 15.83H135.4L140 0H147.41L152 15.83H148.36L146.87 10.76ZM146 7.61L144.11 0.9H143.21L141.33 7.61H146Z"
            fill="white" />
        <path
            d="M153.53 0H159.66C163.44 0 166.72 0.88 166.72 4.42C166.72 7.03 164.61 7.75 162.72 7.97V8.87H165C165.258 8.83948 165.519 8.86789 165.765 8.95309C166.011 9.03829 166.234 9.17805 166.418 9.36189C166.601 9.54572 166.741 9.76883 166.826 10.0145C166.912 10.2601 166.94 10.5218 166.91 10.78V15.83H163.31V10.27H157.12V15.83H153.52L153.53 0ZM159.66 7.12C161.8 7.12 163.12 7.12 163.12 5.12C163.12 3.12 161.8 3.12 159.66 3.12H157.13V7.12H159.66Z"
            fill="white" />
        <path
            d="M183.64 7.91C183.64 14.73 179.23 15.83 175.01 15.83H169.17V0H175C179.23 0 183.64 1.1 183.64 7.91ZM180.04 7.91C180.04 3.37 177.82 3.14 175.04 3.14H172.8V12.69H175C177.82 12.69 180 12.47 180 7.91H180.04Z"
            fill="white" />
    </g>
    <defs>
        <clipPath id="clip0_10_2693">
            <rect width="183.64" height="16.06" fill="white" />
        </clipPath>
    </defs>
</svg>