<svg width="165" height="31" viewBox="0 0 165 31" fill="none" xmlns="http://www.w3.org/2000/svg">
<g clip-path="url(#clip0_10_2719)">
<path d="M22.4366 30.9842L21.8624 23.161C21.7029 21.0174 21.5593 18.8658 21.3838 16.7221C21.3378 16.1025 21.0724 15.5189 20.6346 15.0745C20.1967 14.6302 19.6146 14.3536 18.991 14.2937C17.5498 14.0672 16.1245 13.7501 14.7238 13.3445C16.0718 13.0518 17.4118 12.7433 18.7517 12.4585C20.6819 12.0551 21.3439 11.3195 21.5114 9.35774C21.5752 8.63001 21.639 7.90227 21.7188 6.93723C19.669 7.15871 17.6829 7.222 15.7687 7.60959C12.4881 8.19452 9.47993 9.79839 7.17851 12.1896C6.88716 12.5038 6.62051 12.8396 6.38091 13.1942C5.24034 14.9186 5.49557 16.4848 7.17851 17.6951C8.28718 18.4861 9.46763 19.198 10.6082 19.9495C10.9193 20.1551 11.2064 20.3845 11.5015 20.5981L11.3819 20.8591C10.4508 20.6213 9.53896 20.3146 8.65408 19.9416C6.52448 18.8579 4.45869 17.6713 2.36897 16.5244C1.77077 16.1921 1.18852 15.8283 0.574367 15.5198C-0.0397869 15.2113 -0.119547 14.8632 0.271278 14.2937C1.80355 12.1082 3.73844 10.2295 5.97413 8.75657C10.0253 5.88099 14.8559 4.28225 19.8365 4.16867C20.1874 4.16867 20.5463 4.16867 20.9053 4.21613H22.0299C22.1814 2.78438 22.333 1.37637 22.4765 -0.0395508H22.652C22.7876 1.10743 22.9471 2.2544 23.0508 3.40138C23.1146 4.02628 23.2343 4.36642 24.0159 4.49298C32.3748 5.83771 39.0587 10.0301 44.4505 16.4057C44.602 16.5956 44.7456 16.8012 44.8892 16.999C44.9741 17.0709 45.038 17.1641 45.0742 17.2689C45.1103 17.3737 45.1173 17.4862 45.0944 17.5946C45.0716 17.7031 45.0198 17.8034 44.9443 17.8851C44.8689 17.9668 44.7727 18.0268 44.6658 18.0589C42.7755 18.9923 40.8772 19.9178 38.9709 20.8196C38.8654 20.8656 38.7502 20.8861 38.6351 20.8792C38.52 20.8723 38.4082 20.8383 38.3089 20.78C38.2307 20.6791 38.1765 20.5619 38.1502 20.4373C38.124 20.3127 38.1264 20.1838 38.1574 20.0602C38.4605 19.1822 38.8673 18.3437 39.1544 17.4657C39.4154 16.8274 39.4593 16.122 39.2794 15.4567C39.0994 14.7915 38.7055 14.2026 38.1574 13.7795C34.8075 11.1217 31.2581 8.86731 27.1186 7.79153C25.986 7.49885 24.8215 7.34065 23.4895 7.09543C23.6889 8.40061 23.7766 9.53968 24.0478 10.6313C24.1724 11.0692 24.4214 11.4624 24.7651 11.7639C25.1087 12.0654 25.5325 12.2626 25.986 12.332C27.4536 12.6721 28.9212 13.0122 30.4047 13.5106L27.4057 14.0959C26.9989 14.175 26.6081 14.2304 26.1854 14.3095C25.5403 14.4183 24.9552 14.7508 24.5345 15.2478C24.1137 15.7447 23.8847 16.3738 23.8883 17.0227C23.5001 21.579 23.104 26.1405 22.6999 30.7073C22.6844 30.8067 22.6604 30.9047 22.6281 31L22.4366 30.9842ZM42.8792 18.1934L43.9879 17.4024C43.4614 16.8961 43.0068 16.1447 42.3927 15.9469C41.7785 15.7492 41.7626 16.6035 41.7067 17.086C41.619 17.6476 41.8822 18.0827 42.8792 18.1934Z" fill="white"/>
<path d="M61.5751 5.83777H68.7535C69.0247 5.83777 69.2879 5.83777 69.6468 5.87732C65.3158 11.715 65.1882 17.4974 69.6468 23.3905H49.1963C53.5831 17.616 53.5352 11.7941 49.1963 5.90896H56.9729C55.0659 7.82552 53.8973 10.3449 53.6708 13.0281C53.4794 15.6306 53.6708 18.2488 53.6708 20.8117C57.0287 18.4861 58.2092 15.2746 56.9809 11.4856H61.934C59.5412 15.8521 63.0347 18.1381 65.3557 21.3892C65.3158 15.678 66.1374 10.3387 61.5751 5.83777ZM59.5571 15.504H58.951C58.2252 16.9437 57.2361 18.2963 56.8692 19.7755C56.8323 20.2839 56.918 20.7936 57.1191 21.2627C57.3202 21.7317 57.631 22.1465 58.0257 22.4729C58.4689 22.6859 58.9589 22.7852 59.4508 22.7617C59.9427 22.7382 60.4208 22.5926 60.8413 22.3384C61.2 21.9697 61.4674 21.5235 61.6224 21.0348C61.7775 20.5461 61.8159 20.0283 61.7346 19.5224C61.3278 18.1144 60.3149 16.8408 59.5571 15.504Z" fill="white"/>
<path d="M128.063 15.4486C128.366 18.4782 129.228 21.1202 131.509 23.3588H123.78C128.271 17.616 128.024 11.8416 123.836 5.95642H140.498C138.105 8.84364 137.914 13.1389 133.423 14.8079C138.281 16.0419 139.158 20.5823 142.245 23.3825H134.396C134.952 22.4142 135.168 21.2909 135.012 20.1878C134.857 19.0846 134.337 18.0636 133.535 17.2838C132.872 16.5198 132.015 15.9464 131.052 15.6236C130.09 15.3008 129.058 15.2403 128.063 15.4486ZM127.848 14.2384C128.806 14.3155 129.769 14.3155 130.727 14.2384C133.503 13.7479 135.593 11.2167 135.353 8.75662C135.369 8.48605 135.325 8.21538 135.224 7.96342C135.124 7.71146 134.969 7.48425 134.771 7.29758C134.573 7.1109 134.336 6.96924 134.077 6.88243C133.818 6.79563 133.543 6.76576 133.272 6.7949C132.416 6.7321 131.563 6.94858 130.843 7.4113C130.123 7.87403 129.576 8.55761 129.284 9.3578C128.703 10.9534 128.224 12.5834 127.848 14.2384Z" fill="white"/>
<path d="M81.2515 5.90894H98.3521C96.398 9.42897 95.1617 13.3524 91.0062 15.2667C90.1571 15.6784 89.4126 16.2749 88.8284 17.0118C88.2442 17.7487 87.8354 18.6069 87.6323 19.5224C87.1538 21.4762 88.0551 22.5836 90.0252 22.5361C91.0986 22.5205 92.1396 22.1685 92.9992 21.5306C93.8587 20.8926 94.4928 20.0014 94.8108 18.9845C95.0226 18.1895 95.2891 17.4098 95.6084 16.651C95.7368 17.9639 96.129 19.2381 96.7618 20.3983C97.3947 21.5585 98.2555 22.5812 99.2933 23.4063H80.6055C82.8786 20.3371 84.6812 16.9674 88.2625 15.1006C89.5555 14.3817 90.7487 13.4989 91.8118 12.4744C93.3193 11.0743 93.6383 9.49225 92.9205 8.22662C91.9873 6.53384 90.3921 6.70786 88.8527 6.91353C88.0261 7.00947 87.2439 7.3362 86.5972 7.85573C85.9505 8.37525 85.4659 9.06621 85.1997 9.84821C84.8407 10.75 84.6254 11.7071 84.4021 12.4507L81.2515 5.90894Z" fill="white"/>
<path d="M106.273 5.91687H116.897C113.898 10.75 117.008 19.4116 122.001 23.3826H114.249C115.015 22.1456 115.509 20.7618 115.697 19.322C115.885 17.8823 115.764 16.4193 115.341 15.0294L111.505 18.6681L107.613 14.9582C106.975 18.2726 107.126 20.8829 108.849 23.4221H101.168C106.001 18.4624 108.753 12.9648 106.273 5.91687ZM115.333 14.2779C114.703 12.1501 114.249 10.1805 113.491 8.32948C113.298 7.96274 113.02 7.6463 112.681 7.4058C112.341 7.1653 111.949 7.0075 111.537 6.94519C111.121 6.98626 110.72 7.12542 110.369 7.35108C110.018 7.57675 109.727 7.88237 109.519 8.24246C108.721 10.1567 108.267 12.1976 107.629 14.357H114.057C114.4 14.3491 114.727 14.3175 115.333 14.2779Z" fill="white"/>
<path d="M145.291 14.4678C144.94 11.3433 144.159 8.39276 141.71 5.91687H162.934C160.446 8.38485 159.744 11.4065 158.946 14.4994C158.946 13.1072 158.946 11.7229 158.946 10.3308C158.946 8.20291 157.67 6.81072 155.867 6.82654C154.065 6.84236 152.844 8.21082 152.829 10.3545C152.829 12.1026 152.741 13.8587 152.892 15.591C153.038 18.5211 154.257 21.2976 156.322 23.3984H148.856C149.654 21.5948 150.946 19.7439 151.345 17.7189C151.755 15.0314 151.902 12.3107 151.784 9.5951C151.747 8.84802 151.421 8.14368 150.875 7.6282C150.328 7.11271 149.603 6.82565 148.848 6.82654C148.071 6.81615 147.318 7.09979 146.743 7.61987C146.168 8.13994 145.815 8.85747 145.754 9.62675C145.697 10.4428 145.683 11.2614 145.714 12.0789C145.714 12.8699 145.714 13.6609 145.714 14.4994L145.291 14.4678Z" fill="white"/>
<path d="M78.859 5.97217C74.4642 11.3986 74.5439 18.0747 78.859 23.4299H71.1382C73.3522 21.0831 74.5715 17.982 74.5439 14.7683C74.5882 13.1499 74.3079 11.5389 73.7191 10.0289C73.1303 8.51891 72.2449 7.13996 71.1143 5.97217H78.859Z" fill="white"/>
</g>
<defs>
<clipPath id="clip0_10_2719">
<rect width="165" height="31" fill="white"/>
</clipPath>
</defs>
</svg>
