<svg width="71" height="71" viewBox="0 0 71 71" fill="none" xmlns="http://www.w3.org/2000/svg">
<g clip-path="url(#clip0_408_5050)">
<path d="M35.5 71.0088C15.9243 71.0088 0 55.0823 0 35.5088C0 15.9352 15.9243 0 35.5 0C55.0758 0 71 15.9243 71 35.5C71 55.0758 55.0846 71.0088 35.5 71.0088ZM35.5 2.86496C17.4996 2.86496 2.85617 17.5105 2.85617 35.5088C2.85617 53.5071 17.4996 68.1526 35.5 68.1526C53.5005 68.1526 68.1416 53.5093 68.1416 35.511C68.1416 17.5127 53.4983 2.85617 35.5 2.85617V2.86496Z" fill="white"/>
<path d="M32.3566 55.4998C30.4919 55.4998 28.7037 54.7591 27.3852 53.4406C26.0667 52.1221 25.326 50.3339 25.326 48.4692V39.525H26.7541C28.1689 39.5233 29.5253 38.9605 30.5257 37.96C31.5261 36.9596 32.089 35.6032 32.0907 34.1884V18.7695C32.0907 18.6599 32.0472 18.5549 31.9697 18.4774C31.8923 18.3999 31.7872 18.3564 31.6777 18.3564H17.8911C17.7816 18.3564 17.6765 18.3999 17.5991 18.4774C17.5216 18.5549 17.4781 18.6599 17.4781 18.7695V34.1884C17.4799 35.6032 18.0427 36.9596 19.0431 37.96C20.0435 38.9605 21.3999 39.5233 22.8148 39.525H24.245V48.4802C24.245 50.3448 23.5043 52.1331 22.1858 53.4516C20.8673 54.7701 19.0791 55.5108 17.2144 55.5108C16.8357 55.5108 16.4724 55.3603 16.2046 55.0925C15.9368 54.8247 15.7863 54.4615 15.7863 54.0827C15.7863 53.704 15.9368 53.3407 16.2046 53.0729C16.4724 52.8051 16.8357 52.6546 17.2144 52.6546C18.3215 52.6546 19.3833 52.2148 20.1662 51.432C20.949 50.6491 21.3888 49.5873 21.3888 48.4802V42.2582C19.4938 41.9201 17.778 40.9266 16.5414 39.4514C15.3048 37.9762 14.6262 36.1133 14.6241 34.1884V18.7695C14.6247 17.9024 14.9693 17.071 15.5822 16.4576C16.1951 15.8443 17.0263 15.4992 17.8933 15.498H31.6799C32.5471 15.4992 33.3785 15.8442 33.9918 16.4575C34.6051 17.0708 34.9501 17.9022 34.9513 18.7695V34.1884C34.9487 36.1135 34.2696 37.9765 33.0326 39.4516C31.7957 40.9267 30.0796 41.9201 28.1844 42.2582V48.4802C28.1844 49.5873 28.6242 50.6491 29.407 51.432C30.1899 52.2148 31.2516 52.6546 32.3588 52.6546C32.7375 52.6546 33.1008 52.8051 33.3686 53.0729C33.6364 53.3407 33.7868 53.704 33.7868 54.0827C33.7868 54.4615 33.6364 54.8247 33.3686 55.0925C33.1008 55.3603 32.7375 55.5108 32.3588 55.5108L32.3566 55.4998Z" fill="white"/>
<path d="M48.1732 55.4997C47.7945 55.4997 47.4312 55.3493 47.1634 55.0814C46.8956 54.8136 46.7451 54.4504 46.7451 54.0716V39.5249H48.1732C49.588 39.5232 50.9444 38.9604 51.9448 37.9599C52.9453 36.9595 53.5081 35.6031 53.5099 34.1883V16.9282C53.4991 16.734 53.528 16.5397 53.5949 16.357C53.6618 16.1744 53.7652 16.0073 53.8989 15.866C54.0326 15.7247 54.1937 15.6122 54.3723 15.5353C54.551 15.4584 54.7434 15.4187 54.9379 15.4187C55.1324 15.4187 55.3249 15.4584 55.5035 15.5353C55.6822 15.6122 55.8433 15.7247 55.9769 15.866C56.1106 16.0073 56.2141 16.1744 56.281 16.357C56.3479 16.5397 56.3768 16.734 56.366 16.9282V34.1883C56.3635 36.1134 55.6843 37.9764 54.4474 39.4515C53.2104 40.9266 51.4943 41.92 49.5991 42.2581V54.0716C49.5991 54.45 49.4489 54.8129 49.1816 55.0807C48.9142 55.3484 48.5516 55.4991 48.1732 55.4997Z" fill="white"/>
<path d="M48.1732 36.4536C47.9855 36.4536 47.7996 36.4165 47.6262 36.3446C47.4528 36.2727 47.2952 36.1673 47.1626 36.0345C47.03 35.9017 46.9248 35.744 46.8532 35.5704C46.7816 35.3969 46.7448 35.211 46.7451 35.0233V16.9283C46.7451 16.5496 46.8956 16.1863 47.1634 15.9185C47.4312 15.6507 47.7945 15.5002 48.1732 15.5002C48.552 15.5002 48.9152 15.6507 49.183 15.9185C49.4508 16.1863 49.6013 16.5496 49.6013 16.9283V35.0233C49.6016 35.211 49.5648 35.3969 49.4932 35.5704C49.4216 35.744 49.3164 35.9017 49.1838 36.0345C49.0511 36.1673 48.8936 36.2727 48.7202 36.3446C48.5468 36.4165 48.3609 36.4536 48.1732 36.4536Z" fill="white"/>
<path d="M40.6783 36.4534C40.4906 36.4534 40.3047 36.4164 40.1313 36.3445C39.9579 36.2726 39.8004 36.1672 39.6678 36.0344C39.5351 35.9016 39.43 35.7439 39.3583 35.5703C39.2867 35.3968 39.25 35.2109 39.2502 35.0232V16.9282C39.2395 16.734 39.2684 16.5397 39.3353 16.357C39.4022 16.1744 39.5057 16.0073 39.6393 15.866C39.773 15.7247 39.9341 15.6122 40.1128 15.5353C40.2914 15.4584 40.4838 15.4187 40.6783 15.4187C40.8728 15.4187 41.0653 15.4584 41.244 15.5353C41.4226 15.6122 41.5837 15.7247 41.7174 15.866C41.851 16.0073 41.9544 16.1744 42.0213 16.357C42.0882 16.5397 42.1172 16.734 42.1064 16.9282V35.0232C42.1067 35.2109 42.07 35.3968 41.9983 35.5703C41.9267 35.7439 41.8216 35.9016 41.6889 36.0344C41.5563 36.1672 41.3987 36.2726 41.2253 36.3445C41.0519 36.4164 40.8661 36.4534 40.6783 36.4534Z" fill="white"/>
</g>
<defs>
<clipPath id="clip0_408_5050">
<rect width="71" height="71" fill="white"/>
</clipPath>
</defs>
</svg>
