<svg width="73" height="74" viewBox="0 0 73 74" fill="none" xmlns="http://www.w3.org/2000/svg">
<g clip-path="url(#clip0_408_5058)">
<path d="M36.4982 74C16.371 74 -0.00183105 57.4006 -0.00183105 37C-0.00183105 16.5994 16.371 0 36.4982 0C56.6254 0 72.9982 16.5971 72.9982 37C72.9982 57.4029 56.6254 74 36.4982 74ZM36.4982 2.97685C17.9907 2.97685 2.93479 18.239 2.93479 37C2.93479 55.7611 17.9907 71.0208 36.4982 71.0208C55.0057 71.0208 70.0593 55.7588 70.0593 37C70.0593 18.2413 55.0057 2.97685 36.4982 2.97685Z" fill="white"/>
<path d="M14.3788 40.0112L17.4939 43.1689C17.636 43.3144 17.8053 43.4298 17.9918 43.5084C18.1783 43.5871 18.3784 43.6273 18.5804 43.6269H23.2722L25.2375 39.2967C25.3464 39.059 25.5394 38.8714 25.7784 38.7713C26.0173 38.6712 26.2847 38.6659 26.5274 38.7563L26.9385 38.912C27.0558 38.9554 27.1835 38.9609 27.304 38.9276C27.4244 38.8943 27.5317 38.8238 27.6111 38.7261C27.6904 38.6283 27.7378 38.5081 27.7468 38.3818C27.7559 38.2556 27.726 38.1296 27.6614 38.0213L24.3723 32.553C24.1581 32.1967 23.8502 31.9079 23.4831 31.719C23.116 31.5301 22.7043 31.4486 22.2941 31.4836L16.6084 31.9668C16.4814 31.9781 16.3612 32.0298 16.2651 32.1145C16.1689 32.1993 16.1018 32.3128 16.0732 32.4387C16.0446 32.5645 16.056 32.6964 16.1059 32.8152C16.1558 32.9341 16.2415 33.0339 16.3508 33.1003C16.5642 33.23 16.724 33.4338 16.8004 33.6738C16.8768 33.9138 16.8648 34.1738 16.7665 34.4055L14.3788 40.0112Z" fill="white"/>
<path d="M27.3852 46.0794L18.5753 46.2328C18.0343 46.2343 17.4984 46.127 16.9986 45.9171C16.4988 45.7072 16.045 45.3989 15.6636 45.01L13.4905 42.8071C13.4828 43.4842 13.6628 44.1499 14.01 44.7284L19.9894 54.6733C20.31 55.206 20.7603 55.646 21.2972 55.9512C21.834 56.2564 22.4393 56.4164 23.0548 56.4159H27.5885C28.2813 56.4148 28.9665 56.2707 29.6024 55.9921C30.2383 55.7135 30.8116 55.3064 31.287 54.7957C31.7625 54.285 32.1303 53.6814 32.3679 53.0217C32.6055 52.3621 32.7079 51.6603 32.6689 50.9591C32.5964 49.6055 32.0016 48.3351 31.0131 47.4222C30.0246 46.5092 28.7215 46.0269 27.3852 46.0794Z" fill="white"/>
<path d="M40.406 20.7075L38.0273 24.8087L40.7155 28.7198C40.8629 28.9349 40.9249 29.1986 40.8889 29.458C40.8528 29.7174 40.7215 29.9535 40.5212 30.119L40.1824 30.4006C40.0849 30.4803 40.0144 30.589 39.9808 30.7113C39.9471 30.8336 39.9521 30.9635 39.9949 31.0829C40.0377 31.2022 40.1162 31.305 40.2195 31.3769C40.3228 31.4488 40.4457 31.4861 40.5709 31.4837L46.896 31.383C47.3076 31.3758 47.7092 31.2527 48.0559 31.0274C48.4025 30.8022 48.6806 30.4837 48.859 30.1075L51.328 24.8934C51.3838 24.777 51.4015 24.6456 51.3787 24.5183C51.3559 24.391 51.2936 24.2744 51.201 24.1853C51.1084 24.0963 50.9902 24.0394 50.8635 24.0231C50.7369 24.0067 50.6084 24.0316 50.4967 24.0943C50.2781 24.2148 50.0239 24.2511 49.7809 24.1964C49.538 24.1416 49.3229 23.9996 49.1752 23.7966L45.6174 18.8665L41.3502 19.9908C41.1537 20.0404 40.9689 20.1294 40.8068 20.2525C40.6446 20.3756 40.5083 20.5303 40.406 20.7075Z" fill="white"/>
<path d="M40.6954 17.4559L43.6704 16.675C43.0993 16.3246 42.4427 16.1437 41.7752 16.1529L30.2862 16.3407C29.6707 16.3507 29.0681 16.5211 28.5364 16.8356C28.0047 17.15 27.5617 17.5978 27.2502 18.1359L24.9596 22.0998C24.6092 22.7056 24.3843 23.3776 24.2988 24.0746C24.2132 24.7715 24.2688 25.4788 24.462 26.1533C24.6552 26.8278 24.9821 27.4552 25.4227 27.9973C25.8632 28.5393 26.4082 28.9847 27.0243 29.306C28.2127 29.9265 29.594 30.0489 30.8705 29.6467C32.147 29.2444 33.2165 28.3499 33.8485 27.1558L38.1812 19.3702C38.455 18.8988 38.8181 18.4869 39.2496 18.1584C39.6811 17.8298 40.1725 17.5911 40.6954 17.4559Z" fill="white"/>
<path d="M47.5287 46.7068L42.8278 46.59C42.5693 46.5834 42.3228 46.478 42.1376 46.295C41.9525 46.112 41.8424 45.8648 41.8294 45.603L41.8068 45.1588C41.8002 45.0322 41.7549 44.9107 41.6772 44.8113C41.5995 44.7119 41.4933 44.6395 41.3732 44.604C41.2531 44.5685 41.125 44.5718 41.0068 44.6133C40.8886 44.6549 40.7861 44.7327 40.7134 44.836L37.0585 50.0614C36.8204 50.4016 36.6806 50.8022 36.6547 51.2185C36.6287 51.6347 36.7177 52.0499 36.9117 52.4177L39.5998 57.5219C39.6591 57.6373 39.7532 57.7304 39.8685 57.7876C39.9838 57.8448 40.1141 57.8631 40.2403 57.8398C40.3666 57.8165 40.4822 57.7528 40.5701 57.6581C40.6581 57.5634 40.7139 57.4427 40.7293 57.3135C40.7626 57.0636 40.8842 56.8345 41.0716 56.6686C41.2589 56.5027 41.4993 56.4113 41.748 56.4113H47.7726L49.4036 52.2597C49.4784 52.0699 49.5153 51.867 49.5122 51.6626C49.5091 51.4582 49.4661 51.2564 49.3855 51.069L47.5287 46.7068Z" fill="white"/>
<path d="M59.2097 41.8432L57.4026 37.6253C57.1275 36.9808 56.7259 36.3999 56.222 35.918C55.7182 35.4362 55.1228 35.0634 54.4721 34.8226C53.8214 34.5817 53.1292 34.4778 52.4376 34.5172C51.746 34.5565 51.0696 34.7383 50.4496 35.0514C49.253 35.6561 48.3387 36.7132 47.9039 37.9948C47.4691 39.2765 47.5485 40.68 48.1251 41.9028L51.7394 50.041C51.9547 50.5437 52.0694 51.0847 52.0768 51.6327C52.0842 52.1807 51.9841 52.7247 51.7823 53.2331L50.6529 56.1298C51.2689 55.868 51.8008 55.4375 52.1889 54.8864L58.8348 45.3857C59.1924 44.8777 59.4149 44.2848 59.4805 43.6643C59.5462 43.0438 59.453 42.4166 59.2097 41.8432Z" fill="white"/>
</g>
<defs>
<clipPath id="clip0_408_5058">
<rect width="73" height="74" fill="white"/>
</clipPath>
</defs>
</svg>
