<svg width="71" height="71" viewBox="0 0 71 71" fill="none" xmlns="http://www.w3.org/2000/svg">
<g clip-path="url(#clip0_408_5020)">
<path d="M35.4999 71C15.9241 71 -0.00012207 55.0736 -0.00012207 35.5C-0.00012207 15.9264 15.9241 0 35.4999 0C55.0756 0 70.9999 15.9243 70.9999 35.5C70.9999 55.0758 55.0734 71 35.4999 71ZM35.4999 2.85617C17.4994 2.85617 2.85605 17.4995 2.85605 35.5C2.85605 53.5005 17.4994 68.1416 35.4999 68.1416C53.5004 68.1416 68.1415 53.4983 68.1415 35.5C68.1415 17.5017 53.4894 2.85617 35.4999 2.85617Z" fill="white"/>
<path d="M32.371 40.6565L25.7798 34.0917C25.5517 33.8633 25.2808 33.6821 24.9826 33.5585C24.6844 33.4349 24.3648 33.3712 24.042 33.3712C23.7191 33.3712 23.3995 33.4349 23.1013 33.5585C22.8031 33.6821 22.5322 33.8633 22.3041 34.0917C22.0757 34.3198 21.8945 34.5907 21.7709 34.8889C21.6473 35.1871 21.5837 35.5067 21.5837 35.8295C21.5837 36.1523 21.6473 36.472 21.7709 36.7702C21.8945 37.0684 22.0757 37.3393 22.3041 37.5674L25.9116 41.0981C26.006 41.1913 26.0673 41.3129 26.0859 41.4443C26.1046 41.5756 26.0796 41.7095 26.0149 41.8253C25.9689 41.9067 25.9047 41.9762 25.8273 42.0286C25.7499 42.0809 25.6614 42.1146 25.5688 42.1269C25.4762 42.1393 25.3819 42.13 25.2935 42.0997C25.2051 42.0695 25.1249 42.0192 25.0592 41.9527L20.4563 37.3016C20.1218 36.9688 19.8565 36.573 19.6759 36.137C19.4953 35.7011 19.4029 35.2337 19.404 34.7618V25.064C19.4125 24.4298 19.1807 23.816 18.7552 23.3457C18.3298 22.8754 17.7421 22.5834 17.1102 22.5286C16.7745 22.5063 16.4378 22.5532 16.121 22.6663C15.8041 22.7795 15.5139 22.9565 15.2682 23.1863C15.0225 23.4161 14.8266 23.694 14.6926 24.0026C14.5586 24.3112 14.4893 24.644 14.4892 24.9805V39.9205C14.4862 41.038 14.7049 42.1451 15.1326 43.1777C15.5602 44.2102 16.1884 45.1477 16.9806 45.936L19.0415 48.0364C21.4265 50.4703 22.7627 53.742 22.7633 57.1498V57.532C22.7633 58.3356 23.0825 59.1062 23.6507 59.6744C24.2188 60.2426 24.9895 60.5618 25.793 60.5618H31.9447C32.5964 60.5618 33.2214 60.3031 33.6824 59.8425C34.1434 59.3819 34.4027 58.7571 34.4032 58.1055V45.5295C34.4037 44.6232 34.2243 43.7258 33.8755 42.8893C33.5266 42.0529 33.0152 41.2939 32.371 40.6565Z" fill="white"/>
<path d="M38.6266 40.6565L45.2178 34.0917C45.4459 33.8633 45.7168 33.6821 46.015 33.5585C46.3132 33.4349 46.6328 33.3712 46.9556 33.3712C47.2785 33.3712 47.5981 33.4349 47.8963 33.5585C48.1945 33.6821 48.4654 33.8633 48.6935 34.0917C49.1537 34.553 49.4122 35.178 49.4122 35.8295C49.4122 36.4811 49.1537 37.1061 48.6935 37.5674L45.086 41.0981C44.9909 41.1909 44.9292 41.3126 44.9106 41.4441C44.8919 41.5757 44.9172 41.7097 44.9827 41.8253C45.0284 41.9066 45.0924 41.9762 45.1696 42.0285C45.2469 42.0809 45.3352 42.1145 45.4277 42.1269C45.5202 42.1393 45.6142 42.13 45.7025 42.0997C45.7907 42.0695 45.8708 42.0192 45.9362 41.9527L50.5435 37.3016C50.8776 36.9685 51.1426 36.5726 51.3232 36.1367C51.5038 35.7009 51.5964 35.2336 51.5958 34.7618V25.064C51.5873 24.4298 51.8191 23.816 52.2446 23.3457C52.67 22.8754 53.2577 22.5835 53.8896 22.5286C54.2252 22.5063 54.5618 22.5532 54.8785 22.6664C55.1952 22.7795 55.4853 22.9565 55.7309 23.1864C55.9764 23.4163 56.1721 23.6941 56.3059 24.0027C56.4396 24.3114 56.5086 24.6441 56.5084 24.9805V39.9205C56.5119 41.0381 56.2934 42.1454 55.8657 43.178C55.4381 44.2106 54.8096 45.148 54.017 45.936L51.9583 48.0364C49.5725 50.4698 48.2362 53.7419 48.2365 57.1498V57.532C48.2365 58.3356 47.9173 59.1062 47.3491 59.6744C46.781 60.2426 46.0103 60.5618 45.2068 60.5618H39.055C38.4034 60.5618 37.7784 60.3031 37.3174 59.8425C36.8564 59.3819 36.5971 58.7571 36.5966 58.1055V45.5295C36.5962 44.6234 36.7754 43.7262 37.1238 42.8898C37.4723 42.0534 37.9831 41.2943 38.6266 40.6565Z" fill="white"/>
<path d="M33.67 23.5305L25.9034 19.0463C25.7669 18.9677 25.6121 18.9264 25.4546 18.9265C25.297 18.9266 25.1423 18.9682 25.0059 19.047C24.8695 19.1257 24.7561 19.239 24.6773 19.3754C24.5984 19.5118 24.5568 19.6665 24.5567 19.824V28.7331C24.5557 28.8898 24.5958 29.044 24.6728 29.1804C24.7499 29.3169 24.8614 29.4308 24.9961 29.5108L32.7626 33.995C32.8992 34.0736 33.054 34.1149 33.2115 34.1148C33.3691 34.1147 33.5238 34.0731 33.6602 33.9944C33.7966 33.9156 33.91 33.8023 33.9888 33.6659C34.0677 33.5295 34.1093 33.3748 34.1094 33.2173V24.3126C34.1111 24.1552 34.0715 24 33.9943 23.8628C33.9172 23.7255 33.8054 23.6109 33.67 23.5305Z" fill="white"/>
<path d="M43.7235 15.0388L35.9481 10.5503C35.8119 10.4714 35.6574 10.4298 35.5 10.4298C35.3426 10.4298 35.188 10.4714 35.0518 10.5503L27.3225 15.0125C27.1861 15.0914 27.0729 15.2048 26.9942 15.3413C26.9155 15.4778 26.874 15.6326 26.874 15.7902C26.874 15.9478 26.9155 16.1026 26.9942 16.2391C27.0729 16.3756 27.1861 16.4891 27.3225 16.568L35.0979 21.0566C35.2341 21.1355 35.3887 21.177 35.5461 21.177C35.7035 21.177 35.8581 21.1355 35.9943 21.0566L43.7235 16.5944C43.8599 16.5154 43.9731 16.402 44.0519 16.2655C44.1306 16.129 44.1721 15.9742 44.1721 15.8166C44.1721 15.659 44.1306 15.5042 44.0519 15.3677C43.9731 15.2312 43.8599 15.1178 43.7235 15.0388Z" fill="white"/>
<path d="M46.4439 28.7331V19.8812C46.444 19.7236 46.4025 19.5687 46.3237 19.4322C46.2448 19.2958 46.1314 19.1825 45.9948 19.1038C45.8582 19.0252 45.7034 18.9839 45.5457 18.9843C45.3881 18.9846 45.2334 19.0264 45.0971 19.1056L37.425 23.5349C37.2881 23.6134 37.1744 23.7267 37.0953 23.8632C37.0162 23.9998 36.9746 24.1548 36.9746 24.3126V33.1646C36.9745 33.3222 37.016 33.477 37.0948 33.6135C37.1737 33.75 37.2871 33.8633 37.4237 33.9419C37.5603 34.0206 37.7151 34.0618 37.8727 34.0615C38.0304 34.0612 38.1851 34.0193 38.3214 33.9401L45.9957 29.5109C46.132 29.4319 46.2452 29.3185 46.3239 29.182C46.4026 29.0455 46.4439 28.8907 46.4439 28.7331Z" fill="white"/>
</g>
<defs>
<clipPath id="clip0_408_5020">
<rect width="71" height="71" fill="white"/>
</clipPath>
</defs>
</svg>
