<svg width="72" height="73" viewBox="0 0 72 73" fill="none" xmlns="http://www.w3.org/2000/svg">
<g clip-path="url(#clip0_408_5029)">
<path d="M36 73C16.1486 73 0 56.6249 0 36.5C0 16.3751 16.1486 0 36 0C55.8515 0 72 16.3728 72 36.5C72 56.6272 55.8604 73 36 73ZM36 2.93663C17.746 2.93663 2.8964 17.9947 2.8964 36.5C2.8964 55.0053 17.746 70.0611 36 70.0611C54.254 70.0611 69.1013 55.0053 69.1013 36.5C69.1013 17.9947 54.2518 2.93663 36 2.93663Z" fill="white"/>
<path d="M53.6611 42.5494L53.8839 42.8431H53.9418C53.9842 42.8431 53.9842 42.676 53.982 42.5946C53.445 34.4014 45.6002 27.9115 35.9998 27.9115C26.3994 27.9115 18.5835 34.3856 18.0176 42.5562C18.0332 42.7934 18.3451 42.5562 18.3451 42.5562C18.8531 41.9282 19.8446 41.5013 20.9875 41.5013C22.1305 41.5013 23.1777 41.9531 23.6723 42.6104C23.7089 42.6609 23.7567 42.7019 23.8119 42.7301C23.867 42.7584 23.928 42.7731 23.9898 42.7731C24.0516 42.7731 24.1125 42.7584 24.1676 42.7301C24.2228 42.7019 24.2706 42.6609 24.3072 42.6104C24.7996 41.9531 25.8178 41.5013 26.992 41.5013C28.1661 41.5013 29.1821 41.9531 29.6656 42.6104C29.7022 42.6609 29.75 42.7019 29.8052 42.7301C29.8603 42.7584 29.9213 42.7731 29.9831 42.7731C30.0449 42.7731 30.1058 42.7584 30.1609 42.7301C30.2161 42.7019 30.2639 42.6609 30.3006 42.6104C30.7929 41.9531 31.8111 41.5013 32.9742 41.5013C34.1372 41.5013 35.1665 41.9531 35.6589 42.6104C35.6956 42.6609 35.7434 42.7019 35.7985 42.7301C35.8537 42.7584 35.9146 42.7731 35.9764 42.7731C36.0381 42.7731 36.0991 42.7584 36.1542 42.7301C36.2094 42.7019 36.2572 42.6609 36.2939 42.6104C36.7862 41.9531 37.8045 41.5013 38.9786 41.5013C40.1528 41.5013 41.171 41.9531 41.6522 42.6104C41.6889 42.6609 41.7367 42.7019 41.7918 42.7301C41.847 42.7584 41.9079 42.7731 41.9697 42.7731C42.0315 42.7731 42.0924 42.7584 42.1476 42.7301C42.2027 42.7019 42.2506 42.6609 42.2872 42.6104C42.7818 41.9531 43.7977 41.5013 44.9719 41.5013C46.1461 41.5013 47.1643 41.9531 47.6566 42.6104C47.6933 42.6609 47.7411 42.7019 47.7963 42.7301C47.8514 42.7584 47.9124 42.7731 47.9741 42.7731C48.0359 42.7731 48.0969 42.7584 48.152 42.7301C48.2072 42.7019 48.255 42.6609 48.2917 42.6104C48.7863 41.9531 49.8022 41.5013 50.9652 41.5013C52.1283 41.5013 53.1553 41.9147 53.6611 42.5494Z" fill="white"/>
<path d="M34.4201 62.8913H34.3956C33.6878 62.8835 33.0115 62.5932 32.5135 62.0832C32.0155 61.5732 31.7359 60.8846 31.7354 60.167C31.7354 59.7776 31.8879 59.4041 32.1595 59.1287C32.4311 58.8534 32.7995 58.6987 33.1836 58.6987C33.5564 58.6975 33.9151 58.8433 34.1839 59.1053V27.3626C34.1845 26.973 34.3376 26.5995 34.6096 26.3242C34.8815 26.0489 35.2501 25.8943 35.6343 25.8943C36.0184 25.8943 36.3868 26.049 36.6584 26.3243C36.93 26.5997 37.0825 26.9732 37.0825 27.3626V60.167C37.0814 60.8849 36.8013 61.5734 36.303 62.0833C35.8046 62.5932 35.1281 62.8835 34.4201 62.8913Z" fill="white"/>
<path d="M32.5202 22.2211C32.2411 22.5042 31.9098 22.7287 31.5451 22.8819C31.1804 23.0351 30.7895 23.1139 30.3947 23.1139C30 23.1139 29.6091 23.0351 29.2444 22.8819C28.8797 22.7287 28.5483 22.5042 28.2692 22.2211C27.99 21.9381 27.7686 21.6022 27.6175 21.2324C27.4664 20.8626 27.3887 20.4663 27.3887 20.0661C27.3887 19.6658 27.4664 19.2695 27.6175 18.8998C27.7686 18.53 27.99 18.194 28.2692 17.9111C29.4434 16.7183 35.635 14.7485 35.635 14.7485C35.635 14.7485 33.6944 21.0307 32.5202 22.2211Z" fill="white"/>
<path d="M47.9933 19.2099C47.4293 19.7817 46.6644 20.1029 45.8667 20.1029C45.0691 20.1029 44.3042 19.7817 43.7401 19.2099C43.1762 18.6381 42.8594 17.8625 42.8594 17.0538C42.8594 16.2451 43.1762 15.4695 43.7401 14.8976C44.9143 13.7072 51.1059 11.7351 51.1059 11.7351C51.1059 11.7351 49.1764 18.0195 47.9933 19.2099Z" fill="white"/>
<path d="M57.119 29.1133C56.8399 29.3963 56.5086 29.6208 56.1439 29.774C55.7792 29.9272 55.3883 30.0061 54.9936 30.0061C54.5988 30.0061 54.2079 29.9272 53.8432 29.774C53.4785 29.6208 53.1472 29.3963 52.8681 29.1133C52.3041 28.5414 51.9873 27.7658 51.9873 26.9571C51.9873 26.1484 52.3041 25.3728 52.8681 24.8009C54.0422 23.6105 60.2338 21.6384 60.2338 21.6384C60.2338 21.6384 58.2932 27.9228 57.119 29.1133Z" fill="white"/>
</g>
<defs>
<clipPath id="clip0_408_5029">
<rect width="72" height="73" fill="white"/>
</clipPath>
</defs>
</svg>
