<svg width="75" height="75" viewBox="0 0 75 75" fill="none" xmlns="http://www.w3.org/2000/svg">
<g clip-path="url(#clip0_408_5041)">
<path d="M37.5 75C16.8214 75 0 58.1763 0 37.5C0 16.8237 16.8214 0 37.5 0C58.1786 0 75 16.8214 75 37.5C75 58.1786 58.1879 75 37.5 75ZM37.5 3.01708C18.4854 3.01708 3.01708 18.4854 3.01708 37.5C3.01708 56.5146 18.4854 71.9806 37.5 71.9806C56.5146 71.9806 71.9806 56.5123 71.9806 37.5C71.9806 18.4877 56.5123 3.01708 37.5 3.01708Z" fill="white"/>
<path d="M53.2485 54.1798H21.7479C21.2787 54.1798 20.8984 54.5601 20.8984 55.0292V58.4826C20.8984 58.9518 21.2787 59.3321 21.7479 59.3321H53.2485C53.7176 59.3321 54.0979 58.9518 54.0979 58.4826V55.0292C54.0979 54.5601 53.7176 54.1798 53.2485 54.1798Z" fill="white"/>
<path d="M36.6047 27.7153L30.3384 16.8492C30.1312 16.4896 29.8329 16.191 29.4736 15.9833C29.1142 15.7757 28.7065 15.6663 28.2915 15.6663C27.8764 15.6663 27.4687 15.7757 27.1094 15.9833C26.75 16.191 26.4518 16.4896 26.2445 16.8492L19.9783 27.7153C19.771 28.0747 19.662 28.4823 19.6621 28.8972C19.6622 29.3121 19.7714 29.7196 19.9788 30.0789C20.1862 30.4382 20.4845 30.7366 20.8437 30.9442C21.2029 31.1518 21.6103 31.2612 22.0252 31.2615H24.7545C25.0354 31.2615 25.3048 31.373 25.5037 31.5714C25.7025 31.7698 25.8145 32.039 25.8151 32.3198V49.0461C25.8151 49.3294 25.9275 49.6012 26.1277 49.8018C26.3278 50.0024 26.5994 50.1154 26.8828 50.116H29.7142C29.9975 50.1154 30.269 50.0024 30.4692 49.8018C30.6693 49.6012 30.7817 49.3294 30.7817 49.0461V32.3198C30.7823 32.039 30.8943 31.7698 31.0932 31.5714C31.292 31.373 31.5614 31.2615 31.8423 31.2615H34.5716C34.9853 31.2588 35.3911 31.1476 35.7483 30.939C36.1056 30.7304 36.4019 30.4318 36.6076 30.0729C36.8134 29.714 36.9214 29.3074 36.9209 28.8937C36.9204 28.48 36.8113 28.0737 36.6047 27.7153Z" fill="white"/>
<path d="M55.0245 27.7153L48.7583 16.8492C48.5511 16.4896 48.2527 16.191 47.8934 15.9833C47.534 15.7757 47.1263 15.6663 46.7113 15.6663C46.2963 15.6663 45.8885 15.7757 45.5292 15.9833C45.1698 16.191 44.8716 16.4896 44.6643 16.8492L38.3981 27.7153C38.1908 28.0747 38.0818 28.4823 38.0819 28.8972C38.082 29.3121 38.1912 29.7196 38.3986 30.0789C38.606 30.4382 38.9043 30.7366 39.2635 30.9442C39.6227 31.1518 40.0302 31.2612 40.4451 31.2615H43.1744C43.4553 31.2615 43.7246 31.373 43.9235 31.5714C44.1223 31.7698 44.2343 32.039 44.2349 32.3198V49.0461C44.2349 49.3294 44.3474 49.6012 44.5475 49.8018C44.7477 50.0024 45.0192 50.1154 45.3026 50.116H48.134C48.4175 50.1154 48.6893 50.0025 48.8898 49.8019C49.0903 49.6014 49.2033 49.3297 49.2039 49.0461V32.3198C49.2039 32.0392 49.3154 31.77 49.5138 31.5715C49.7123 31.3731 49.9815 31.2615 50.2622 31.2615H52.9915C53.4055 31.2595 53.8116 31.1487 54.1693 30.9403C54.5269 30.7319 54.8236 30.4332 55.0295 30.074C55.2354 29.7149 55.3433 29.308 55.3424 28.894C55.3415 28.4801 55.2319 28.0736 55.0245 27.7153Z" fill="white"/>
</g>
<defs>
<clipPath id="clip0_408_5041">
<rect width="75" height="75" fill="white"/>
</clipPath>
</defs>
</svg>
