<svg width="1920" height="467" viewBox="0 0 1920 467" fill="none" xmlns="http://www.w3.org/2000/svg">
<mask id="mask0_523_853" style="mask-type:alpha" maskUnits="userSpaceOnUse" x="0" y="49" width="1920" height="372">
<rect y="49" width="1920" height="372" fill="#D9D9D9"/>
</mask>
<g mask="url(#mask0_523_853)">
</g>
<g clip-path="url(#clip0_523_853)">
<mask id="mask1_523_853" style="mask-type:luminance" maskUnits="userSpaceOnUse" x="-188" y="0" width="2269" height="467">
<path d="M2080.17 186.992L-164.347 0L-187.655 279.777L2056.86 466.769L2080.17 186.992Z" fill="white"/>
</mask>
<g mask="url(#mask1_523_853)">
<path d="M977.459 202.536L975.973 221.053L950.459 218.928L952.002 200.415L977.452 202.535" fill="#775A97"/>
<path d="M972.432 240.066L956.923 238.63L950.422 237.583L950.68 230.561L951.14 222.102L973.302 223.948L972.432 240.066Z" fill="#775A97"/>
<path d="M1099.97 276.411L946.734 263.645L948.276 245.133L1092.41 258.443L1099.97 276.411Z" fill="#775A97"/>
<path d="M991.453 202.749L989.93 221.845L964.55 219.731L966.141 200.64L991.453 202.749Z" fill="#785C97"/>
<path d="M965.43 222.982L988.018 224.881L987.092 241.545L971.299 240.11L964.669 239.07L964.95 231.775L965.43 222.982Z" fill="#785C97"/>
<path d="M1113.06 278.547L960.708 265.854L962.298 246.76L1105.69 260.002L1113.06 278.547Z" fill="#785C97"/>
<path d="M1005.45 202.958L1003.88 222.637L978.638 220.534L980.276 200.861L1005.45 202.958Z" fill="#795E98"/>
<path d="M979.71 223.864L1002.72 225.813L1001.75 243.024L985.664 241.589L978.905 240.56L979.206 232.987L979.71 223.864Z" fill="#795E98"/>
<path d="M1126.15 280.683L974.678 268.063L976.317 248.387L1118.97 261.563L1126.15 280.683Z" fill="#795E98"/>
<path d="M1019.45 203.171L1017.84 223.433L992.721 221.34L994.408 201.085L1019.45 203.171Z" fill="#7B5F99"/>
<path d="M993.99 224.743L1017.42 226.745L1016.41 244.504L1000.03 243.068L993.145 242.043L993.465 234.2L993.99 224.743Z" fill="#7B5F99"/>
<path d="M1139.25 282.818L988.644 270.272L990.332 250.017L1132.25 263.122L1139.25 282.818Z" fill="#7B5F99"/>
<path d="M1033.46 203.382L1031.81 224.226L1006.83 222.144L1008.56 201.307L1033.46 203.382Z" fill="#7C619A"/>
<path d="M1008.29 225.624L1032.15 227.682L1031.1 245.985L1014.41 244.553L1007.4 243.534L1007.74 235.41L1008.29 225.624Z" fill="#7C619A"/>
<path d="M1152.36 284.956L1002.63 272.482L1004.37 251.645L1145.55 264.682L1152.36 284.956Z" fill="#7C619A"/>
<path d="M1047.46 203.595L1045.77 225.022L1020.92 222.951L1022.7 201.532L1047.46 203.595Z" fill="#7E639B"/>
<path d="M1022.58 226.507L1046.86 228.614L1045.76 247.464L1028.78 246.032L1021.65 245.021L1022 236.623L1022.58 226.507Z" fill="#7E639B"/>
<path d="M1165.46 287.092L1016.61 274.691L1018.39 253.272L1158.84 266.244L1165.46 287.092Z" fill="#7E639B"/>
<path d="M1061.47 203.805L1059.73 225.814L1035.01 223.754L1036.84 201.753L1061.47 203.805Z" fill="#7F659C"/>
<path d="M1036.86 227.386L1061.56 229.546L1060.43 248.944L1043.15 247.511L1035.89 246.507L1036.27 237.836L1036.86 227.386Z" fill="#7F659C"/>
<path d="M1178.56 289.225L1030.58 276.897L1032.41 254.899L1172.12 267.802L1178.56 289.225Z" fill="#7F659C"/>
<path d="M1075.46 204.018L1073.69 226.607L1049.1 224.557L1050.98 201.978L1075.46 204.018Z" fill="#80679D"/>
<path d="M1051.14 228.265L1076.27 230.479L1075.1 250.423L1057.52 248.991L1050.13 247.994L1050.53 239.049L1051.14 228.265Z" fill="#80679D"/>
<path d="M1191.66 291.361L1044.55 279.106L1046.43 256.527L1185.4 269.361L1191.66 291.361Z" fill="#80679D"/>
<path d="M1089.46 204.227L1087.65 227.402L1063.19 225.364L1065.12 202.199L1089.46 204.227Z" fill="#82699E"/>
<path d="M1065.43 229.149L1090.98 231.415L1089.76 251.903L1071.89 250.474L1064.37 249.481L1064.79 240.259L1065.43 229.149Z" fill="#82699E"/>
<path d="M1204.75 293.498L1058.53 281.315L1060.46 258.154L1198.69 270.923L1204.75 293.498Z" fill="#82699E"/>
<path d="M1103.47 204.441L1101.61 228.195L1077.28 226.167L1079.26 202.424L1103.47 204.441Z" fill="#836A9F"/>
<path d="M1079.71 230.028L1105.69 232.347L1104.43 253.382L1086.26 251.954L1078.62 250.967L1079.06 241.472L1079.71 230.028Z" fill="#836A9F"/>
<path d="M1217.85 295.634L1072.5 283.524L1074.48 259.781L1211.98 272.482L1217.85 295.634Z" fill="#836A9F"/>
<path d="M1117.47 204.65L1115.58 228.987L1091.37 226.971L1093.4 202.645L1117.47 204.65Z" fill="#856CA0"/>
<path d="M1094 230.911L1120.4 233.279L1119.09 254.862L1100.63 253.433L1092.86 252.454L1093.32 242.685L1094 230.911Z" fill="#856CA0"/>
<path d="M1230.95 297.77L1086.47 285.734L1088.5 261.408L1225.26 274.044L1230.95 297.77Z" fill="#856CA0"/>
<path d="M1131.47 204.863L1129.54 229.783L1105.46 227.777L1107.54 202.87L1131.47 204.863Z" fill="#866EA1"/>
<path d="M1108.28 231.79L1135.1 234.212L1133.76 256.342L1115 254.913L1107.1 253.941L1107.58 243.898L1108.28 231.79Z" fill="#866EA1"/>
<path d="M1244.05 299.906L1100.45 287.943L1102.52 263.035L1238.54 275.603L1244.05 299.906Z" fill="#866EA1"/>
<path d="M1145.47 205.076L1143.49 230.575L1119.55 228.581L1121.67 203.094L1145.47 205.076Z" fill="#8870A1"/>
<path d="M1122.57 232.67L1149.81 235.144L1148.43 257.821L1129.37 256.392L1121.34 255.427L1121.84 245.107L1122.57 232.67Z" fill="#8870A1"/>
<path d="M1257.15 302.043L1114.42 290.152L1116.55 264.662L1251.83 277.161L1257.15 302.043Z" fill="#8870A1"/>
<path d="M1159.47 205.286L1157.45 231.367L1133.64 229.384L1135.81 203.315L1159.47 205.286Z" fill="#8971A2"/>
<path d="M1136.85 233.552L1164.52 236.08L1163.09 259.301L1143.74 257.875L1135.59 256.914L1136.11 246.32L1136.85 233.552Z" fill="#8971A2"/>
<path d="M1270.25 304.179L1128.4 292.361L1130.57 266.289L1265.11 278.724L1270.25 304.179Z" fill="#8971A2"/>
<path d="M1173.47 205.499L1171.41 232.163L1147.73 230.19L1149.95 203.54L1173.47 205.499Z" fill="#8A73A3"/>
<path d="M1151.14 234.432L1179.23 237.012L1177.76 260.78L1158.11 259.355L1149.83 258.401L1150.37 247.533L1151.14 234.432Z" fill="#8A73A3"/>
<path d="M1283.34 306.315L1142.37 294.57L1144.59 267.92L1278.4 280.282L1283.34 306.315Z" fill="#8A73A3"/>
<path d="M1187.47 205.709L1185.37 232.956L1161.82 230.994L1164.09 203.761L1187.47 205.709Z" fill="#8C75A4"/>
<path d="M1165.42 235.311L1193.94 237.944L1192.42 262.26L1172.48 260.835L1164.07 259.887L1164.63 248.742L1165.42 235.311Z" fill="#8C75A4"/>
<path d="M1296.44 308.451L1156.34 296.78L1158.61 269.547L1291.68 281.841L1296.44 308.451Z" fill="#8C75A4"/>
<path d="M1201.47 205.922L1199.33 233.748L1175.91 231.797L1178.23 203.986L1201.47 205.922Z" fill="#8D77A5"/>
<path d="M1179.71 236.194L1208.64 238.877L1207.09 263.739L1186.84 262.314L1178.31 261.374L1178.89 249.955L1179.71 236.194Z" fill="#8D77A5"/>
<path d="M1309.54 310.584L1170.31 298.985L1172.63 271.174L1304.97 283.403L1309.54 310.584Z" fill="#8D77A5"/>
<path d="M1215.47 206.132L1213.29 234.544L1190 232.603L1192.37 204.207L1215.47 206.132Z" fill="#8E79A6"/>
<path d="M1193.99 237.074L1223.35 239.813L1221.76 265.219L1201.22 263.797L1192.56 262.861L1193.16 251.168L1193.99 237.074Z" fill="#8E79A6"/>
<path d="M1322.64 312.721L1184.29 301.194L1186.65 272.801L1318.25 284.962L1322.64 312.721Z" fill="#8E79A6"/>
<path d="M1229.47 206.345L1227.25 235.336L1204.09 233.407L1206.51 204.432L1229.47 206.345Z" fill="#8F7AA7"/>
<path d="M1208.28 237.956L1238.06 240.745L1236.42 266.699L1215.58 265.277L1206.8 264.347L1207.42 252.381L1208.28 237.956Z" fill="#8F7AA7"/>
<path d="M1335.74 314.857L1198.26 303.403L1200.68 274.429L1331.54 286.521L1335.74 314.857Z" fill="#8F7AA7"/>
<path d="M1243.47 206.555L1241.21 236.128L1218.18 234.21L1220.65 204.653L1243.47 206.555Z" fill="#917CA8"/>
<path d="M1222.56 238.836L1252.77 241.677L1251.09 268.182L1229.95 266.756L1221.04 265.834L1221.68 253.591L1222.56 238.836Z" fill="#917CA8"/>
<path d="M1348.84 316.993L1212.23 305.613L1214.7 276.056L1344.82 288.082L1348.84 316.993Z" fill="#917CA8"/>
<path d="M1257.47 206.768L1255.17 236.924L1232.27 235.016L1234.78 204.878L1257.47 206.768Z" fill="#927EA9"/>
<path d="M1236.85 239.715L1267.48 242.61L1265.76 269.658L1244.32 268.236L1235.28 267.32L1235.95 254.804L1236.85 239.715Z" fill="#927EA9"/>
<path d="M1361.94 319.129L1226.21 307.822L1228.72 277.683L1358.1 289.641L1361.94 319.129Z" fill="#927EA9"/>
<path d="M1271.47 206.981L1269.13 237.717L1246.36 235.82L1248.92 205.102L1271.47 206.981Z" fill="#9380AA"/>
<path d="M1251.13 240.598L1282.19 243.542L1280.42 271.137L1258.69 269.719L1249.53 268.807L1250.21 256.017L1251.13 240.598Z" fill="#9380AA"/>
<path d="M1375.03 321.265L1240.18 310.031L1242.74 279.31L1371.39 291.203L1375.03 321.265Z" fill="#9380AA"/>
<path d="M1285.47 207.19L1283.09 238.509L1260.46 236.623L1263.06 205.323L1285.47 207.19Z" fill="#9481AB"/>
<path d="M1265.42 241.478L1296.89 244.478L1295.08 272.62L1273.06 271.199L1263.77 270.294L1264.47 257.23L1265.42 241.478Z" fill="#9481AB"/>
<path d="M1388.13 323.402L1254.16 312.24L1256.76 280.937L1384.68 292.762L1388.13 323.402Z" fill="#9481AB"/>
<path d="M1299.47 207.404L1297.05 239.305L1274.55 237.43L1277.2 205.548L1299.47 207.404Z" fill="#9683AB"/>
<path d="M1279.7 242.357L1311.6 245.41L1309.75 274.1L1287.43 272.678L1278.01 271.78L1278.73 258.439L1279.7 242.357Z" fill="#9683AB"/>
<path d="M1401.23 325.538L1268.13 314.449L1270.79 282.564L1397.96 294.321L1401.23 325.538Z" fill="#9683AB"/>
<path d="M1313.48 207.613L1311.01 240.097L1288.64 238.233L1291.34 205.769L1313.48 207.613Z" fill="#9785AC"/>
<path d="M1293.99 243.24L1326.31 246.342L1324.42 275.58L1301.8 274.158L1292.25 273.271L1293 259.652L1293.99 243.24Z" fill="#9785AC"/>
<path d="M1414.33 327.674L1282.1 316.658L1284.81 284.191L1411.24 295.883L1414.33 327.674Z" fill="#9785AC"/>
<path d="M1327.48 207.827L1324.97 240.893L1302.73 239.04L1305.48 205.994L1327.48 207.827Z" fill="#9887AD"/>
<path d="M1308.27 244.12L1341.02 247.275L1339.08 277.059L1316.17 275.641L1306.5 274.754L1307.26 260.865L1308.27 244.12Z" fill="#9887AD"/>
<path d="M1427.43 329.807L1296.08 318.864L1298.83 285.822L1424.53 297.442L1427.43 329.807Z" fill="#9887AD"/>
<path d="M1341.48 208.036L1338.93 241.685L1316.82 239.843L1319.62 206.215L1341.48 208.036Z" fill="#9988AE"/>
<path d="M1322.56 244.999L1355.73 248.207L1353.75 278.539L1330.54 277.12L1320.74 276.24L1321.52 262.074L1322.56 244.999Z" fill="#9988AE"/>
<path d="M1440.53 331.943L1310.05 321.073L1312.85 287.449L1437.81 299L1440.53 331.943Z" fill="#9988AE"/>
<path d="M1355.48 208.249L1352.89 242.478L1330.91 240.646L1333.76 206.44L1355.48 208.249Z" fill="#9A8AAF"/>
<path d="M1336.84 245.882L1370.44 249.143L1368.42 280.018L1344.91 278.6L1334.98 277.73L1335.79 263.287L1336.84 245.882Z" fill="#9A8AAF"/>
<path d="M1453.62 334.079L1324.02 323.282L1326.87 289.076L1451.1 300.562L1453.62 334.079Z" fill="#9A8AAF"/>
<path d="M1369.48 208.459L1366.85 243.273L1345 241.453L1347.9 206.661L1369.48 208.459Z" fill="#9C8CB0"/>
<path d="M1351.13 246.761L1385.15 250.075L1383.09 281.498L1359.28 280.079L1349.22 279.217L1350.04 264.5L1351.13 246.761Z" fill="#9C8CB0"/>
<path d="M1466.72 336.216L1338 325.492L1340.9 290.704L1464.38 302.121L1466.72 336.216Z" fill="#9C8CB0"/>
<path d="M1383.48 208.672L1380.81 244.066L1359.09 242.256L1362.04 206.886L1383.48 208.672Z" fill="#9D8DB1"/>
<path d="M1365.41 247.644L1399.85 251.008L1397.75 282.978L1373.65 281.559L1363.47 280.704L1364.31 265.713L1365.41 247.644Z" fill="#9D8DB1"/>
<path d="M1479.82 338.352L1351.97 327.701L1354.92 292.331L1477.67 303.68L1479.82 338.352Z" fill="#9D8DB1"/>
<path d="M1397.48 208.882L1394.77 244.858L1373.18 243.059L1376.18 207.107L1397.48 208.882Z" fill="#9E8FB2"/>
<path d="M1379.7 248.524L1414.56 251.94L1412.42 284.457L1388.01 283.042L1377.71 282.191L1378.57 266.922L1379.7 248.524Z" fill="#9E8FB2"/>
<path d="M1492.92 340.488L1365.95 329.91L1368.94 293.958L1490.95 305.242L1492.92 340.488Z" fill="#9E8FB2"/>
<path d="M1411.48 209.095L1408.73 245.654L1387.27 243.866L1390.31 207.331L1411.48 209.095Z" fill="#9F91B2"/>
<path d="M1393.98 249.403L1429.27 252.872L1427.08 285.937L1402.39 284.522L1391.95 283.677L1392.83 268.135L1393.98 249.403Z" fill="#9F91B2"/>
<path d="M1506.02 342.625L1379.92 332.119L1382.96 295.585L1504.24 306.801L1506.02 342.625Z" fill="#9F91B2"/>
<path d="M1425.48 209.308L1422.69 246.446L1401.36 244.669L1404.45 207.556L1425.48 209.308Z" fill="#A192B3"/>
<path d="M1408.27 250.286L1443.98 253.808L1441.75 287.416L1416.75 286.001L1406.19 285.164L1407.1 269.348L1408.27 250.286Z" fill="#A192B3"/>
<path d="M1519.12 344.761L1393.89 334.328L1396.98 297.212L1517.52 308.363L1519.12 344.761Z" fill="#A192B3"/>
<path d="M1439.48 209.518L1436.65 247.238L1415.45 245.472L1418.59 207.777L1439.48 209.518Z" fill="#A294B4"/>
<path d="M1422.55 251.165L1458.69 254.74L1456.42 288.896L1431.12 287.481L1420.44 286.65L1421.36 270.561L1422.55 251.165Z" fill="#A294B4"/>
<path d="M1532.22 346.897L1407.86 336.537L1411 298.839L1530.8 309.921L1532.22 346.897Z" fill="#A294B4"/>
<path d="M1453.48 209.731L1450.61 248.034L1429.54 246.279L1432.73 208.002L1453.48 209.731Z" fill="#A396B5"/>
<path d="M1436.84 252.045L1473.39 255.673L1471.08 290.375L1445.49 288.964L1434.68 288.137L1435.62 271.771L1436.84 252.045Z" fill="#A396B5"/>
<path d="M1545.31 349.03L1421.84 338.743L1425.03 300.466L1544.09 311.48L1545.31 349.03Z" fill="#A396B5"/>
<path d="M1467.48 209.941L1464.57 248.827L1443.63 247.082L1446.87 208.223L1467.48 209.941Z" fill="#A497B5"/>
<path d="M1451.12 252.928L1488.1 256.605L1485.75 291.855L1459.86 290.443L1448.92 289.624L1449.88 272.983L1451.12 252.928Z" fill="#A497B5"/>
<path d="M1558.41 351.166L1435.81 340.952L1439.05 302.093L1557.38 313.042L1558.41 351.166Z" fill="#A497B5"/>
<path d="M1481.48 210.154L1478.53 249.619L1457.72 247.885L1461.01 208.448L1481.48 210.154Z" fill="#A599B6"/>
<path d="M1465.41 253.807L1502.81 257.541L1500.42 293.335L1474.23 291.923L1463.16 291.11L1464.15 274.196L1465.41 253.807Z" fill="#A599B6"/>
<path d="M1571.51 353.302L1449.78 343.161L1453.07 303.724L1570.66 314.601L1571.51 353.302Z" fill="#A599B6"/>
<path d="M1495.49 210.364L1492.49 250.415L1471.81 248.692L1475.15 208.669L1495.49 210.364Z" fill="#A79BB7"/>
<path d="M1479.69 254.686L1517.52 258.473L1515.08 294.814L1488.6 293.403L1477.41 292.597L1478.41 275.409L1479.69 254.686Z" fill="#A79BB7"/>
<path d="M1584.61 355.439L1463.76 345.37L1467.09 305.351L1583.94 316.159L1584.61 355.439Z" fill="#A79BB7"/>
<path d="M1509.48 210.576L1506.45 251.207L1485.9 249.495L1489.29 208.894L1509.48 210.576Z" fill="#A89CB8"/>
<path d="M1493.97 255.569L1532.23 259.405L1529.75 296.294L1502.97 294.886L1491.65 294.084L1492.67 276.619L1493.97 255.569Z" fill="#A89CB8"/>
<path d="M1597.71 357.575L1477.73 347.58L1481.11 306.978L1597.23 317.722L1597.71 357.575Z" fill="#A89CB8"/>
<path d="M1523.49 210.786L1520.41 252.003L1499.99 250.302L1503.42 209.115L1523.49 210.786Z" fill="#A99EB8"/>
<path d="M1508.26 256.449L1546.93 260.338L1544.41 297.773L1517.34 296.365L1505.89 295.57L1506.93 277.832L1508.26 256.449Z" fill="#A99EB8"/>
<path d="M1610.81 359.711L1491.71 349.789L1495.14 308.606L1610.51 319.28L1610.81 359.711Z" fill="#A99EB8"/>
<path d="M1537.49 210.999L1534.37 252.795L1514.08 251.105L1517.56 209.34L1537.49 210.999Z" fill="#AA9FB9"/>
<path d="M1522.54 257.331L1561.64 261.27L1559.08 299.253L1531.71 297.845L1520.13 297.057L1521.2 279.045L1522.54 257.331Z" fill="#AA9FB9"/>
<path d="M1623.91 361.848L1505.68 351.998L1509.16 310.233L1623.8 320.839L1623.91 361.848Z" fill="#AA9FB9"/>
<path d="M1551.49 211.209L1548.33 253.588L1528.18 251.908L1531.7 209.561L1551.49 211.209Z" fill="#ABA1BA"/>
<path d="M1536.83 258.211L1576.35 262.206L1573.75 300.732L1546.08 299.324L1534.38 298.544L1535.46 280.258L1536.83 258.211Z" fill="#ABA1BA"/>
<path d="M1637.01 363.984L1519.65 354.207L1523.18 311.86L1637.08 322.401L1637.01 363.984Z" fill="#ABA1BA"/>
<path d="M1565.49 211.422L1562.29 254.38L1542.27 252.711L1545.84 209.786L1565.49 211.422Z" fill="#ACA2BB"/>
<path d="M1551.12 259.09L1591.06 263.138L1588.41 302.212L1560.45 300.804L1548.62 300.03L1549.72 281.467L1551.12 259.09Z" fill="#ACA2BB"/>
<path d="M1650.1 366.12L1533.63 356.416L1537.2 313.487L1650.37 323.96L1650.1 366.12Z" fill="#ACA2BB"/>
<path d="M1579.49 211.635L1576.25 255.176L1556.36 253.518L1559.98 210.01L1579.49 211.635Z" fill="#ADA4BB"/>
<path d="M1565.4 259.973L1605.77 264.071L1603.08 303.691L1574.82 302.287L1562.86 301.517L1563.99 282.68L1565.4 259.973Z" fill="#ADA4BB"/>
<path d="M1663.2 368.256L1547.6 358.626L1551.23 315.114L1663.65 325.522L1663.2 368.256Z" fill="#ADA4BB"/>
<path d="M1593.49 211.845L1590.21 255.968L1570.44 254.321L1574.12 210.231L1593.49 211.845Z" fill="#AEA5BC"/>
<path d="M1579.69 260.853L1620.48 265.003L1617.74 305.171L1589.19 303.767L1577.1 303.004L1578.25 283.893L1579.69 260.853Z" fill="#AEA5BC"/>
<path d="M1676.3 370.389L1561.57 360.831L1565.24 316.741L1676.93 327.08L1676.3 370.389Z" fill="#AEA5BC"/>
<path d="M1607.49 212.058L1604.17 256.764L1584.53 255.128L1588.26 210.456L1607.49 212.058Z" fill="#AFA7BD"/>
<path d="M1593.97 261.736L1635.19 265.939L1632.41 306.651L1603.56 305.246L1591.35 304.49L1592.51 285.106L1593.97 261.736Z" fill="#AFA7BD"/>
<path d="M1689.4 372.525L1575.54 363.04L1579.27 318.368L1690.22 328.639L1689.4 372.525Z" fill="#AFA7BD"/>
<path d="M1621.49 212.268L1618.13 257.556L1598.63 255.931L1602.4 210.677L1621.49 212.268Z" fill="#B0A8BD"/>
<path d="M1608.26 262.615L1649.89 266.871L1647.08 308.13L1617.93 306.726L1605.59 305.977L1606.77 286.315L1608.26 262.615Z" fill="#B0A8BD"/>
<path d="M1702.5 374.662L1589.52 365.249L1593.29 319.995L1703.5 330.201L1702.5 374.662Z" fill="#B0A8BD"/>
<path d="M1635.49 212.481L1632.09 258.348L1612.72 256.734L1616.53 210.902L1635.49 212.481Z" fill="#B1AABE"/>
<path d="M1622.54 263.494L1664.6 267.803L1661.74 309.61L1632.3 308.209L1619.83 307.467L1621.04 287.528L1622.54 263.494Z" fill="#B1AABE"/>
<path d="M1715.6 376.798L1603.49 367.458L1607.31 321.626L1716.79 331.76L1715.6 376.798Z" fill="#B1AABE"/>
<path d="M1649.49 212.691L1646.05 259.144L1626.81 257.541L1630.67 211.123L1649.49 212.691Z" fill="#B2ABBE"/>
<path d="M1636.83 264.377L1679.31 268.736L1676.41 311.089L1646.66 309.688L1634.07 308.95L1635.3 288.741L1636.83 264.377Z" fill="#B2ABBE"/>
<path d="M1728.69 378.934L1617.47 369.668L1621.33 323.253L1730.07 333.319L1728.69 378.934Z" fill="#B2ABBE"/>
<path d="M1663.49 212.904L1660.01 259.937L1640.9 258.344L1644.81 211.348L1663.49 212.904Z" fill="#B3ACBF"/>
<path d="M1651.11 265.257L1694.02 269.668L1691.08 312.569L1661.03 311.168L1648.32 310.44L1649.56 289.951L1651.11 265.257Z" fill="#B3ACBF"/>
<path d="M1741.79 381.07L1631.44 371.877L1635.35 324.88L1743.36 334.881L1741.79 381.07Z" fill="#B3ACBF"/>
<path d="M1677.49 213.113L1673.97 260.729L1654.99 259.147L1658.95 211.569L1677.49 213.113Z" fill="#B4AEC0"/>
<path d="M1665.4 266.136L1708.73 270.604L1705.74 314.052L1675.41 312.648L1662.56 311.927L1663.83 291.164L1665.4 266.136Z" fill="#B4AEC0"/>
<path d="M1754.89 383.206L1645.41 374.086L1649.38 326.507L1756.64 336.44L1754.89 383.206Z" fill="#B4AEC0"/>
<path d="M1691.49 213.327L1687.93 261.525L1669.08 259.954L1673.09 211.794L1691.49 213.327Z" fill="#B5AFC0"/>
<path d="M1679.68 267.019L1723.43 271.536L1720.4 315.532L1689.77 314.131L1676.8 313.414L1678.09 292.377L1679.68 267.019Z" fill="#B5AFC0"/>
<path d="M1767.99 385.343L1659.39 376.295L1663.4 328.135L1769.93 337.998L1767.99 385.343Z" fill="#B5AFC0"/>
<path d="M1705.5 213.536L1701.89 262.317L1683.17 260.757L1687.23 212.015L1705.5 213.536Z" fill="#B6B1C1"/>
<path d="M1693.97 267.899L1738.14 272.469L1735.07 317.011L1704.14 315.61L1691.04 314.9L1692.35 293.59L1693.97 267.899Z" fill="#B6B1C1"/>
<path d="M1781.09 387.479L1673.36 378.504L1677.42 329.762L1783.21 339.561L1781.09 387.479Z" fill="#B6B1C1"/>
<path d="M1719.5 213.75L1715.85 263.109L1697.26 261.56L1701.37 212.239L1719.5 213.75Z" fill="#B7B2C1"/>
<path d="M1708.25 268.781L1752.85 273.401L1749.74 318.491L1718.51 317.089L1705.29 316.387L1706.61 294.799L1708.25 268.781Z" fill="#B7B2C1"/>
<path d="M1794.19 389.612L1687.33 380.71L1691.44 331.389L1796.5 341.119L1794.19 389.612Z" fill="#B7B2C1"/>
<path d="M1733.49 213.963L1729.81 263.905L1711.35 262.367L1715.51 212.464L1733.49 213.963Z" fill="#B8B3C2"/>
<path d="M1722.53 269.661L1767.56 274.337L1764.4 319.97L1732.88 318.569L1719.53 317.874L1720.88 296.012L1722.53 269.661Z" fill="#B8B3C2"/>
<path d="M1807.28 391.748L1701.31 382.919L1705.47 333.016L1809.78 342.681L1807.28 391.748Z" fill="#B8B3C2"/>
<path d="M1747.5 214.172L1743.77 264.698L1725.44 263.17L1729.65 212.685L1747.5 214.172Z" fill="#B9B4C2"/>
<path d="M1736.82 270.54L1782.27 275.269L1779.07 321.45L1747.25 320.049L1733.77 319.36L1735.14 297.225L1736.82 270.54Z" fill="#B9B4C2"/>
<path d="M1820.38 393.884L1715.28 385.128L1719.49 334.643L1823.07 344.24L1820.38 393.884Z" fill="#B9B4C2"/>
<path d="M1761.5 214.386L1757.73 265.494L1739.53 263.977L1743.79 212.91L1761.5 214.386Z" fill="#BAB6C2"/>
<path d="M1751.1 271.423L1796.97 276.201L1793.74 322.93L1761.62 321.532L1748.01 320.847L1749.4 298.438L1751.1 271.423Z" fill="#BAB6C2"/>
<path d="M1833.48 396.021L1729.26 387.338L1733.51 336.27L1836.35 345.799L1833.48 396.021Z" fill="#BAB6C2"/>
<path d="M1775.5 214.595L1771.69 266.286L1753.62 264.78L1757.92 213.131L1775.5 214.595Z" fill="#BAB7C3"/>
<path d="M1765.39 272.303L1811.68 277.134L1808.41 324.409L1775.99 323.011L1762.26 322.333L1763.67 299.647L1765.39 272.303Z" fill="#BAB7C3"/>
<path d="M1846.58 398.157L1743.23 389.546L1747.53 337.897L1849.63 347.361L1846.58 398.157Z" fill="#BAB7C3"/>
<path d="M1789.5 214.808L1785.65 267.078L1767.71 265.583L1772.06 213.356L1789.5 214.808Z" fill="#BBB8C3"/>
<path d="M1779.67 273.182L1826.39 278.066L1823.07 325.889L1790.36 324.491L1776.5 323.82L1777.93 300.86L1779.67 273.182Z" fill="#BBB8C3"/>
<path d="M1859.68 400.293L1757.2 391.756L1761.55 339.528L1862.92 348.919L1859.68 400.293Z" fill="#BBB8C3"/>
<path d="M1803.5 215.018L1799.61 267.874L1781.8 266.39L1786.2 213.577L1803.5 215.018Z" fill="#BCB9C4"/>
<path d="M1793.96 274.065L1841.1 279.002L1837.73 327.368L1804.73 325.97L1790.74 325.307L1792.19 302.073L1793.96 274.065Z" fill="#BCB9C4"/>
<path d="M1872.78 402.429L1771.17 393.965L1775.57 341.155L1876.21 350.478L1872.78 402.429Z" fill="#BCB9C4"/>
<path d="M1817.5 215.231L1813.57 268.666L1795.89 267.193L1800.34 213.802L1817.5 215.231Z" fill="#BDBAC4"/>
<path d="M1808.24 274.944L1855.81 279.934L1852.4 328.848L1819.09 327.453L1804.98 326.793L1806.45 303.286L1808.24 274.944Z" fill="#BDBAC4"/>
<path d="M1885.87 404.566L1785.15 396.174L1789.59 342.782L1889.49 352.04L1885.87 404.566Z" fill="#BDBAC4"/>
<path d="M1831.5 215.441L1827.53 269.458L1809.98 267.996L1814.48 214.023L1831.5 215.441Z" fill="#BEBCC4"/>
<path d="M1822.53 275.827L1870.52 280.867L1867.07 330.327L1833.47 328.933L1819.23 328.28L1820.72 304.496L1822.53 275.827Z" fill="#BEBCC4"/>
<path d="M1898.97 406.702L1799.12 398.383L1803.62 344.41L1902.77 353.599L1898.97 406.702Z" fill="#BEBCC4"/>
<path d="M1845.5 215.654L1841.49 270.254L1824.07 268.803L1828.62 214.247L1845.5 215.654Z" fill="#BFBDC5"/>
<path d="M1836.81 276.707L1885.23 281.799L1881.74 331.807L1847.84 330.413L1833.47 329.767L1834.98 305.709L1836.81 276.707Z" fill="#BFBDC5"/>
<path d="M1912.07 408.838L1813.09 400.592L1817.64 346.037L1916.06 355.157L1912.07 408.838Z" fill="#BFBDC5"/>
<path d="M1859.5 215.864L1855.45 271.047L1838.16 269.606L1842.76 214.469L1859.5 215.864Z" fill="#C0BEC5"/>
<path d="M1851.1 277.586L1899.93 282.731L1896.4 333.287L1862.2 331.892L1847.71 331.253L1849.24 306.921L1851.1 277.586Z" fill="#C0BEC5"/>
<path d="M1925.17 410.975L1827.07 402.802L1831.66 347.664L1929.34 356.72L1925.17 410.975Z" fill="#C0BEC5"/>
<path d="M1873.5 216.077L1869.41 271.839L1852.25 270.41L1856.9 214.693L1873.5 216.077Z" fill="#C1BFC5"/>
<path d="M1865.38 278.469L1914.64 283.667L1911.07 334.766L1876.57 333.375L1861.96 332.74L1863.5 308.131L1865.38 278.469Z" fill="#C1BFC5"/>
<path d="M1938.27 413.107L1841.04 405.007L1845.68 349.291L1942.63 358.278L1938.27 413.107Z" fill="#C1BFC5"/>
<path d="M1887.51 216.29L1883.37 272.635L1866.35 271.216L1871.04 214.918L1887.51 216.29Z" fill="#C1C0C5"/>
<path d="M1879.67 279.348L1929.35 284.599L1925.73 336.246L1890.94 334.855L1876.2 334.227L1877.77 309.344L1879.67 279.348Z" fill="#C1C0C5"/>
<path d="M1951.37 415.243L1855.02 407.216L1859.71 350.918L1955.91 359.837L1951.37 415.243Z" fill="#C1C0C5"/>
<path d="M1901.47 216.497L1897.3 273.424L1880.4 272.017L1885.14 215.136L1901.47 216.497Z" fill="#C2C1C6"/>
<path d="M1893.92 280.225L1944.03 285.529L1940.37 337.723L1905.28 336.332L1890.41 335.71L1891.99 310.554L1893.92 280.225Z" fill="#C2C1C6"/>
<path d="M1964.43 417.377L1868.95 409.423L1873.69 352.542L1969.16 361.396L1964.43 417.377Z" fill="#C2C1C6"/>
<path d="M1915.4 216.704L1911.19 274.211L1894.42 272.814L1899.21 215.355L1915.4 216.704Z" fill="#C3C2C6"/>
<path d="M1908.13 281.102L1958.66 286.456L1954.96 339.196L1919.58 337.806L1904.58 337.192L1906.19 311.761L1908.13 281.102Z" fill="#C3C2C6"/>
<path d="M1977.46 419.508L1882.86 411.626L1887.65 354.164L1982.38 362.949L1977.46 419.508Z" fill="#C3C2C6"/>
<path d="M1929.33 216.908L1925.08 275.001L1908.44 273.615L1913.28 215.571L1929.33 216.908Z" fill="#C4C3C6"/>
<path d="M1922.35 281.976L1973.3 287.382L1969.56 340.67L1933.88 339.283L1918.76 338.672L1920.38 312.965L1922.35 281.976Z" fill="#C4C3C6"/>
<path d="M1990.49 421.638L1896.76 413.83L1901.6 355.785L1995.59 364.506L1990.49 421.638Z" fill="#C4C3C6"/>
<path d="M2003.52 423.769L1910.67 416.033L1915.55 357.407L2008.81 366.059L2003.52 423.769Z" fill="#C5C4C6"/>
<path d="M930.09 198.59L955.529 200.709L953.988 219.207L928.481 217.083L930.08 198.575" fill="#775A97"/>
<path d="M930.635 220.393L952.794 222.24L951.851 230.659L950.944 237.627L944.355 237.583L928.823 236.433L930.635 220.393Z" fill="#775A97"/>
<path d="M807.468 234.705L951.804 245.426L950.261 263.939L797.046 251.174L807.468 234.705Z" fill="#775A97"/>
<path d="M916.253 196.484L941.566 198.593L939.975 217.683L914.596 215.569L916.253 196.484Z" fill="#785C97"/>
<path d="M915.978 218.879L938.569 220.744L937.588 229.495L936.658 236.737L929.947 236.665L914.135 235.467L915.978 218.879Z" fill="#785C97"/>
<path d="M794.115 234.044L937.723 244.712L936.132 263.807L783.781 251.114L794.115 234.044Z" fill="#785C97"/>
<path d="M902.413 194.374L927.588 196.471L925.949 216.144L900.703 214.041L902.413 194.374Z" fill="#795E98"/>
<path d="M901.325 217.366L924.34 219.251L923.328 228.332L922.372 235.85L915.536 235.746L899.432 234.5L901.325 217.366Z" fill="#795E98"/>
<path d="M780.758 233.387L923.629 243.997L921.989 263.674L770.513 251.054L780.758 233.387Z" fill="#795E98"/>
<path d="M888.576 192.268L913.614 194.354L911.926 214.609L886.808 212.516L888.576 192.268Z" fill="#7B5F99"/>
<path d="M886.672 215.852L910.112 217.755L909.065 227.168L908.082 234.956L901.124 234.828L884.727 233.533L886.672 215.852Z" fill="#7B5F99"/>
<path d="M767.405 232.726L909.537 243.286L907.85 263.541L757.248 250.994L767.405 232.726Z" fill="#7B5F99"/>
<path d="M874.719 190.157L899.615 192.231L897.879 213.068L872.895 210.986L874.719 190.157Z" fill="#7C619A"/>
<path d="M871.994 214.339L895.862 216.257L894.784 226L893.775 234.068L886.691 233.912L870.003 232.564L871.994 214.339Z" fill="#7C619A"/>
<path d="M754.03 232.064L895.421 242.569L893.685 263.406L743.962 250.932L754.03 232.064Z" fill="#7C619A"/>
<path d="M860.875 188.05L885.637 190.113L883.853 211.532L858.996 209.461L860.875 188.05Z" fill="#7E639B"/>
<path d="M857.333 212.825L881.627 214.764L880.518 224.836L879.482 233.177L872.276 232.993L855.294 231.596L857.333 212.825Z" fill="#7E639B"/>
<path d="M740.67 231.406L881.327 241.853L879.542 263.272L730.69 250.872L740.67 231.406Z" fill="#7E639B"/>
<path d="M847.032 185.94L871.656 187.992L869.823 209.993L845.096 207.933L847.032 185.94Z" fill="#7F659C"/>
<path d="M842.673 211.311L867.395 213.268L866.251 223.672L865.189 232.286L857.861 232.075L840.584 230.628L842.673 211.311Z" fill="#7F659C"/>
<path d="M727.309 230.745L867.229 241.138L865.396 263.135L717.419 250.807L727.309 230.745Z" fill="#7F659C"/>
<path d="M833.192 183.834L857.675 185.874L855.794 208.453L831.198 206.404L833.192 183.834Z" fill="#80679D"/>
<path d="M828.017 209.797L853.159 211.771L851.984 222.508L850.899 231.396L843.442 231.156L825.875 229.661L828.017 209.797Z" fill="#80679D"/>
<path d="M713.952 230.084L853.131 240.422L851.249 263.002L704.147 250.747L713.952 230.084Z" fill="#80679D"/>
<path d="M819.348 181.724L843.694 183.752L841.764 206.917L817.298 204.879L819.348 181.724Z" fill="#82699E"/>
<path d="M813.356 208.286L838.927 210.278L837.717 221.341L836.606 230.505L829.027 230.241L811.166 228.693L813.356 208.286Z" fill="#82699E"/>
<path d="M700.592 229.426L839.032 239.707L837.103 262.868L690.875 250.686L700.592 229.426Z" fill="#82699E"/>
<path d="M805.504 179.617L829.713 181.634L827.735 205.378L803.399 203.35L805.504 179.617Z" fill="#836A9F"/>
<path d="M798.696 206.771L824.691 208.782L823.451 220.177L822.313 229.615L814.612 229.323L796.46 227.726L798.696 206.771Z" fill="#836A9F"/>
<path d="M687.231 228.765L824.934 238.991L822.956 262.735L677.603 250.625L687.231 228.765Z" fill="#836A9F"/>
<path d="M791.661 177.507L815.732 179.512L813.705 203.838L789.5 201.822L791.661 177.507Z" fill="#856CA0"/>
<path d="M784.036 205.257L810.459 207.289L809.184 219.013L808.02 228.724L800.193 228.404L781.751 226.758L784.036 205.257Z" fill="#856CA0"/>
<path d="M673.871 228.108L810.836 238.276L808.81 262.601L664.332 250.565L673.871 228.108Z" fill="#856CA0"/>
<path d="M777.821 175.401L801.751 177.394L799.675 202.302L775.601 200.296L777.821 175.401Z" fill="#866EA1"/>
<path d="M769.375 203.743L796.227 205.792L794.917 217.849L793.73 227.834L785.778 227.485L767.041 225.79L769.375 203.743Z" fill="#866EA1"/>
<path d="M660.514 227.447L796.738 237.56L794.663 262.468L651.06 250.504L660.514 227.447Z" fill="#866EA1"/>
<path d="M763.977 173.294L787.769 175.276L785.646 200.763L761.702 198.768L763.977 173.294Z" fill="#8870A1"/>
<path d="M754.715 202.228L781.992 204.296L780.651 216.682L779.437 226.943L771.363 226.567L752.332 224.822L754.715 202.228Z" fill="#8870A1"/>
<path d="M647.154 226.786L782.64 236.844L780.516 262.334L637.791 250.444L647.154 226.786Z" fill="#8870A1"/>
<path d="M750.134 171.184L773.788 173.155L771.617 199.223L747.807 197.24L750.134 171.184Z" fill="#8971A2"/>
<path d="M740.055 200.717L767.759 202.803L766.384 215.518L765.144 226.052L756.948 225.652L737.623 223.855L740.055 200.717Z" fill="#8971A2"/>
<path d="M633.793 226.128L768.542 236.129L766.37 262.201L624.52 250.383L633.793 226.128Z" fill="#8971A2"/>
<path d="M736.29 169.078L759.807 171.037L757.587 197.687L733.907 195.714L736.29 169.078Z" fill="#8A73A3"/>
<path d="M725.394 199.203L753.524 201.306L752.117 214.354L750.851 225.162L742.529 224.733L722.913 222.887L725.394 199.203Z" fill="#8A73A3"/>
<path d="M620.433 225.467L754.443 235.417L752.223 262.067L611.248 250.322L620.433 225.467Z" fill="#8A73A3"/>
<path d="M722.45 166.968L745.826 168.915L743.557 196.148L720.008 194.186L722.45 166.968Z" fill="#8C75A4"/>
<path d="M710.734 197.689L739.292 199.81L737.851 213.187L736.561 224.271L728.114 223.815L708.204 221.919L710.734 197.689Z" fill="#8C75A4"/>
<path d="M607.076 224.806L740.345 234.701L738.077 261.934L597.976 250.262L607.076 224.806Z" fill="#8C75A4"/>
<path d="M708.606 164.861L731.845 166.797L729.528 194.608L706.109 192.657L708.606 164.861Z" fill="#8D77A5"/>
<path d="M696.077 196.174L725.056 198.317L723.584 212.023L722.268 223.381L713.699 222.896L693.495 220.952L696.077 196.174Z" fill="#8D77A5"/>
<path d="M593.716 224.148L726.247 233.986L723.93 261.797L584.705 250.198L593.716 224.148Z" fill="#8D77A5"/>
<path d="M694.763 162.751L717.864 164.676L715.498 193.072L692.21 191.132L694.763 162.751Z" fill="#8E79A6"/>
<path d="M681.417 194.664L710.824 196.82L709.317 210.859L707.975 222.49L699.28 221.981L678.789 219.984L681.417 194.664Z" fill="#8E79A6"/>
<path d="M580.355 223.487L712.149 233.27L709.784 261.663L571.433 250.137L580.355 223.487Z" fill="#8E79A6"/>
<path d="M680.919 160.645L703.886 162.558L701.472 191.533L678.311 189.603L680.919 160.645Z" fill="#8F7AA7"/>
<path d="M666.756 193.149L696.588 195.327L695.05 209.695L693.682 221.599L684.865 221.062L664.079 219.016L666.756 193.149Z" fill="#8F7AA7"/>
<path d="M566.995 222.826L698.055 232.555L695.641 261.53L558.161 250.076L566.995 222.826Z" fill="#8F7AA7"/>
<path d="M667.079 158.535L689.905 160.437L687.443 189.993L664.412 188.075L667.079 158.535Z" fill="#917CA8"/>
<path d="M652.096 191.635L682.356 193.831L680.784 208.528L679.393 220.709L670.45 220.144L649.37 218.052L652.096 191.635Z" fill="#917CA8"/>
<path d="M553.634 222.168L683.956 231.839L681.494 261.396L544.893 250.016L553.634 222.168Z" fill="#917CA8"/>
<path d="M653.236 156.428L675.924 158.319L673.413 188.457L650.513 186.55L653.236 156.428Z" fill="#927EA9"/>
<path d="M637.436 190.12L668.124 192.335L666.517 207.364L665.099 219.818L656.031 219.225L634.661 217.081L637.436 190.12Z" fill="#927EA9"/>
<path d="M540.278 221.507L669.858 231.124L667.347 261.263L531.621 249.955L540.278 221.507Z" fill="#927EA9"/>
<path d="M639.392 154.322L661.942 156.201L659.383 186.918L636.614 185.021L639.392 154.322Z" fill="#9380AA"/>
<path d="M622.776 188.606L653.889 190.841L652.25 206.2L650.806 218.927L641.616 218.31L619.951 216.113L622.776 188.606Z" fill="#9380AA"/>
<path d="M526.917 220.85L655.76 230.408L653.201 261.129L518.349 249.895L526.917 220.85Z" fill="#9380AA"/>
<path d="M625.548 152.212L647.961 154.079L645.354 185.378L622.715 183.492L625.548 152.212Z" fill="#9481AB"/>
<path d="M608.115 187.095L639.657 189.345L637.983 205.036L636.513 218.037L627.201 217.392L605.242 215.149L608.115 187.095Z" fill="#9481AB"/>
<path d="M513.557 220.189L641.662 229.693L639.054 260.996L505.077 249.834L513.557 220.189Z" fill="#9481AB"/>
<path d="M611.708 150.106L633.98 151.961L631.324 183.842L608.816 181.967L611.708 150.106Z" fill="#9683AB"/>
<path d="M593.458 185.581L625.421 187.848L623.717 203.869L622.224 217.146L612.782 216.473L590.536 214.182L593.458 185.581Z" fill="#9683AB"/>
<path d="M500.196 219.528L627.564 228.977L624.907 260.862L491.805 249.773L500.196 219.528Z" fill="#9683AB"/>
<path d="M597.865 147.995L619.999 149.839L617.295 182.303L594.917 180.439L597.865 147.995Z" fill="#9785AC"/>
<path d="M578.798 184.067L611.189 186.356L609.45 202.705L607.93 216.259L598.367 215.554L575.826 213.214L578.798 184.067Z" fill="#9785AC"/>
<path d="M486.839 218.87L613.466 228.262L610.761 260.729L478.534 249.713L486.839 218.87Z" fill="#9785AC"/>
<path d="M584.021 145.889L606.018 147.721L603.265 180.767L581.018 178.913L584.021 145.889Z" fill="#9887AD"/>
<path d="M564.138 182.552L596.953 184.859L595.183 201.541L593.638 215.365L583.952 214.639L561.117 212.246L564.138 182.552Z" fill="#9887AD"/>
<path d="M473.479 218.209L599.367 227.549L596.615 260.591L465.262 249.648L473.479 218.209Z" fill="#9887AD"/>
<path d="M570.178 143.779L592.037 145.6L589.235 179.227L567.119 177.385L570.178 143.779Z" fill="#9988AE"/>
<path d="M549.478 181.038L582.721 183.363L580.917 200.374L579.344 214.474L569.536 213.721L546.408 211.278L549.478 181.038Z" fill="#9988AE"/>
<path d="M460.118 217.548L585.269 226.834L582.468 260.458L451.99 249.588L460.118 217.548Z" fill="#9988AE"/>
<path d="M556.338 141.673L578.056 143.482L575.206 177.688L553.22 175.856L556.338 141.673Z" fill="#9A8AAF"/>
<path d="M534.817 179.527L568.485 181.869L566.65 199.21L565.051 213.587L555.118 212.802L531.698 210.311L534.817 179.527Z" fill="#9A8AAF"/>
<path d="M446.758 216.89L571.171 226.118L568.321 260.324L438.718 249.527L446.758 216.89Z" fill="#9A8AAF"/>
<path d="M542.494 139.562L564.075 141.36L561.176 176.152L539.324 174.331L542.494 139.562Z" fill="#9C8CB0"/>
<path d="M520.157 178.013L554.253 180.373L552.383 198.046L550.761 212.697L540.703 211.884L516.989 209.343L520.157 178.013Z" fill="#9C8CB0"/>
<path d="M433.401 216.229L557.073 225.403L554.175 260.191L425.45 249.467L433.401 216.229Z" fill="#9C8CB0"/>
<path d="M528.65 137.456L550.093 139.242L547.147 174.612L525.425 172.803L528.65 137.456Z" fill="#9D8DB1"/>
<path d="M505.497 176.498L540.021 178.88L538.116 196.882L536.468 211.806L526.288 210.965L502.28 208.375L505.497 176.498Z" fill="#9D8DB1"/>
<path d="M420.041 215.568L542.975 224.687L540.028 260.057L412.178 249.406L420.041 215.568Z" fill="#9D8DB1"/>
<path d="M514.807 135.346L536.112 137.121L533.117 173.073L511.526 171.274L514.807 135.346Z" fill="#9E8FB2"/>
<path d="M490.836 174.984L525.786 177.384L523.85 195.715L522.175 210.915L511.869 210.05L487.574 207.408L490.836 174.984Z" fill="#9E8FB2"/>
<path d="M406.68 214.911L528.877 223.972L525.882 259.924L398.906 249.345L406.68 214.911Z" fill="#9E8FB2"/>
<path d="M500.967 133.24L522.131 135.003L519.087 171.537L497.627 169.749L500.967 133.24Z" fill="#9F91B2"/>
<path d="M476.18 173.47L511.554 175.887L509.583 194.551L507.886 210.025L497.454 209.131L472.865 206.44L476.18 173.47Z" fill="#9F91B2"/>
<path d="M393.32 214.249L514.779 223.256L511.735 259.79L385.635 249.285L393.32 214.249Z" fill="#9F91B2"/>
<path d="M487.123 131.133L508.153 132.885L505.061 169.998L483.728 168.22L487.123 131.133Z" fill="#A192B3"/>
<path d="M461.519 171.959L497.318 174.394L495.32 193.388L493.593 209.134L483.039 208.213L458.155 205.472L461.519 171.959Z" fill="#A192B3"/>
<path d="M379.963 213.592L500.684 222.541L497.592 259.657L372.363 249.224L379.963 213.592Z" fill="#A192B3"/>
<path d="M473.28 129.023L494.172 130.764L491.032 168.458L469.829 166.692L473.28 129.023Z" fill="#A294B4"/>
<path d="M446.859 170.445L483.086 172.898L481.05 192.223L479.299 208.244L468.62 207.294L443.446 204.505L446.859 170.445Z" fill="#A294B4"/>
<path d="M366.603 212.931L486.586 221.825L483.445 259.523L359.091 249.163L366.603 212.931Z" fill="#A294B4"/>
<path d="M459.436 126.916L480.191 128.645L477.002 166.922L455.93 165.167L459.436 126.916Z" fill="#A396B5"/>
<path d="M432.199 168.93L468.851 171.401L466.783 191.056L465.006 207.353L454.205 206.379L428.737 203.537L432.199 168.93Z" fill="#A396B5"/>
<path d="M353.242 212.27L472.488 221.11L469.299 259.386L345.819 249.099L353.242 212.27Z" fill="#A396B5"/>
<path d="M445.596 124.807L466.21 126.524L462.973 165.383L442.031 163.638L445.596 124.807Z" fill="#A497B5"/>
<path d="M417.538 167.416L454.618 169.908L452.52 189.893L450.717 206.463L439.789 205.461L414.027 202.569L417.538 167.416Z" fill="#A497B5"/>
<path d="M339.882 211.612L458.39 220.394L455.152 259.253L332.551 249.039L339.882 211.612Z" fill="#A497B5"/>
<path d="M431.752 122.7L452.229 124.406L448.943 163.843L428.132 162.109L431.752 122.7Z" fill="#A599B6"/>
<path d="M402.878 165.905L440.383 168.412L438.253 188.729L436.424 205.572L425.374 204.542L399.318 201.602L402.878 165.905Z" fill="#A599B6"/>
<path d="M326.521 210.951L444.291 219.682L441.006 259.119L319.279 248.978L326.521 210.951Z" fill="#A599B6"/>
<path d="M417.909 120.59L438.248 122.284L434.914 162.307L414.232 160.584L417.909 120.59Z" fill="#A79BB7"/>
<path d="M388.218 164.39L426.151 166.915L423.986 187.565L422.131 204.681L410.956 203.623L384.612 200.634L388.218 164.39Z" fill="#A79BB7"/>
<path d="M313.165 210.29L430.193 218.967L426.859 258.986L306.007 248.918L313.165 210.29Z" fill="#A79BB7"/>
<path d="M404.069 118.484L424.266 120.166L420.884 160.768L400.333 159.056L404.069 118.484Z" fill="#A89CB8"/>
<path d="M373.557 162.876L411.915 165.422L409.72 186.397L407.837 203.791L396.54 202.708L369.903 199.666L373.557 162.876Z" fill="#A89CB8"/>
<path d="M299.804 209.632L416.095 218.251L412.712 258.852L292.736 248.857L299.804 209.632Z" fill="#A89CB8"/>
<path d="M390.225 116.374L410.286 118.045L406.854 159.232L386.434 157.53L390.225 116.374Z" fill="#A99EB8"/>
<path d="M358.901 161.362L397.683 163.926L395.453 185.234L393.548 202.9L382.125 201.79L355.193 198.699L358.901 161.362Z" fill="#A99EB8"/>
<path d="M286.444 208.971L401.997 217.535L398.566 258.719L279.464 248.796L286.444 208.971Z" fill="#A99EB8"/>
<path d="M376.382 114.267L396.304 115.927L392.825 157.692L372.535 156.002L376.382 114.267Z" fill="#AA9FB9"/>
<path d="M344.24 159.848L383.451 162.433L381.186 184.07L379.255 202.01L367.707 200.871L340.484 197.731L344.24 159.848Z" fill="#AA9FB9"/>
<path d="M273.083 208.31L387.899 216.82L384.419 258.585L266.192 248.736L273.083 208.31Z" fill="#AA9FB9"/>
<path d="M362.538 112.157L382.323 113.805L378.795 156.153L358.636 154.473L362.538 112.157Z" fill="#ABA1BA"/>
<path d="M329.58 158.337L369.215 160.936L366.92 182.906L364.962 201.119L353.292 199.952L325.775 196.763L329.58 158.337Z" fill="#ABA1BA"/>
<path d="M259.726 207.653L373.801 216.104L370.273 258.452L252.92 248.675L259.726 207.653Z" fill="#ABA1BA"/>
<path d="M348.694 110.05L368.342 111.687L364.766 154.613L344.737 152.945L348.694 110.05Z" fill="#ACA2BB"/>
<path d="M314.92 156.822L354.983 159.44L352.653 181.738L350.669 200.228L338.877 199.034L311.065 195.796L314.92 156.822Z" fill="#ACA2BB"/>
<path d="M246.366 206.992L359.703 215.389L356.126 258.318L239.648 248.614L246.366 206.992Z" fill="#ACA2BB"/>
<path d="M334.854 107.944L354.361 109.569L350.736 153.077L330.838 151.419L334.854 107.944Z" fill="#ADA4BB"/>
<path d="M300.259 155.308L340.747 157.947L338.386 180.575L336.376 199.338L324.458 198.119L296.356 194.828L300.259 155.308Z" fill="#ADA4BB"/>
<path d="M233.005 206.334L345.604 214.673L341.979 258.185L226.38 248.554L233.005 206.334Z" fill="#ADA4BB"/>
<path d="M321.011 105.834L340.38 107.448L336.707 151.538L316.939 149.891L321.011 105.834Z" fill="#AEA5BC"/>
<path d="M285.599 153.794L326.515 156.45L324.119 179.411L322.086 198.447L310.042 197.2L281.647 193.86L285.599 153.794Z" fill="#AEA5BC"/>
<path d="M219.645 205.673L331.506 213.958L327.833 258.048L213.108 248.49L219.645 205.673Z" fill="#AEA5BC"/>
<path d="M307.167 103.728L326.402 105.33L322.68 150.002L303.043 148.366L307.167 103.728Z" fill="#AFA7BD"/>
<path d="M270.938 152.283L312.28 154.957L309.853 178.247L307.793 197.557L295.627 196.282L266.941 192.893L270.938 152.283Z" fill="#AFA7BD"/>
<path d="M206.288 205.012L317.412 213.242L313.69 257.914L199.837 248.429L206.288 205.012Z" fill="#AFA7BD"/>
<path d="M293.327 101.618L312.421 103.209L308.651 148.462L289.144 146.837L293.327 101.618Z" fill="#B0A8BD"/>
<path d="M256.278 150.768L298.048 153.461L295.586 177.08L293.5 196.666L281.212 195.363L252.231 191.925L256.278 150.768Z" fill="#B0A8BD"/>
<path d="M192.928 204.354L303.314 212.527L299.543 257.781L186.565 248.368L192.928 204.354Z" fill="#B0A8BD"/>
<path d="M279.484 99.5112L298.44 101.091L294.621 146.923L275.245 145.309L279.484 99.5112Z" fill="#B1AABE"/>
<path d="M241.618 149.254L283.812 151.964L281.319 175.916L279.206 195.779L266.793 194.448L237.522 190.957L241.618 149.254Z" fill="#B1AABE"/>
<path d="M179.567 203.693L289.215 211.815L285.397 257.647L173.293 248.308L179.567 203.693Z" fill="#B1AABE"/>
<path d="M265.64 97.4011L284.459 98.9689L280.592 145.387L261.346 143.784L265.64 97.4011Z" fill="#B2ABBE"/>
<path d="M226.961 147.74L269.58 150.471L267.053 174.752L264.917 194.885L252.378 193.529L222.813 189.99L226.961 147.74Z" fill="#B2ABBE"/>
<path d="M166.207 203.032L275.117 211.099L271.25 257.514L160.021 248.247L166.207 203.032Z" fill="#B2ABBE"/>
<path d="M251.796 95.2944L270.477 96.8508L266.562 143.847L247.447 142.255L251.796 95.2944Z" fill="#B3ACBF"/>
<path d="M212.301 146.225L255.348 148.975L252.786 173.584L250.624 193.998L237.963 192.611L208.103 189.022L212.301 146.225Z" fill="#B3ACBF"/>
<path d="M152.85 202.375L261.019 210.384L257.104 257.38L146.749 248.186L152.85 202.375Z" fill="#B3ACBF"/>
<path d="M237.957 93.1848L256.496 94.7293L252.533 142.308L233.548 140.726L237.957 93.1848Z" fill="#B4AEC0"/>
<path d="M197.64 144.715L241.112 147.478L238.519 172.421L236.331 193.107L223.545 191.692L193.394 188.058L197.64 144.715Z" fill="#B4AEC0"/>
<path d="M139.49 201.714L246.921 209.668L242.957 257.247L133.481 248.126L139.49 201.714Z" fill="#B4AEC0"/>
<path d="M224.113 91.0781L242.515 92.6112L238.503 140.772L219.649 139.201L224.113 91.0781Z" fill="#B5AFC0"/>
<path d="M182.98 143.2L226.88 145.985L224.253 171.257L222.038 192.216L209.129 190.777L178.684 187.09L182.98 143.2Z" fill="#B5AFC0"/>
<path d="M126.129 201.052L232.823 208.953L228.81 257.113L120.209 248.065L126.129 201.052Z" fill="#B5AFC0"/>
<path d="M210.269 88.968L228.534 90.4897L224.473 139.232L205.75 137.673L210.269 88.968Z" fill="#B6B1C1"/>
<path d="M168.32 141.686L212.645 144.489L209.986 170.093L207.748 191.326L194.714 189.859L163.979 186.123L168.32 141.686Z" fill="#B6B1C1"/>
<path d="M112.769 200.395L218.725 208.237L214.664 256.98L106.938 248.005L112.769 200.395Z" fill="#B6B1C1"/>
<path d="M196.426 86.8616L214.553 88.3718L210.444 137.693L191.851 136.144L196.426 86.8616Z" fill="#B7B2C1"/>
<path d="M153.66 140.171L198.412 142.996L195.719 168.925L193.455 190.435L180.296 188.94L149.269 185.155L153.66 140.171Z" fill="#B7B2C1"/>
<path d="M99.4118 199.734L204.626 207.521L200.517 256.842L93.666 247.941L99.4118 199.734Z" fill="#B7B2C1"/>
<path d="M182.585 84.7554L200.572 86.2539L196.414 136.157L177.952 134.619L182.585 84.7554Z" fill="#B8B3C2"/>
<path d="M138.999 138.661L184.177 141.499L181.453 167.762L179.162 189.545L165.88 188.021L134.56 184.187L138.999 138.661Z" fill="#B8B3C2"/>
<path d="M86.0511 199.076L190.528 206.806L186.371 256.709L80.394 247.88L86.0511 199.076Z" fill="#B8B3C2"/>
<path d="M168.742 82.6453L186.591 84.1323L182.385 134.617L164.053 133.09L168.742 82.6453Z" fill="#B9B4C2"/>
<path d="M124.342 137.146L169.945 140.003L167.186 166.598L164.869 188.654L151.465 187.103L119.851 183.219L124.342 137.146Z" fill="#B9B4C2"/>
<path d="M72.6912 198.415L176.43 206.09L172.224 256.575L67.1226 247.819L72.6912 198.415Z" fill="#B9B4C2"/>
<path d="M154.898 80.5388L172.609 82.0143L168.355 133.081L150.154 131.565L154.898 80.5388Z" fill="#BAB6C2"/>
<path d="M109.682 135.632L155.713 138.51L152.919 165.434L150.579 187.763L137.05 186.188L105.141 182.252L109.682 135.632Z" fill="#BAB6C2"/>
<path d="M59.3307 197.754L162.332 205.375L158.078 256.442L53.8506 247.759L59.3307 197.754Z" fill="#BAB6C2"/>
<path d="M141.055 78.4287L158.628 79.8928L154.325 131.542L136.255 130.036L141.055 78.4287Z" fill="#BAB7C3"/>
<path d="M95.0221 134.118L141.477 137.014L138.652 164.267L136.286 186.873L122.631 185.269L90.4321 181.284L95.0221 134.118Z" fill="#BAB7C3"/>
<path d="M45.9734 197.097L148.234 204.659L143.931 256.308L40.5786 247.698L45.9734 197.097Z" fill="#BAB7C3"/>
<path d="M127.215 76.3225L144.651 77.7751L140.299 130.003L122.356 128.508L127.215 76.3225Z" fill="#BBB8C3"/>
<path d="M80.3618 132.603L127.245 135.517L124.386 163.103L121.993 185.982L108.216 184.351L75.7261 180.316L80.3618 132.603Z" fill="#BBB8C3"/>
<path d="M32.6133 196.435L134.139 203.947L129.788 256.175L27.3105 247.638L32.6133 196.435Z" fill="#BBB8C3"/>
<path d="M113.371 74.2124L130.67 75.6535L126.27 128.467L108.46 126.983L113.371 74.2124Z" fill="#BCB9C4"/>
<path d="M65.701 131.092L113.009 134.024L110.119 161.939L107.7 185.091L93.8011 183.432L61.0166 179.349L65.701 131.092Z" fill="#BCB9C4"/>
<path d="M19.2529 195.774L120.041 203.232L115.641 256.042L14.0386 247.577L19.2529 195.774Z" fill="#BCB9C4"/>
<path d="M99.5276 72.1057L116.688 73.5353L112.24 126.927L94.561 125.454L99.5276 72.1057Z" fill="#BDBAC4"/>
<path d="M51.0412 129.578L98.7776 132.528L95.8525 160.775L93.4107 184.201L79.3826 182.517L46.3076 178.381L51.0412 129.578Z" fill="#BDBAC4"/>
<path d="M5.89215 195.117L105.943 202.516L101.495 255.908L0.766602 247.516L5.89215 195.117Z" fill="#BDBAC4"/>
<path d="M85.6842 69.9956L102.707 71.4138L98.2108 125.388L80.6621 123.926L85.6842 69.9956Z" fill="#BEBCC4"/>
<path d="M36.3807 128.064L84.5416 131.034L81.5858 159.608L79.1173 183.31L64.9673 181.598L31.5981 177.413L36.3807 128.064Z" fill="#BEBCC4"/>
<path d="M-7.46427 194.456L91.8449 201.801L87.3483 255.774L-12.5049 247.456L-7.46427 194.456Z" fill="#BEBCC4"/>
<path d="M71.844 67.8894L88.726 69.2959L84.1809 123.852L66.7627 122.401L71.844 67.8894Z" fill="#BFBDC5"/>
<path d="M21.7204 126.549L70.3095 129.538L67.3189 158.444L64.8242 182.42L50.5521 180.68L16.8887 176.446L21.7204 126.549Z" fill="#BFBDC5"/>
<path d="M-20.8248 193.795L77.7465 201.085L73.2015 255.641L-25.7769 247.395L-20.8248 193.795Z" fill="#BFBDC5"/>
<path d="M58.0006 65.7793L74.7451 67.1743L70.1515 122.312L52.8638 120.872L58.0006 65.7793Z" fill="#C0BEC5"/>
<path d="M7.06357 125.035L56.0739 128.041L53.052 157.28L50.531 181.529L36.1369 179.761L2.1792 175.478L7.06357 125.035Z" fill="#C0BEC5"/>
<path d="M-34.1855 193.137L63.6483 200.37L59.0548 255.507L-39.0488 247.334L-34.1855 193.137Z" fill="#C0BEC5"/>
<path d="M44.1568 63.6729L60.7637 65.0563L56.1219 120.773L38.9648 119.343L44.1568 63.6729Z" fill="#C1BFC5"/>
<path d="M-7.59666 123.524L41.842 126.549L38.7858 156.112L36.2417 180.639L21.7183 178.846L-12.5298 174.51L-7.59666 123.524Z" fill="#C1BFC5"/>
<path d="M-47.5458 192.476L49.5502 199.654L44.9085 255.37L-52.3203 247.27L-47.5458 192.476Z" fill="#C1BFC5"/>
<path d="M30.313 61.5662L46.7823 62.9383L42.0921 119.237L25.0654 117.818L30.313 61.5662Z" fill="#C1C0C5"/>
<path d="M-22.257 122.01L27.6064 125.052L24.5189 154.949L21.9485 179.748L7.30306 177.928L-27.2358 173.543L-22.257 122.01Z" fill="#C1C0C5"/>
<path d="M-60.9022 191.815L35.4525 198.939L30.7622 255.237L-65.5918 247.209L-60.9022 191.815Z" fill="#C1C0C5"/>
<path d="M16.5048 59.459L32.8366 60.8196L28.0979 117.7L11.1982 116.292L16.5048 59.459Z" fill="#C2C1C6"/>
<path d="M-36.8857 120.498L13.4059 123.558L10.2872 153.788L7.687 178.86L-7.08042 177.012L-41.9136 172.578L-36.8857 120.498Z" fill="#C2C1C6"/>
<path d="M-74.2314 191.16L21.3893 198.226L16.6506 255.106L-78.8286 247.152L-74.2314 191.16Z" fill="#C2C1C6"/>
<path d="M2.73201 57.3584L18.9227 58.7073L14.1357 116.166L-2.62988 114.769L2.73201 57.3584Z" fill="#C3C2C6"/>
<path d="M-87.521 190.505L7.35835 197.516L2.57112 254.978L-92.0298 247.097L-87.521 190.505Z" fill="#C3C2C6"/>
<path d="M-11.0446 55.2539L5.012 56.5916L0.176292 114.636L-16.4624 113.25L-11.0446 55.2539Z" fill="#C4C3C6"/>
</g>
</g>
<defs>
<clipPath id="clip0_523_853">
<rect width="1920" height="467" fill="white"/>
</clipPath>
</defs>
</svg>
