<svg width="1920" height="388" viewBox="0 0 1920 388" fill="none" xmlns="http://www.w3.org/2000/svg">
    <mask id="mask0_516_430" style="mask-type:alpha" maskUnits="userSpaceOnUse" x="0" y="44"
        width="1920" height="303">
        <rect y="44" width="1920" height="303" fill="#D9D9D9" />
    </mask>
    <g mask="url(#mask0_516_430)">
</g>
    <g clip-path="url(#clip0_516_430)">
        <mask id="mask1_516_430" style="mask-type:luminance" maskUnits="userSpaceOnUse" x="-166"
            y="0" width="2233" height="388">
            <path
                d="M2052.41 0.000152323L-165.209 111.402L-151.323 387.827L2066.3 276.426L2052.41 0.000152323Z"
                fill="white" />
        </mask>
        <g mask="url(#mask1_516_430)">
            <path
                d="M976.993 159.683L977.968 177.971L952.76 179.237L951.841 160.946L976.986 159.683"
                fill="#775A97" />
            <path
                d="M976.999 197.013L961.658 197.641L955.168 197.47L954.5 190.575L953.841 182.249L975.738 181.149L976.999 197.013Z"
                fill="#775A97" />
            <path
                d="M1106.38 215.813L954.979 223.419L954.06 205.128L1096.63 199.247L1106.38 215.813Z"
                fill="#775A97" />
            <path
                d="M990.695 158.057L991.709 176.916L966.633 178.175L965.686 159.313L990.695 158.057Z"
                fill="#785C97" />
            <path
                d="M967.918 181.236L990.238 180.133L991.516 196.537L975.897 197.203L969.282 197.056L968.601 189.891L967.918 181.236Z"
                fill="#785C97" />
            <path
                d="M1119.45 216.185L968.923 223.746L967.975 204.88L1109.82 199.029L1119.45 216.185Z"
                fill="#785C97" />
            <path
                d="M1004.4 156.427L1005.45 175.861L980.502 177.114L979.526 157.677L1004.4 156.427Z"
                fill="#795E98" />
            <path
                d="M981.986 180.228L1004.72 179.117L1006.03 196.061L990.127 196.766L983.388 196.646L982.689 189.208L981.986 180.228Z"
                fill="#795E98" />
            <path d="M1132.52 216.556L982.862 224.074L981.886 204.633L1123 198.815L1132.52 216.556Z"
                fill="#795E98" />
            <path
                d="M1018.1 154.801L1019.19 174.809L994.369 176.056L993.364 156.044L1018.1 154.801Z"
                fill="#7B5F99" />
            <path
                d="M996.055 179.215L1019.21 178.101L1020.56 195.585L1004.36 196.329L997.497 196.229L996.782 188.524L996.055 179.215Z"
                fill="#7B5F99" />
            <path
                d="M1145.59 216.927L996.798 224.402L995.792 204.39L1136.18 198.598L1145.59 216.927Z"
                fill="#7B5F99" />
            <path
                d="M1031.82 153.171L1032.95 173.754L1008.26 174.994L1007.22 154.406L1031.82 153.171Z"
                fill="#7C619A" />
            <path
                d="M1010.14 178.202L1033.72 177.087L1035.09 195.108L1018.61 195.895L1011.62 195.819L1010.89 187.836L1010.14 178.202Z"
                fill="#7C619A" />
            <path
                d="M1158.69 217.297L1010.75 224.729L1009.72 204.141L1149.38 198.379L1158.69 217.297Z"
                fill="#7C619A" />
            <path
                d="M1045.53 151.544L1046.69 172.702L1022.13 173.936L1021.07 152.773L1045.53 151.544Z"
                fill="#7E639B" />
            <path
                d="M1024.22 177.193L1048.22 176.07L1049.62 194.632L1032.84 195.458L1025.73 195.405L1024.98 187.153L1024.22 177.193Z"
                fill="#7E639B" />
            <path
                d="M1171.77 217.668L1024.7 225.056L1023.63 203.894L1162.57 198.165L1171.77 217.668Z"
                fill="#7E639B" />
            <path d="M1059.24 149.915L1060.43 171.647L1036 172.874L1034.91 151.137L1059.24 149.915Z"
                fill="#7F659C" />
            <path
                d="M1038.29 176.18L1062.71 175.054L1064.14 194.156L1047.07 195.02L1039.84 194.991L1039.08 186.469L1038.29 176.18Z"
                fill="#7F659C" />
            <path
                d="M1184.85 218.036L1038.64 225.38L1037.55 203.646L1175.75 197.947L1184.85 218.036Z"
                fill="#7F659C" />
            <path
                d="M1072.95 148.288L1074.18 170.592L1049.88 171.813L1048.76 149.504L1072.95 148.288Z"
                fill="#80679D" />
            <path
                d="M1052.36 175.168L1077.2 174.038L1078.67 193.68L1061.31 194.583L1053.96 194.578L1053.17 185.785L1052.36 175.168Z"
                fill="#80679D" />
            <path
                d="M1197.92 218.407L1052.58 225.708L1051.46 203.399L1188.93 197.729L1197.92 218.407Z"
                fill="#80679D" />
            <path
                d="M1086.65 146.659L1087.92 169.54L1063.75 170.755L1062.6 147.867L1086.65 146.659Z"
                fill="#82699E" />
            <path
                d="M1066.44 174.158L1091.7 173.025L1093.19 193.204L1075.54 194.149L1068.07 194.164L1067.27 185.098L1066.44 174.158Z"
                fill="#82699E" />
            <path d="M1211 218.778L1066.53 226.035L1065.38 203.151L1202.12 197.515L1211 218.778Z"
                fill="#82699E" />
            <path
                d="M1100.36 145.032L1101.67 168.485L1077.62 169.693L1076.45 146.234L1100.36 145.032Z"
                fill="#836A9F" />
            <path
                d="M1080.51 173.146L1106.19 172.009L1107.71 192.728L1089.78 193.712L1082.18 193.75L1081.36 184.414L1080.51 173.146Z"
                fill="#836A9F" />
            <path
                d="M1224.08 219.149L1080.47 226.363L1079.29 202.904L1215.3 197.297L1224.08 219.149Z"
                fill="#836A9F" />
            <path
                d="M1114.07 143.402L1115.41 167.43L1091.5 168.631L1090.29 144.597L1114.07 143.402Z"
                fill="#856CA0" />
            <path
                d="M1094.58 172.137L1120.69 170.992L1122.24 192.252L1104.01 193.275L1096.29 193.336L1095.46 183.73L1094.58 172.137Z"
                fill="#856CA0" />
            <path d="M1237.16 219.52L1094.41 226.69L1093.21 202.656L1228.49 197.083L1237.16 219.52Z"
                fill="#856CA0" />
            <path
                d="M1127.78 141.776L1129.16 166.378L1105.37 167.573L1104.13 142.964L1127.78 141.776Z"
                fill="#866EA1" />
            <path
                d="M1108.66 171.124L1135.18 169.976L1136.76 191.776L1118.25 192.838L1110.4 192.923L1109.55 183.047L1108.66 171.124Z"
                fill="#866EA1" />
            <path
                d="M1250.24 219.891L1108.36 227.018L1107.12 202.409L1241.67 196.865L1250.24 219.891Z"
                fill="#866EA1" />
            <path d="M1141.49 140.15L1142.9 165.323L1119.24 166.512L1117.98 141.331L1141.49 140.15Z"
                fill="#8870A1" />
            <path
                d="M1122.73 170.112L1149.67 168.96L1151.29 191.299L1132.48 192.4L1124.51 192.509L1123.65 182.359L1122.73 170.112Z"
                fill="#8870A1" />
            <path
                d="M1263.32 220.262L1122.3 227.346L1121.04 202.161L1254.86 196.647L1263.32 220.262Z"
                fill="#8870A1" />
            <path d="M1155.2 138.52L1156.64 164.268L1133.12 165.45L1131.82 139.694L1155.2 138.52Z"
                fill="#8971A2" />
            <path
                d="M1136.8 169.103L1164.17 167.947L1165.81 190.823L1146.71 191.967L1138.62 192.095L1137.74 181.676L1136.8 169.103Z"
                fill="#8971A2" />
            <path
                d="M1276.39 220.633L1136.24 227.673L1134.95 201.914L1268.04 196.433L1276.39 220.633Z"
                fill="#8971A2" />
            <path
                d="M1168.9 136.894L1170.39 163.217L1146.99 164.392L1145.67 138.061L1168.9 136.894Z"
                fill="#8A73A3" />
            <path
                d="M1150.88 168.09L1178.66 166.93L1180.34 190.347L1160.95 191.529L1152.74 191.682L1151.84 180.992L1150.88 168.09Z"
                fill="#8A73A3" />
            <path
                d="M1289.47 221.004L1150.19 228.001L1148.86 201.67L1281.23 196.215L1289.47 221.004Z"
                fill="#8A73A3" />
            <path
                d="M1182.61 135.264L1184.13 162.162L1160.86 163.33L1159.51 136.424L1182.61 135.264Z"
                fill="#8C75A4" />
            <path
                d="M1164.95 167.077L1193.15 165.914L1194.86 189.871L1175.18 191.092L1166.85 191.268L1165.93 180.305L1164.95 167.077Z"
                fill="#8C75A4" />
            <path
                d="M1302.55 221.375L1164.13 228.328L1162.78 201.422L1294.41 195.997L1302.55 221.375Z"
                fill="#8C75A4" />
            <path
                d="M1196.32 133.638L1197.88 161.107L1174.73 162.269L1173.35 134.791L1196.32 133.638Z"
                fill="#8D77A5" />
            <path
                d="M1179.02 166.068L1207.65 164.898L1209.38 189.395L1189.42 190.655L1180.96 190.854L1180.03 179.621L1179.02 166.068Z"
                fill="#8D77A5" />
            <path
                d="M1315.63 221.742L1178.07 228.652L1176.69 201.175L1307.6 195.783L1315.63 221.742Z"
                fill="#8D77A5" />
            <path
                d="M1210.03 132.008L1211.62 160.055L1188.61 161.211L1187.2 133.155L1210.03 132.008Z"
                fill="#8E79A6" />
            <path
                d="M1193.1 165.056L1222.14 163.885L1223.91 188.919L1203.65 190.221L1195.07 190.441L1194.12 178.937L1193.1 165.056Z"
                fill="#8E79A6" />
            <path
                d="M1328.71 222.113L1192.01 228.98L1190.6 200.927L1320.78 195.565L1328.71 222.113Z"
                fill="#8E79A6" />
            <path d="M1223.74 130.382L1225.37 159L1202.48 160.149L1201.04 131.522L1223.74 130.382Z"
                fill="#8F7AA7" />
            <path
                d="M1207.17 164.047L1236.64 162.868L1238.43 188.443L1217.89 189.784L1209.18 190.027L1208.22 178.253L1207.17 164.047Z"
                fill="#8F7AA7" />
            <path
                d="M1341.79 222.484L1205.96 229.308L1204.52 200.68L1333.97 195.347L1341.79 222.484Z"
                fill="#8F7AA7" />
            <path
                d="M1237.44 128.752L1239.11 157.945L1216.36 159.088L1214.89 129.885L1237.44 128.752Z"
                fill="#917CA8" />
            <path
                d="M1221.24 163.034L1251.13 161.852L1252.96 187.97L1232.12 189.347L1223.29 189.613L1222.31 177.566L1221.24 163.034Z"
                fill="#917CA8" />
            <path
                d="M1354.86 222.855L1219.9 229.635L1218.43 200.432L1347.15 195.133L1354.86 222.855Z"
                fill="#917CA8" />
            <path
                d="M1251.15 127.126L1252.85 156.893L1230.23 158.03L1228.73 128.252L1251.15 127.126Z"
                fill="#927EA9" />
            <path
                d="M1235.31 162.021L1265.62 160.836L1267.48 187.491L1246.35 188.91L1237.4 189.2L1236.41 176.882L1235.31 162.021Z"
                fill="#927EA9" />
            <path
                d="M1367.94 223.226L1233.84 229.963L1232.35 200.185L1360.34 194.915L1367.94 223.226Z"
                fill="#927EA9" />
            <path
                d="M1264.86 125.499L1266.6 155.838L1244.1 156.968L1242.58 126.619L1264.86 125.499Z"
                fill="#9380AA" />
            <path
                d="M1249.39 161.012L1280.12 159.819L1282.01 187.014L1260.59 188.476L1251.51 188.786L1250.5 176.199L1249.39 161.012Z"
                fill="#9380AA" />
            <path
                d="M1381.02 223.597L1247.79 230.29L1246.26 199.937L1373.52 194.701L1381.02 223.597Z"
                fill="#9380AA" />
            <path
                d="M1278.56 123.87L1280.34 154.783L1257.98 155.906L1256.42 124.982L1278.56 123.87Z"
                fill="#9481AB" />
            <path
                d="M1263.46 160L1294.61 158.807L1296.53 186.542L1274.82 188.039L1265.62 188.372L1264.6 175.515L1263.46 160Z"
                fill="#9481AB" />
            <path d="M1394.1 223.968L1261.73 230.618L1260.18 199.69L1386.71 194.483L1394.1 223.968Z"
                fill="#9481AB" />
            <path
                d="M1292.27 122.243L1294.09 153.731L1271.85 154.848L1270.27 123.349L1292.27 122.243Z"
                fill="#9683AB" />
            <path
                d="M1277.54 158.987L1309.1 157.79L1311.05 186.066L1289.06 187.602L1279.74 187.959L1278.69 174.828L1277.54 158.987Z"
                fill="#9683AB" />
            <path
                d="M1407.18 224.339L1275.67 230.945L1274.09 199.442L1399.89 194.265L1407.18 224.339Z"
                fill="#9683AB" />
            <path
                d="M1305.98 120.614L1307.83 152.676L1285.72 153.787L1284.11 121.712L1305.98 120.614Z"
                fill="#9785AC" />
            <path
                d="M1291.61 157.978L1323.6 156.774L1325.58 185.59L1303.29 187.164L1293.85 187.548L1292.79 174.144L1291.61 157.978Z"
                fill="#9785AC" />
            <path d="M1420.26 224.71L1289.62 231.273L1288 199.195L1413.08 194.051L1420.26 224.71Z"
                fill="#9785AC" />
            <path
                d="M1319.69 118.987L1321.58 151.624L1299.6 152.729L1297.96 120.079L1319.69 118.987Z"
                fill="#9887AD" />
            <path
                d="M1305.68 156.965L1338.09 155.758L1340.1 185.114L1317.53 186.73L1307.96 187.131L1306.88 173.46L1305.68 156.965Z"
                fill="#9887AD" />
            <path
                d="M1433.34 225.078L1303.56 231.597L1301.92 198.951L1426.26 193.833L1433.34 225.078Z"
                fill="#9887AD" />
            <path
                d="M1333.39 117.358L1335.32 150.569L1313.47 151.667L1311.8 118.442L1333.39 117.358Z"
                fill="#9988AE" />
            <path
                d="M1319.75 155.953L1352.58 154.741L1354.63 184.638L1331.76 186.293L1322.07 186.718L1320.98 172.773L1319.75 155.953Z"
                fill="#9988AE" />
            <path
                d="M1446.42 225.448L1317.5 231.924L1315.83 198.703L1439.45 193.615L1446.42 225.448Z"
                fill="#9988AE" />
            <path
                d="M1347.1 115.731L1349.07 149.514L1327.34 150.605L1325.65 116.809L1347.1 115.731Z"
                fill="#9A8AAF" />
            <path
                d="M1333.83 154.944L1367.08 153.728L1369.15 184.161L1346 185.856L1336.18 186.307L1335.07 172.089L1333.83 154.944Z"
                fill="#9A8AAF" />
            <path
                d="M1459.49 225.82L1331.44 232.252L1329.75 198.456L1452.63 193.401L1459.49 225.82Z"
                fill="#9A8AAF" />
            <path
                d="M1360.81 114.102L1362.81 148.463L1341.22 149.547L1339.49 115.173L1360.81 114.102Z"
                fill="#9C8CB0" />
            <path
                d="M1347.9 153.931L1381.57 152.712L1383.68 183.685L1360.23 185.419L1350.29 185.894L1349.17 171.406L1347.9 153.931Z"
                fill="#9C8CB0" />
            <path
                d="M1472.57 226.191L1345.39 232.58L1343.66 198.208L1465.81 193.183L1472.57 226.191Z"
                fill="#9C8CB0" />
            <path
                d="M1374.52 112.475L1376.55 147.408L1355.09 148.486L1353.33 113.539L1374.52 112.475Z"
                fill="#9D8DB1" />
            <path
                d="M1361.97 152.922L1396.07 151.696L1398.2 183.209L1374.46 184.982L1364.4 185.48L1363.26 170.722L1361.97 152.922Z"
                fill="#9D8DB1" />
            <path d="M1485.65 226.561L1359.33 232.907L1357.58 197.961L1479 192.965L1485.65 226.561Z"
                fill="#9D8DB1" />
            <path
                d="M1388.23 110.846L1390.3 146.353L1368.96 147.424L1367.18 111.903L1388.23 110.846Z"
                fill="#9E8FB2" />
            <path
                d="M1376.05 151.91L1410.56 150.679L1412.72 182.733L1388.7 184.548L1378.52 185.066L1377.36 170.035L1376.05 151.91Z"
                fill="#9E8FB2" />
            <path
                d="M1498.73 226.932L1373.27 233.235L1371.49 197.713L1492.19 192.751L1498.73 226.932Z"
                fill="#9E8FB2" />
            <path
                d="M1401.93 109.219L1404.04 145.301L1382.83 146.366L1381.02 110.27L1401.93 109.219Z"
                fill="#9F91B2" />
            <path
                d="M1390.12 150.897L1425.05 149.663L1427.25 182.257L1402.93 184.111L1392.63 184.653L1391.45 169.351L1390.12 150.897Z"
                fill="#9F91B2" />
            <path
                d="M1511.81 227.303L1387.21 233.562L1385.4 197.466L1505.37 192.533L1511.81 227.303Z"
                fill="#9F91B2" />
            <path
                d="M1415.64 107.593L1417.79 144.246L1396.71 145.305L1394.87 108.637L1415.64 107.593Z"
                fill="#A192B3" />
            <path
                d="M1404.19 149.888L1439.55 148.65L1441.77 181.781L1417.17 183.673L1406.74 184.239L1405.55 168.667L1404.19 149.888Z"
                fill="#A192B3" />
            <path
                d="M1524.89 227.674L1401.16 233.89L1399.32 197.218L1518.55 192.319L1524.89 227.674Z"
                fill="#A192B3" />
            <path d="M1429.35 105.963L1431.53 143.191L1410.58 144.243L1408.71 107L1429.35 105.963Z"
                fill="#A294B4" />
            <path
                d="M1418.27 148.875L1454.04 147.634L1456.3 181.305L1431.4 183.236L1420.85 183.825L1419.64 167.984L1418.27 148.875Z"
                fill="#A294B4" />
            <path
                d="M1537.97 228.045L1415.1 234.217L1413.23 196.971L1531.74 192.101L1537.97 228.045Z"
                fill="#A294B4" />
            <path
                d="M1443.06 104.337L1445.27 142.139L1424.45 143.185L1422.55 105.367L1443.06 104.337Z"
                fill="#A396B5" />
            <path
                d="M1432.34 147.863L1468.53 146.618L1470.82 180.829L1445.64 182.802L1434.96 183.411L1433.74 167.296L1432.34 147.863Z"
                fill="#A396B5" />
            <path
                d="M1551.04 228.413L1429.04 234.541L1427.14 196.723L1544.93 191.883L1551.04 228.413Z"
                fill="#A396B5" />
            <path
                d="M1456.77 102.707L1459.02 141.084L1438.33 142.123L1436.4 103.73L1456.77 102.707Z"
                fill="#A497B5" />
            <path
                d="M1446.41 146.854L1483.03 145.601L1485.35 180.352L1459.87 182.365L1449.07 182.998L1447.83 166.613L1446.41 146.854Z"
                fill="#A497B5" />
            <path
                d="M1564.12 228.784L1442.99 234.869L1441.06 196.476L1558.11 191.669L1564.12 228.784Z"
                fill="#A497B5" />
            <path
                d="M1470.47 101.081L1472.76 140.029L1452.2 141.062L1450.24 102.097L1470.47 101.081Z"
                fill="#A599B6" />
            <path
                d="M1460.49 145.841L1497.52 144.588L1499.87 179.876L1474.1 181.928L1463.18 182.584L1461.93 165.929L1460.49 145.841Z"
                fill="#A599B6" />
            <path
                d="M1577.2 229.155L1456.93 235.197L1454.97 196.232L1571.29 191.451L1577.2 229.155Z"
                fill="#A599B6" />
            <path
                d="M1484.18 99.4509L1486.51 138.977L1466.07 140.004L1464.09 100.46L1484.18 99.4509Z"
                fill="#A79BB7" />
            <path
                d="M1474.56 144.828L1512.02 143.572L1514.39 179.4L1488.34 181.491L1477.29 182.17L1476.02 165.245L1474.56 144.828Z"
                fill="#A79BB7" />
            <path
                d="M1590.28 229.526L1470.87 235.524L1468.89 195.984L1584.48 191.233L1590.28 229.526Z"
                fill="#A79BB7" />
            <path
                d="M1497.89 97.825L1500.25 137.922L1479.95 138.942L1477.93 98.8275L1497.89 97.825Z"
                fill="#A89CB8" />
            <path
                d="M1488.63 143.819L1526.51 142.556L1528.92 178.924L1502.57 181.057L1491.41 181.757L1490.12 164.558L1488.63 143.819Z"
                fill="#A89CB8" />
            <path
                d="M1603.36 229.897L1484.82 235.852L1482.8 195.737L1597.66 191.019L1603.36 229.897Z"
                fill="#A89CB8" />
            <path d="M1511.6 96.1951L1514 136.871L1493.82 137.884L1491.78 97.1908L1511.6 96.1951Z"
                fill="#A99EB8" />
            <path
                d="M1502.71 142.807L1541 141.539L1543.44 178.448L1516.81 180.62L1505.52 181.343L1504.21 163.874L1502.71 142.807Z"
                fill="#A99EB8" />
            <path
                d="M1616.43 230.268L1498.76 236.179L1496.72 195.489L1610.85 190.801L1616.43 230.268Z"
                fill="#A99EB8" />
            <path
                d="M1525.31 94.5688L1527.74 135.815L1507.7 136.822L1505.62 95.5576L1525.31 94.5688Z"
                fill="#AA9FB9" />
            <path
                d="M1516.78 141.798L1555.5 140.523L1557.97 177.972L1531.04 180.182L1519.63 180.929L1518.31 163.19L1516.78 141.798Z"
                fill="#AA9FB9" />
            <path
                d="M1629.51 230.639L1512.7 236.507L1510.63 195.242L1624.03 190.583L1629.51 230.639Z"
                fill="#AA9FB9" />
            <path d="M1539.01 92.939L1541.49 134.76L1521.57 135.761L1519.47 93.921L1539.01 92.939Z"
                fill="#ABA1BA" />
            <path
                d="M1530.85 140.785L1569.99 139.51L1572.49 177.496L1545.28 179.745L1533.74 180.516L1532.4 162.507L1530.85 140.785Z"
                fill="#ABA1BA" />
            <path
                d="M1642.59 231.01L1526.65 236.834L1524.54 194.994L1637.22 190.369L1642.59 231.01Z"
                fill="#ABA1BA" />
            <path
                d="M1552.72 91.3127L1555.23 133.705L1535.44 134.699L1533.31 92.2877L1552.72 91.3127Z"
                fill="#ACA2BB" />
            <path
                d="M1544.92 139.773L1584.48 138.494L1587.02 177.02L1559.51 179.308L1547.85 180.102L1546.5 161.819L1544.92 139.773Z"
                fill="#ACA2BB" />
            <path
                d="M1655.67 231.381L1540.59 237.162L1538.46 194.747L1650.4 190.151L1655.67 231.381Z"
                fill="#ACA2BB" />
            <path
                d="M1566.43 89.6865L1568.97 132.654L1549.32 133.641L1547.16 90.6546L1566.43 89.6865Z"
                fill="#ADA4BB" />
            <path
                d="M1559 138.763L1598.98 137.477L1601.54 176.544L1573.74 178.874L1561.96 179.689L1560.59 161.136L1559 138.763Z"
                fill="#ADA4BB" />
            <path
                d="M1668.75 231.752L1554.53 237.489L1552.37 194.499L1663.59 189.937L1668.75 231.752Z"
                fill="#ADA4BB" />
            <path d="M1580.14 88.0566L1582.72 131.599L1563.19 132.58L1561 89.0181L1580.14 88.0566Z"
                fill="#AEA5BC" />
            <path
                d="M1573.07 137.751L1613.47 136.461L1616.06 176.068L1587.98 178.437L1576.07 179.275L1574.69 160.452L1573.07 137.751Z"
                fill="#AEA5BC" />
            <path
                d="M1681.83 232.119L1568.47 237.814L1566.28 194.252L1676.77 189.719L1681.83 232.119Z"
                fill="#AEA5BC" />
            <path
                d="M1593.85 86.4302L1596.46 130.547L1577.06 131.522L1574.84 87.3849L1593.85 86.4302Z"
                fill="#AFA7BD" />
            <path
                d="M1587.15 136.742L1627.97 135.448L1630.59 175.592L1602.21 178L1590.18 178.861L1588.78 159.768L1587.15 136.742Z"
                fill="#AFA7BD" />
            <path d="M1694.9 232.49L1582.42 238.141L1580.2 194.004L1689.96 189.501L1694.9 232.49Z"
                fill="#AFA7BD" />
            <path
                d="M1607.55 84.8005L1610.21 129.492L1590.93 130.46L1588.69 85.7482L1607.55 84.8005Z"
                fill="#B0A8BD" />
            <path
                d="M1601.22 135.729L1642.46 134.432L1645.11 175.115L1616.45 177.563L1604.3 178.447L1602.88 159.081L1601.22 135.729Z"
                fill="#B0A8BD" />
            <path
                d="M1707.98 232.861L1596.36 238.469L1594.11 193.757L1703.14 189.287L1707.98 232.861Z"
                fill="#B0A8BD" />
            <path
                d="M1621.26 83.1743L1623.95 128.437L1604.81 129.398L1602.53 84.1151L1621.26 83.1743Z"
                fill="#B1AABE" />
            <path
                d="M1615.29 134.717L1656.95 133.416L1659.64 174.639L1630.68 177.129L1618.41 178.037L1616.97 158.397L1615.29 134.717Z"
                fill="#B1AABE" />
            <path
                d="M1721.06 233.232L1610.3 238.796L1608.03 193.513L1716.33 189.069L1721.06 233.232Z"
                fill="#B1AABE" />
            <path
                d="M1634.97 81.5444L1637.69 127.385L1618.68 128.34L1616.38 82.4784L1634.97 81.5444Z"
                fill="#B2ABBE" />
            <path
                d="M1629.36 133.708L1671.45 132.399L1674.16 174.163L1644.92 176.692L1632.52 177.62L1631.07 157.713L1629.36 133.708Z"
                fill="#B2ABBE" />
            <path
                d="M1734.14 233.603L1624.24 239.124L1621.94 193.265L1729.51 188.851L1734.14 233.603Z"
                fill="#B2ABBE" />
            <path
                d="M1648.68 79.9182L1651.44 126.33L1632.55 127.279L1630.22 80.8454L1648.68 79.9182Z"
                fill="#B3ACBF" />
            <path
                d="M1643.44 132.695L1685.94 131.383L1688.69 173.687L1659.15 176.254L1646.63 177.21L1645.16 157.026L1643.44 132.695Z"
                fill="#B3ACBF" />
            <path
                d="M1747.22 233.974L1638.19 239.451L1635.86 193.018L1742.7 188.637L1747.22 233.974Z"
                fill="#B3ACBF" />
            <path
                d="M1662.38 78.2886L1665.18 125.275L1646.43 126.217L1644.07 79.2088L1662.38 78.2886Z"
                fill="#B4AEC0" />
            <path
                d="M1657.51 131.682L1700.43 130.37L1703.21 173.215L1673.39 175.817L1660.74 176.796L1659.26 156.342L1657.51 131.682Z"
                fill="#B4AEC0" />
            <path d="M1760.3 234.345L1652.13 239.779L1649.77 192.77L1755.88 188.419L1760.3 234.345Z"
                fill="#B4AEC0" />
            <path
                d="M1676.09 76.6624L1678.93 124.223L1660.3 125.159L1657.91 77.5758L1676.09 76.6624Z"
                fill="#B5AFC0" />
            <path
                d="M1671.58 130.673L1714.93 129.354L1717.73 172.739L1687.62 175.383L1674.85 176.382L1673.35 155.659L1671.58 130.673Z"
                fill="#B5AFC0" />
            <path
                d="M1773.37 234.716L1666.07 240.106L1663.68 192.523L1769.07 188.201L1773.37 234.716Z"
                fill="#B5AFC0" />
            <path
                d="M1689.8 75.0322L1692.67 123.168L1674.17 124.097L1671.75 75.9387L1689.8 75.0322Z"
                fill="#B6B1C1" />
            <path
                d="M1685.66 129.661L1729.42 128.337L1732.26 172.262L1701.85 174.946L1688.96 175.969L1687.45 154.975L1685.66 129.661Z"
                fill="#B6B1C1" />
            <path
                d="M1786.45 235.087L1680.02 240.434L1677.6 192.275L1782.25 187.987L1786.45 235.087Z"
                fill="#B6B1C1" />
            <path
                d="M1703.51 73.4062L1706.42 122.113L1688.05 123.036L1685.6 74.306L1703.51 73.4062Z"
                fill="#B7B2C1" />
            <path
                d="M1699.73 128.652L1743.92 127.321L1746.78 171.786L1716.09 174.509L1703.07 175.555L1701.54 154.288L1699.73 128.652Z"
                fill="#B7B2C1" />
            <path
                d="M1799.53 235.455L1693.96 240.758L1691.51 192.028L1795.44 187.769L1799.53 235.455Z"
                fill="#B7B2C1" />
            <path d="M1717.21 71.78L1720.16 121.061L1701.92 121.978L1699.44 72.6727L1717.21 71.78Z"
                fill="#B8B3C2" />
            <path
                d="M1713.8 127.639L1758.41 126.308L1761.31 171.31L1730.32 174.072L1717.19 175.141L1715.64 153.604L1713.8 127.639Z"
                fill="#B8B3C2" />
            <path
                d="M1812.61 235.826L1707.9 241.086L1705.43 191.78L1808.62 187.555L1812.61 235.826Z"
                fill="#B8B3C2" />
            <path
                d="M1730.92 70.1501L1733.91 120.006L1715.79 120.916L1713.29 71.036L1730.92 70.1501Z"
                fill="#B9B4C2" />
            <path
                d="M1727.88 126.626L1772.9 125.292L1775.83 170.834L1744.56 173.635L1731.3 174.728L1729.73 152.92L1727.88 126.626Z"
                fill="#B9B4C2" />
            <path
                d="M1825.69 236.197L1721.85 241.413L1719.34 191.533L1821.81 187.337L1825.69 236.197Z"
                fill="#B9B4C2" />
            <path
                d="M1744.63 68.5237L1747.65 118.955L1729.67 119.858L1727.13 69.4027L1744.63 68.5237Z"
                fill="#BAB6C2" />
            <path
                d="M1741.95 125.617L1787.4 124.276L1790.36 170.358L1758.79 173.201L1745.41 174.314L1743.83 152.237L1741.95 125.617Z"
                fill="#BAB6C2" />
            <path
                d="M1838.77 236.568L1735.79 241.741L1733.26 191.285L1834.99 187.119L1838.77 236.568Z"
                fill="#BAB6C2" />
            <path d="M1758.34 66.894L1761.4 117.9L1743.54 118.797L1740.97 67.7663L1758.34 66.894Z"
                fill="#BAB7C3" />
            <path
                d="M1756.02 124.605L1801.89 123.259L1804.88 169.882L1773.03 172.763L1759.52 173.9L1757.92 151.549L1756.02 124.605Z"
                fill="#BAB7C3" />
            <path
                d="M1851.84 236.939L1749.73 242.068L1747.17 191.038L1848.17 186.905L1851.84 236.939Z"
                fill="#BAB7C3" />
            <path
                d="M1772.05 65.2678L1775.14 116.845L1757.41 117.735L1754.82 66.1332L1772.05 65.2678Z"
                fill="#BBB8C3" />
            <path
                d="M1770.09 123.592L1816.38 122.243L1819.4 169.406L1787.26 172.326L1773.63 173.487L1772.02 150.866L1770.09 123.592Z"
                fill="#BBB8C3" />
            <path
                d="M1864.92 237.31L1763.67 242.396L1761.08 190.794L1861.36 186.687L1864.92 237.31Z"
                fill="#BBB8C3" />
            <path
                d="M1785.75 63.6379L1788.88 115.793L1771.28 116.677L1768.66 64.4965L1785.75 63.6379Z"
                fill="#BCB9C4" />
            <path
                d="M1784.17 122.583L1830.88 121.23L1833.93 168.93L1801.49 171.889L1787.74 173.073L1786.11 150.182L1784.17 122.583Z"
                fill="#BCB9C4" />
            <path d="M1878 237.681L1777.62 242.723L1775 190.546L1874.55 186.469L1878 237.681Z"
                fill="#BCB9C4" />
            <path
                d="M1799.46 62.0117L1802.63 114.738L1785.16 115.615L1782.51 62.8634L1799.46 62.0117Z"
                fill="#BDBAC4" />
            <path
                d="M1798.24 121.571L1845.37 120.214L1848.45 168.454L1815.73 171.455L1801.85 172.659L1800.21 149.498L1798.24 121.571Z"
                fill="#BDBAC4" />
            <path
                d="M1891.08 238.052L1791.56 243.051L1788.91 190.299L1887.73 186.255L1891.08 238.052Z"
                fill="#BDBAC4" />
            <path
                d="M1813.17 60.3818L1816.37 113.683L1799.03 114.554L1796.35 61.2267L1813.17 60.3818Z"
                fill="#BEBCC4" />
            <path
                d="M1812.32 120.561L1859.87 119.197L1862.98 167.977L1829.96 171.018L1815.96 172.246L1814.3 148.811L1812.32 120.561Z"
                fill="#BEBCC4" />
            <path
                d="M1904.16 238.422L1805.5 243.378L1802.82 190.051L1900.91 186.037L1904.16 238.422Z"
                fill="#BEBCC4" />
            <path
                d="M1826.88 58.7556L1830.11 112.631L1812.91 113.496L1810.2 59.5935L1826.88 58.7556Z"
                fill="#BFBDC5" />
            <path
                d="M1826.39 119.549L1874.36 118.181L1877.5 167.501L1844.2 170.581L1830.08 171.832L1828.4 148.127L1826.39 119.549Z"
                fill="#BFBDC5" />
            <path
                d="M1917.24 238.793L1819.45 243.706L1816.74 189.804L1914.1 185.819L1917.24 238.793Z"
                fill="#BFBDC5" />
            <path
                d="M1840.59 57.1257L1843.86 111.576L1826.78 112.434L1824.04 57.9568L1840.59 57.1257Z"
                fill="#C0BEC5" />
            <path
                d="M1840.46 118.536L1888.85 117.165L1892.03 167.025L1858.43 170.144L1844.19 171.418L1842.49 147.443L1840.46 118.536Z"
                fill="#C0BEC5" />
            <path
                d="M1930.32 239.164L1833.39 244.034L1830.65 189.556L1927.28 185.605L1930.32 239.164Z"
                fill="#C0BEC5" />
            <path
                d="M1854.29 55.4995L1857.6 110.521L1840.65 111.372L1837.89 56.3237L1854.29 55.4995Z"
                fill="#C1BFC5" />
            <path
                d="M1854.54 117.527L1903.35 116.152L1906.55 166.549L1872.67 169.71L1858.3 171.005L1856.59 146.756L1854.54 117.527Z"
                fill="#C1BFC5" />
            <path
                d="M1943.4 239.532L1847.33 244.358L1844.57 189.309L1940.47 185.387L1943.4 239.532Z"
                fill="#C1BFC5" />
            <path d="M1868 53.873L1871.35 109.469L1854.53 110.314L1851.73 54.6905L1868 53.873Z"
                fill="#C1C0C5" />
            <path
                d="M1868.61 116.515L1917.84 115.135L1921.07 166.073L1886.9 169.273L1872.41 170.591L1870.68 146.072L1868.61 116.515Z"
                fill="#C1C0C5" />
            <path
                d="M1956.47 239.903L1861.28 244.685L1858.48 189.061L1953.65 185.17L1956.47 239.903Z"
                fill="#C1C0C5" />
            <path
                d="M1881.68 52.2454L1885.06 108.416L1868.36 109.255L1865.54 53.056L1881.68 52.2454Z"
                fill="#C2C1C6" />
            <path
                d="M1882.65 115.504L1932.3 114.121L1935.57 165.598L1901.1 168.837L1886.49 170.179L1884.74 145.39L1882.65 115.504Z"
                fill="#C2C1C6" />
            <path
                d="M1969.52 240.276L1875.18 245.015L1872.36 188.816L1966.81 184.957L1969.52 240.276Z"
                fill="#C2C1C6" />
            <path
                d="M1895.32 50.6223L1898.74 107.364L1882.17 108.196L1879.32 51.4259L1895.32 50.6223Z"
                fill="#C3C2C6" />
            <path
                d="M1896.65 114.498L1946.73 113.108L1950.02 165.126L1915.27 168.403L1900.53 169.769L1898.77 144.71L1896.65 114.498Z"
                fill="#C3C2C6" />
            <path
                d="M1982.53 240.65L1889.06 245.345L1886.21 188.572L1979.92 184.742L1982.53 240.65Z"
                fill="#C3C2C6" />
            <path
                d="M1908.96 48.9961L1912.41 106.316L1895.98 107.142L1893.09 49.7928L1908.96 48.9961Z"
                fill="#C4C3C6" />
            <path
                d="M1910.66 113.489L1961.15 112.095L1964.48 164.653L1929.44 167.973L1914.58 169.358L1912.8 144.026L1910.66 113.489Z"
                fill="#C4C3C6" />
            <path
                d="M1995.54 241.024L1902.93 245.676L1900.05 188.328L1993.04 184.532L1995.54 241.024Z"
                fill="#C4C3C6" />
            <path d="M1922.6 47.373L1926.09 105.264L1909.78 106.083L1906.87 48.163L1922.6 47.373Z"
                fill="#C5C4C6" />
            <path
                d="M2008.55 241.399L1916.81 246.007L1913.9 188.083L2006.16 184.317L2008.55 241.399Z"
                fill="#C5C4C6" />
            <path
                d="M930.191 162.034L955.326 160.771L956.244 179.048L931.043 180.314L930.18 162.021"
                fill="#775A97" />
            <path
                d="M933.581 183.267L955.474 182.167L955.656 190.517L955.683 197.444L949.239 198.265L933.912 199.177L933.581 183.267Z"
                fill="#775A97" />
            <path
                d="M815.109 213.39L957.545 204.953L958.463 223.244L807.084 230.848L815.109 213.39Z"
                fill="#775A97" />
            <path
                d="M916.396 161.789L941.404 160.533L942.352 179.395L917.276 180.655L916.396 161.789Z"
                fill="#785C97" />
            <path
                d="M919.062 183.708L941.38 182.57L941.568 191.249L941.608 198.447L935.042 199.256L919.434 200.158L919.062 183.708Z"
                fill="#785C97" />
            <path
                d="M801.975 214.494L943.693 206.1L944.641 224.966L794.115 232.528L801.975 214.494Z"
                fill="#785C97" />
            <path
                d="M902.596 161.541L927.47 160.292L928.446 179.729L903.503 180.982L902.596 161.541Z"
                fill="#795E98" />
            <path
                d="M904.545 184.149L927.28 182.976L927.481 191.981L927.532 199.452L920.839 200.247L904.941 201.139L904.545 184.149Z"
                fill="#795E98" />
            <path
                d="M788.839 215.602L929.828 207.248L930.805 226.689L781.143 234.207L788.839 215.602Z"
                fill="#795E98" />
            <path
                d="M888.801 161.297L913.538 160.054L914.543 180.066L889.726 181.313L888.801 161.297Z"
                fill="#7B5F99" />
            <path
                d="M890.029 184.59L913.182 183.378L913.392 192.713L913.452 200.451L906.637 201.238L890.445 202.121L890.029 184.59Z"
                fill="#7B5F99" />
            <path
                d="M775.705 216.706L915.966 208.4L916.972 228.412L768.174 235.887L775.705 216.706Z"
                fill="#7B5F99" />
            <path d="M874.983 161.05L899.581 159.814L900.615 180.401L875.93 181.641L874.983 161.05Z"
                fill="#7C619A" />
            <path
                d="M875.489 185.036L899.062 183.782L899.285 193.443L899.356 201.458L892.414 202.234L875.932 203.104L875.489 185.036Z"
                fill="#7C619A" />
            <path d="M762.55 217.812L902.08 209.549L903.114 230.136L755.184 237.567L762.55 217.812Z"
                fill="#7C619A" />
            <path
                d="M861.181 160.805L885.646 159.576L886.709 180.739L862.15 181.972L861.181 160.805Z"
                fill="#7E639B" />
            <path
                d="M860.967 185.477L884.957 184.188L885.194 194.175L885.274 202.461L878.21 203.225L861.433 204.086L860.967 185.477Z"
                fill="#7E639B" />
            <path
                d="M749.408 218.92L888.213 210.697L889.277 231.859L742.208 239.247L749.408 218.92Z"
                fill="#7E639B" />
            <path
                d="M847.377 160.557L871.706 159.335L872.798 181.073L848.368 182.3L847.377 160.557Z"
                fill="#7F659C" />
            <path
                d="M846.443 185.918L870.854 184.591L871.1 194.907L871.191 203.463L864.003 204.217L846.933 205.067L846.443 185.918Z"
                fill="#7F659C" />
            <path
                d="M736.267 220.024L874.344 211.845L875.436 233.579L729.232 240.923L736.267 220.024Z"
                fill="#7F659C" />
            <path
                d="M833.578 160.313L857.768 159.098L858.888 181.407L834.587 182.628L833.578 160.313Z"
                fill="#80679D" />
            <path
                d="M831.924 186.359L856.75 184.994L857.009 195.64L857.113 204.466L849.796 205.208L832.435 206.049L831.924 186.359Z"
                fill="#80679D" />
            <path
                d="M723.13 221.129L860.476 212.993L861.597 235.302L716.257 242.603L723.13 221.129Z"
                fill="#80679D" />
            <path
                d="M819.775 160.065L843.829 158.857L844.979 181.744L820.806 182.959L819.775 160.065Z"
                fill="#82699E" />
            <path
                d="M817.4 186.804L842.647 185.4L842.915 196.368L843.029 205.468L835.589 206.203L817.934 207.031L817.4 186.804Z"
                fill="#82699E" />
            <path
                d="M709.988 222.237L846.606 214.141L847.756 237.025L703.28 244.283L709.988 222.237Z"
                fill="#82699E" />
            <path
                d="M805.973 159.821L829.891 158.619L831.07 182.079L807.026 183.286L805.973 159.821Z"
                fill="#836A9F" />
            <path
                d="M802.877 187.245L828.541 185.803L828.822 197.101L828.947 206.471L821.384 207.195L803.438 208.013L802.877 187.245Z"
                fill="#836A9F" />
            <path
                d="M696.848 223.342L832.738 215.289L833.916 238.749L690.305 245.963L696.848 223.342Z"
                fill="#836A9F" />
            <path d="M792.17 159.573L815.952 158.378L817.16 182.413L793.245 183.614L792.17 159.573Z"
                fill="#856CA0" />
            <path
                d="M788.354 187.687L814.44 186.21L814.729 197.833L814.865 207.474L807.175 208.186L788.94 208.995L788.354 187.687Z"
                fill="#856CA0" />
            <path
                d="M683.706 224.45L818.868 216.438L820.075 240.472L677.328 247.643L683.706 224.45Z"
                fill="#856CA0" />
            <path d="M778.37 159.329L802.013 158.141L803.249 182.75L779.463 183.945L778.37 159.329Z"
                fill="#866EA1" />
            <path
                d="M773.831 188.128L800.337 186.613L800.637 198.565L800.785 208.476L792.97 209.178L774.44 209.977L773.831 188.128Z"
                fill="#866EA1" />
            <path d="M670.57 225.554L805 217.586L806.236 242.195L664.353 249.322L670.57 225.554Z"
                fill="#866EA1" />
            <path
                d="M764.567 159.084L788.074 157.904L789.339 183.084L765.682 184.273L764.567 159.084Z"
                fill="#8870A1" />
            <path
                d="M759.309 188.569L786.232 187.016L786.545 199.294L786.704 209.479L778.765 210.169L759.941 210.959L759.309 188.569Z"
                fill="#8870A1" />
            <path
                d="M657.429 226.659L791.131 218.734L792.396 243.918L651.381 251.002L657.429 226.659Z"
                fill="#8870A1" />
            <path d="M750.765 158.837L774.136 157.663L775.43 183.419L751.905 184.6L750.765 158.837Z"
                fill="#8971A2" />
            <path
                d="M744.785 189.014L772.129 187.422L772.451 200.026L772.62 210.481L764.559 211.164L745.441 211.941L744.785 189.014Z"
                fill="#8971A2" />
            <path
                d="M644.287 227.767L777.261 219.882L778.555 245.641L638.404 252.682L644.287 227.767Z"
                fill="#8971A2" />
            <path
                d="M736.961 158.592L760.196 157.425L761.519 183.756L738.124 184.931L736.961 158.592Z"
                fill="#8A73A3" />
            <path
                d="M730.263 189.456L758.024 187.825L758.36 200.758L758.539 211.484L750.351 212.156L730.943 212.922L730.263 189.456Z"
                fill="#8A73A3" />
            <path
                d="M631.147 228.872L763.393 221.034L764.716 247.365L625.429 254.362L631.147 228.872Z"
                fill="#8A73A3" />
            <path
                d="M723.162 158.344L746.258 157.184L747.609 184.09L724.342 185.259L723.162 158.344Z"
                fill="#8C75A4" />
            <path
                d="M715.739 189.897L743.921 188.228L744.266 201.487L744.458 212.487L736.145 213.147L716.442 213.904L715.739 189.897Z"
                fill="#8C75A4" />
            <path
                d="M618.008 229.976L749.523 222.182L750.874 249.088L612.452 256.042L618.008 229.976Z"
                fill="#8C75A4" />
            <path d="M709.359 158.1L732.319 156.947L733.699 184.424L710.561 185.587L709.359 158.1Z"
                fill="#8D77A5" />
            <path
                d="M701.221 190.338L729.817 188.634L730.174 202.219L730.377 213.489L721.941 214.139L701.944 214.886L701.221 190.338Z"
                fill="#8D77A5" />
            <path
                d="M604.869 231.084L735.655 223.33L737.035 250.808L599.477 257.718L604.869 231.084Z"
                fill="#8D77A5" />
            <path
                d="M695.557 157.852L718.381 156.706L719.79 184.762L696.782 185.918L695.557 157.852Z"
                fill="#8E79A6" />
            <path
                d="M686.697 190.783L715.714 189.037L716.081 202.952L716.293 214.492L707.731 215.134L687.447 215.868L686.697 190.783Z"
                fill="#8E79A6" />
            <path
                d="M591.726 232.189L721.785 224.478L723.194 252.531L586.5 259.398L591.726 232.189Z"
                fill="#8E79A6" />
            <path
                d="M681.754 157.608L704.446 156.468L705.884 185.096L683.001 186.245L681.754 157.608Z"
                fill="#8F7AA7" />
            <path
                d="M672.175 191.224L701.609 189.443L701.989 203.684L702.212 215.494L693.526 216.125L672.949 216.85L672.175 191.224Z"
                fill="#8F7AA7" />
            <path
                d="M578.585 233.294L707.919 225.626L709.357 254.254L573.524 261.078L578.585 233.294Z"
                fill="#8F7AA7" />
            <path d="M667.954 157.36L690.506 156.227L691.973 185.43L669.219 186.573L667.954 157.36Z"
                fill="#917CA8" />
            <path
                d="M657.651 191.665L687.506 189.846L687.895 204.413L688.132 216.497L679.32 217.117L658.448 217.835L657.651 191.665Z"
                fill="#917CA8" />
            <path
                d="M565.446 234.402L694.051 226.775L695.518 255.977L560.553 262.757L565.446 234.402Z"
                fill="#917CA8" />
            <path
                d="M654.151 157.116L676.567 155.99L678.063 185.767L655.438 186.904L654.151 157.116Z"
                fill="#927EA9" />
            <path
                d="M643.129 192.107L673.405 190.249L673.804 205.145L674.05 217.499L665.112 218.108L643.95 218.814L643.129 192.107Z"
                fill="#927EA9" />
            <path
                d="M552.307 235.506L680.181 227.923L681.677 257.7L547.576 264.437L552.307 235.506Z"
                fill="#927EA9" />
            <path
                d="M640.349 156.871L662.629 155.752L664.154 186.102L641.658 187.232L640.349 156.871Z"
                fill="#9380AA" />
            <path
                d="M628.605 192.548L659.298 190.655L659.711 205.877L659.967 218.502L650.906 219.103L629.451 219.796L628.605 192.548Z"
                fill="#9380AA" />
            <path
                d="M539.167 236.614L666.313 229.071L667.837 259.424L534.601 266.117L539.167 236.614Z"
                fill="#9380AA" />
            <path
                d="M626.545 156.624L648.69 155.511L650.243 186.436L627.876 187.559L626.545 156.624Z"
                fill="#9481AB" />
            <path
                d="M614.082 192.993L645.196 191.058L645.617 206.609L645.884 219.505L636.701 220.095L614.95 220.781L614.082 192.993Z"
                fill="#9481AB" />
            <path
                d="M526.025 237.719L652.443 230.219L653.996 261.147L521.624 267.797L526.025 237.719Z"
                fill="#9481AB" />
            <path
                d="M612.746 156.379L634.751 155.274L636.333 186.773L614.095 187.89L612.746 156.379Z"
                fill="#9683AB" />
            <path
                d="M599.562 193.434L631.091 191.461L631.526 207.338L631.805 220.507L622.492 221.086L600.454 221.763L599.562 193.434Z"
                fill="#9683AB" />
            <path
                d="M512.884 238.824L638.574 231.367L640.156 262.87L508.648 269.476L512.884 238.824Z"
                fill="#9683AB" />
            <path
                d="M598.943 156.131L620.812 155.033L622.423 187.107L600.314 188.218L598.943 156.131Z"
                fill="#9785AC" />
            <path
                d="M585.039 193.875L616.988 191.867L617.432 208.07L617.723 221.513L608.286 222.078L585.955 222.744L585.039 193.875Z"
                fill="#9785AC" />
            <path
                d="M499.748 239.932L624.705 232.515L626.317 264.593L495.674 271.156L499.748 239.932Z"
                fill="#9785AC" />
            <path
                d="M585.141 155.887L606.874 154.795L608.515 187.445L586.534 188.549L585.141 155.887Z"
                fill="#9887AD" />
            <path
                d="M570.518 194.317L602.884 192.27L603.34 208.803L603.641 222.512L594.082 223.073L571.457 223.726L570.518 194.317Z"
                fill="#9887AD" />
            <path
                d="M486.606 241.036L610.836 233.667L612.476 266.313L482.697 272.833L486.606 241.036Z"
                fill="#9887AD" />
            <path
                d="M571.338 155.639L592.936 154.555L594.605 187.779L572.753 188.877L571.338 155.639Z"
                fill="#9988AE" />
            <path
                d="M555.993 194.758L588.78 192.673L589.246 209.532L589.558 223.515L579.876 224.064L556.956 224.708L555.993 194.758Z"
                fill="#9988AE" />
            <path
                d="M473.466 242.141L596.967 234.815L598.636 268.036L469.722 274.512L473.466 242.141Z"
                fill="#9988AE" />
            <path
                d="M557.538 155.395L578.996 154.317L580.694 188.113L558.971 189.204L557.538 155.395Z"
                fill="#9A8AAF" />
            <path
                d="M541.472 195.203L574.676 193.08L575.155 210.264L575.476 224.521L565.668 225.056L542.458 225.69L541.472 195.203Z"
                fill="#9A8AAF" />
            <path
                d="M460.324 243.249L583.097 235.963L584.795 269.76L456.745 276.192L460.324 243.249Z"
                fill="#9A8AAF" />
            <path
                d="M543.735 155.147L565.057 154.076L566.784 188.451L545.193 189.535L543.735 155.147Z"
                fill="#9C8CB0" />
            <path
                d="M526.948 195.644L560.573 193.482L561.061 210.996L561.396 225.524L551.461 226.047L527.958 226.672L526.948 195.644Z"
                fill="#9C8CB0" />
            <path
                d="M447.186 244.354L569.228 237.112L570.955 271.483L443.772 277.872L447.186 244.354Z"
                fill="#9C8CB0" />
            <path
                d="M529.933 154.903L551.119 153.839L552.875 188.785L531.414 189.863L529.933 154.903Z"
                fill="#9D8DB1" />
            <path
                d="M512.426 196.085L546.472 193.889L546.97 211.728L547.315 226.526L537.257 227.038L513.459 227.654L512.426 196.085Z"
                fill="#9D8DB1" />
            <path
                d="M434.046 245.458L555.36 238.26L557.116 273.206L430.797 279.552L434.046 245.458Z"
                fill="#9D8DB1" />
            <path d="M516.13 154.655L537.18 153.598L538.965 189.119L517.632 190.191L516.13 154.655Z"
                fill="#9E8FB2" />
            <path
                d="M497.902 196.527L532.365 194.292L532.876 212.457L533.231 227.529L523.047 228.034L498.963 228.636L497.902 196.527Z"
                fill="#9E8FB2" />
            <path
                d="M420.904 246.567L541.49 239.408L543.275 274.929L417.821 281.232L420.904 246.567Z"
                fill="#9E8FB2" />
            <path d="M502.33 154.411L523.241 153.36L525.054 189.457L503.851 190.522L502.33 154.411Z"
                fill="#9F91B2" />
            <path
                d="M483.383 196.968L518.264 194.695L518.784 213.189L519.153 228.531L508.843 229.025L484.464 229.618L483.383 196.968Z"
                fill="#9F91B2" />
            <path
                d="M407.764 247.671L527.622 240.556L529.435 276.653L404.846 282.911L407.764 247.671Z"
                fill="#9F91B2" />
            <path
                d="M488.527 154.166L509.306 153.123L511.148 189.791L490.07 190.849L488.527 154.166Z"
                fill="#A192B3" />
            <path
                d="M468.859 197.412L504.157 195.101L504.694 213.921L505.07 229.534L494.637 230.016L469.964 230.599L468.859 197.412Z"
                fill="#A192B3" />
            <path
                d="M394.626 248.779L513.755 241.704L515.598 278.376L391.869 284.591L394.626 248.779Z"
                fill="#A192B3" />
            <path
                d="M474.725 153.919L495.368 152.882L497.239 190.125L476.289 191.177L474.725 153.919Z"
                fill="#A294B4" />
            <path
                d="M454.336 197.854L490.055 195.504L490.598 214.654L490.987 230.537L480.428 231.008L455.464 231.581L454.336 197.854Z"
                fill="#A294B4" />
            <path
                d="M381.486 249.884L499.887 242.852L501.758 280.099L378.894 286.271L381.486 249.884Z"
                fill="#A294B4" />
            <path
                d="M460.923 153.674L481.429 152.644L483.329 190.462L462.509 191.508L460.923 153.674Z"
                fill="#A396B5" />
            <path
                d="M439.813 198.295L475.951 195.907L476.505 215.383L476.905 231.539L466.222 232.003L440.965 232.563L439.813 198.295Z"
                fill="#A396B5" />
            <path
                d="M368.344 250.989L486.017 244.001L487.917 281.819L365.917 287.947L368.344 250.989Z"
                fill="#A396B5" />
            <path
                d="M447.122 153.426L467.489 152.403L469.418 190.796L448.727 191.836L447.122 153.426Z"
                fill="#A497B5" />
            <path
                d="M425.29 198.736L461.848 196.313L462.416 216.115L462.825 232.542L452.017 232.994L426.466 233.545L425.29 198.736Z"
                fill="#A497B5" />
            <path
                d="M355.203 252.097L472.148 245.149L474.077 283.542L352.944 289.627L355.203 252.097Z"
                fill="#A497B5" />
            <path
                d="M433.319 153.182L453.55 152.166L455.508 191.13L434.946 192.163L433.319 153.182Z"
                fill="#A599B6" />
            <path
                d="M410.768 199.181L447.743 196.716L448.324 216.847L448.744 233.544L437.813 233.986L411.967 234.527L410.768 199.181Z"
                fill="#A599B6" />
            <path d="M342.063 253.201L458.28 246.3L460.238 285.265L339.97 291.307L342.063 253.201Z"
                fill="#A599B6" />
            <path
                d="M419.517 152.934L439.613 151.925L441.599 191.468L421.166 192.494L419.517 152.934Z"
                fill="#A79BB7" />
            <path
                d="M396.244 199.622L433.64 197.119L434.231 217.579L434.66 234.547L423.603 234.977L397.471 235.509L396.244 199.622Z"
                fill="#A79BB7" />
            <path
                d="M328.924 254.306L444.41 247.449L446.396 286.988L326.993 292.987L328.924 254.306Z"
                fill="#A79BB7" />
            <path
                d="M405.718 152.69L425.674 151.687L427.689 191.802L407.385 192.822L405.718 152.69Z"
                fill="#A89CB8" />
            <path
                d="M381.722 200.064L419.535 197.525L420.139 218.308L420.579 235.55L409.399 235.972L382.972 236.491L381.722 200.064Z"
                fill="#A89CB8" />
            <path
                d="M315.784 255.414L430.542 248.597L432.557 288.712L314.018 294.666L315.784 255.414Z"
                fill="#A89CB8" />
            <path
                d="M391.914 152.442L411.734 151.446L413.778 192.14L393.603 193.153L391.914 152.442Z"
                fill="#A99EB8" />
            <path
                d="M367.202 200.505L405.432 197.928L406.045 219.04L406.499 236.552L395.192 236.964L368.472 237.472L367.202 200.505Z"
                fill="#A99EB8" />
            <path
                d="M302.642 256.519L416.672 249.745L418.716 290.435L301.041 296.346L302.642 256.519Z"
                fill="#A99EB8" />
            <path
                d="M378.111 152.198L397.795 151.209L399.868 192.474L379.822 193.481L378.111 152.198Z"
                fill="#AA9FB9" />
            <path
                d="M352.68 200.946L391.331 198.334L391.954 219.772L392.417 237.555L380.984 237.955L353.973 238.454L352.68 200.946Z"
                fill="#AA9FB9" />
            <path
                d="M289.501 257.623L402.803 250.893L404.876 292.158L288.065 298.026L289.501 257.623Z"
                fill="#AA9FB9" />
            <path
                d="M364.309 151.95L383.857 150.968L385.959 192.808L366.042 193.808L364.309 151.95Z"
                fill="#ABA1BA" />
            <path
                d="M338.156 201.391L377.224 198.737L377.86 220.505L378.334 238.557L366.778 238.947L339.473 239.436L338.156 201.391Z"
                fill="#ABA1BA" />
            <path
                d="M276.365 258.731L388.935 252.041L391.037 293.881L275.09 299.706L276.365 258.731Z"
                fill="#ABA1BA" />
            <path
                d="M350.507 151.706L369.919 150.73L372.049 193.142L352.261 194.136L350.507 151.706Z"
                fill="#ACA2BB" />
            <path
                d="M323.634 201.832L363.123 199.14L363.768 221.233L364.252 239.56L352.574 239.938L324.975 240.418L323.634 201.832Z"
                fill="#ACA2BB" />
            <path
                d="M263.223 259.836L375.065 253.19L377.195 295.605L262.113 301.386L263.223 259.836Z"
                fill="#ACA2BB" />
            <path
                d="M336.706 151.461L355.979 150.493L358.139 193.48L338.479 194.467L336.706 151.461Z"
                fill="#ADA4BB" />
            <path
                d="M309.11 202.274L349.017 199.546L349.675 221.966L350.169 240.562L338.364 240.933L310.474 241.4L309.11 202.274Z"
                fill="#ADA4BB" />
            <path
                d="M250.083 260.944L361.197 254.338L363.356 297.328L249.142 303.065L250.083 260.944Z"
                fill="#ADA4BB" />
            <path
                d="M322.903 151.213L342.04 150.252L344.228 193.814L324.698 194.795L322.903 151.213Z"
                fill="#AEA5BC" />
            <path
                d="M294.588 202.715L334.915 199.949L335.583 222.698L336.091 241.565L324.159 241.925L295.976 242.382L294.588 202.715Z"
                fill="#AEA5BC" />
            <path
                d="M236.941 262.049L347.327 255.486L349.515 299.047L236.165 304.742L236.941 262.049Z"
                fill="#AEA5BC" />
            <path
                d="M309.102 150.969L328.106 150.014L330.323 194.151L310.921 195.126L309.102 150.969Z"
                fill="#AFA7BD" />
            <path
                d="M280.064 203.16L320.809 200.356L321.489 223.43L322.007 242.568L309.953 242.916L281.479 243.364L280.064 203.16Z"
                fill="#AFA7BD" />
            <path
                d="M223.803 263.153L333.461 256.634L335.678 300.771L223.189 306.421L223.803 263.153Z"
                fill="#AFA7BD" />
            <path
                d="M295.302 150.721L314.167 149.773L316.413 194.485L297.141 195.453L295.302 150.721Z"
                fill="#B0A8BD" />
            <path
                d="M265.541 203.601L306.707 200.759L307.397 224.159L307.925 243.57L295.748 243.908L266.98 244.346L265.541 203.601Z"
                fill="#B0A8BD" />
            <path
                d="M210.664 264.261L319.593 257.782L321.839 302.494L210.214 308.101L210.664 264.261Z"
                fill="#B0A8BD" />
            <path
                d="M281.498 150.477L300.227 149.536L302.502 194.819L283.358 195.781L281.498 150.477Z"
                fill="#B1AABE" />
            <path
                d="M251.019 204.042L292.602 201.162L293.305 224.891L293.843 244.576L281.54 244.903L252.481 245.327L251.019 204.042Z"
                fill="#B1AABE" />
            <path
                d="M197.522 265.366L305.723 258.934L307.998 304.217L197.237 309.781L197.522 265.366Z"
                fill="#B1AABE" />
            <path
                d="M267.695 150.229L286.289 149.295L288.592 195.157L269.578 196.112L267.695 150.229Z"
                fill="#B2ABBE" />
            <path
                d="M236.498 204.483L278.499 201.568L279.211 225.623L279.763 245.575L267.334 245.894L237.981 246.309L236.498 204.483Z"
                fill="#B2ABBE" />
            <path
                d="M184.381 266.471L291.855 260.082L294.159 305.94L184.262 311.461L184.381 266.471Z"
                fill="#B2ABBE" />
            <path
                d="M253.894 149.985L272.351 149.057L274.683 195.491L255.798 196.44L253.894 149.985Z"
                fill="#B3ACBF" />
            <path
                d="M221.976 204.925L264.398 201.971L265.12 226.352L265.682 246.581L253.129 246.885L223.483 247.291L221.976 204.925Z"
                fill="#B3ACBF" />
            <path
                d="M171.243 267.579L277.985 261.23L280.317 307.664L171.285 313.141L171.243 267.579Z"
                fill="#B3ACBF" />
            <path
                d="M240.094 149.737L258.412 148.817L260.774 195.825L242.017 196.767L240.094 149.737Z"
                fill="#B4AEC0" />
            <path
                d="M207.453 205.37L250.291 202.374L251.026 227.085L251.598 247.584L238.919 247.877L208.983 248.277L207.453 205.37Z"
                fill="#B4AEC0" />
            <path
                d="M158.103 268.683L264.117 262.378L266.478 309.387L158.314 314.82L158.103 268.683Z"
                fill="#B4AEC0" />
            <path
                d="M226.29 149.492L244.472 148.579L246.863 196.163L228.235 197.098L226.29 149.492Z"
                fill="#B5AFC0" />
            <path
                d="M192.931 205.811L236.19 202.78L236.934 227.817L237.517 248.587L224.715 248.872L194.484 249.259L192.931 205.811Z"
                fill="#B5AFC0" />
            <path d="M144.961 269.788L250.247 263.526L252.637 311.11L145.337 316.5L144.961 269.788Z"
                fill="#B5AFC0" />
            <path
                d="M212.487 149.245L230.533 148.338L232.953 196.497L214.454 197.426L212.487 149.245Z"
                fill="#B6B1C1" />
            <path
                d="M178.407 206.252L222.084 203.183L222.841 228.549L223.436 249.589L210.509 249.863L179.987 250.24L178.407 206.252Z"
                fill="#B6B1C1" />
            <path d="M131.82 270.896L236.378 264.675L238.797 312.833L132.361 318.18L131.82 270.896Z"
                fill="#B6B1C1" />
            <path d="M198.686 149L216.596 148.101L219.044 196.831L200.674 197.754L198.686 149Z"
                fill="#B7B2C1" />
            <path
                d="M163.885 206.693L207.983 203.589L208.749 229.278L209.355 250.592L196.301 250.855L165.489 251.222L163.885 206.693Z"
                fill="#B7B2C1" />
            <path
                d="M118.684 272.001L222.51 265.823L224.957 314.553L119.386 319.856L118.684 272.001Z"
                fill="#B7B2C1" />
            <path
                d="M184.886 148.756L202.657 147.863L205.134 197.168L186.893 198.085L184.886 148.756Z"
                fill="#B8B3C2" />
            <path
                d="M149.361 207.138L193.876 203.992L194.655 230.01L195.271 251.594L182.095 251.846L150.989 252.204L149.361 207.138Z"
                fill="#B8B3C2" />
            <path
                d="M105.542 273.109L208.639 266.971L211.116 316.276L106.409 321.536L105.542 273.109Z"
                fill="#B8B3C2" />
            <path
                d="M171.082 148.508L188.717 147.622L191.223 197.503L173.111 198.412L171.082 148.508Z"
                fill="#B9B4C2" />
            <path
                d="M134.842 207.579L179.775 204.395L180.564 230.742L181.19 252.597L167.89 252.838L136.49 253.186L134.842 207.579Z"
                fill="#B9B4C2" />
            <path
                d="M92.4014 274.213L194.771 268.119L197.277 317.999L93.434 323.216L92.4014 274.213Z"
                fill="#B9B4C2" />
            <path d="M157.28 148.264L174.779 147.385L177.313 197.84L159.33 198.744L157.28 148.264Z"
                fill="#BAB6C2" />
            <path
                d="M120.318 208.021L165.672 204.801L166.47 231.475L167.11 253.599L153.684 253.833L121.99 254.168L120.318 208.021Z"
                fill="#BAB6C2" />
            <path
                d="M79.2598 275.318L180.901 269.267L183.436 319.723L80.4576 324.896L79.2598 275.318Z"
                fill="#BAB6C2" />
            <path
                d="M143.478 148.016L160.841 147.144L163.404 198.174L145.55 199.071L143.478 148.016Z"
                fill="#BAB7C3" />
            <path
                d="M105.795 208.462L151.566 205.204L152.377 232.203L153.027 254.602L139.475 254.824L107.491 255.15L105.795 208.462Z"
                fill="#BAB7C3" />
            <path
                d="M66.123 276.426L167.033 270.416L169.597 321.446L67.4822 326.576L66.123 276.426Z"
                fill="#BAB7C3" />
            <path
                d="M129.678 147.772L146.905 146.906L149.498 198.508L131.769 199.399L129.678 147.772Z"
                fill="#BBB8C3" />
            <path
                d="M91.2725 208.903L137.464 205.607L138.285 232.936L138.945 255.605L125.27 255.816L92.9951 256.131L91.2725 208.903Z"
                fill="#BBB8C3" />
            <path
                d="M52.9814 277.531L153.167 271.567L155.759 323.169L54.5093 328.255L52.9814 277.531Z"
                fill="#BBB8C3" />
            <path
                d="M115.875 147.524L132.966 146.665L135.587 198.846L117.991 199.73L115.875 147.524Z"
                fill="#BCB9C4" />
            <path
                d="M76.75 209.348L123.359 206.013L124.193 233.668L124.863 256.607L111.065 256.807L78.4961 257.113L76.75 209.348Z"
                fill="#BCB9C4" />
            <path
                d="M39.8408 278.635L139.299 272.715L141.92 324.892L41.5338 329.935L39.8408 278.635Z"
                fill="#BCB9C4" />
            <path d="M102.072 147.28L119.027 146.428L121.677 199.18L104.209 200.057L102.072 147.28Z"
                fill="#BDBAC4" />
            <path
                d="M62.2266 209.789L109.256 206.416L110.099 234.4L110.783 257.61L96.8559 257.802L63.9963 258.095L62.2266 209.789Z"
                fill="#BDBAC4" />
            <path
                d="M26.6992 279.743L125.429 273.863L128.079 326.615L28.5573 331.615L26.6992 279.743Z"
                fill="#BDBAC4" />
            <path
                d="M88.2695 147.032L105.089 146.187L107.768 199.514L90.4291 200.385L88.2695 147.032Z"
                fill="#BEBCC4" />
            <path
                d="M47.7031 210.231L95.1506 206.823L96.0065 235.129L96.7005 258.612L82.6501 258.794L49.4966 259.077L47.7031 210.231Z"
                fill="#BEBCC4" />
            <path
                d="M13.5625 280.848L111.561 275.012L114.239 328.339L15.5822 333.295L13.5625 280.848Z"
                fill="#BEBCC4" />
            <path
                d="M74.4697 146.787L91.1495 145.949L93.8572 199.852L76.6477 200.716L74.4697 146.787Z"
                fill="#BFBDC5" />
            <path
                d="M33.1807 210.672L81.049 207.225L81.9145 235.861L82.6186 259.615L68.4453 259.785L34.9978 260.059L33.1807 210.672Z"
                fill="#BFBDC5" />
            <path
                d="M0.420898 281.953L97.6906 276.16L100.398 330.062L2.60578 334.975L0.420898 281.953Z"
                fill="#BFBDC5" />
            <path d="M60.667 146.54L77.2109 145.708L79.9475 200.186L62.8669 201.044L60.667 146.54Z"
                fill="#C0BEC5" />
            <path
                d="M18.6611 211.113L66.9432 207.628L67.8217 236.593L68.5359 260.618L54.2398 260.777L20.4984 261.041L18.6611 211.113Z"
                fill="#C0BEC5" />
            <path
                d="M-12.7197 283.061L83.8218 277.308L86.5584 331.785L-10.3699 336.654L-12.7197 283.061Z"
                fill="#C0BEC5" />
            <path
                d="M46.8643 146.295L63.2722 145.471L66.0376 200.52L49.0859 201.371L46.8643 146.295Z"
                fill="#C1BFC5" />
            <path
                d="M4.13867 211.558L52.8416 208.035L53.7294 237.322L54.4573 261.62L40.0316 261.772L5.99942 262.023L4.13867 211.558Z"
                fill="#C1BFC5" />
            <path
                d="M-25.8604 284.165L69.9531 278.456L72.7184 333.505L-23.3455 338.331L-25.8604 284.165Z"
                fill="#C1BFC5" />
            <path
                d="M33.0615 146.051L49.3336 145.234L52.1278 200.857L35.3051 201.702L33.0615 146.051Z"
                fill="#C1C0C5" />
            <path
                d="M-10.3848 211.999L38.7355 208.438L39.6363 238.054L40.3744 262.623L25.8258 262.763L-8.49682 263.004L-10.3848 211.999Z"
                fill="#C1C0C5" />
            <path
                d="M-38.998 285.27L56.0838 279.604L58.8781 335.228L-36.3215 340.011L-38.998 285.27Z"
                fill="#C1C0C5" />
            <path d="M19.293 145.801L35.4291 144.991L38.2522 201.19L21.555 202.028L19.293 145.801Z"
                fill="#C2C1C6" />
            <path
                d="M-24.876 212.439L24.6651 208.839L25.579 238.785L26.3236 263.624L11.6522 263.753L-22.9645 263.985L-24.876 212.439Z"
                fill="#C2C1C6" />
            <path
                d="M-52.1074 286.376L42.2497 280.751L45.0729 336.95L-49.2625 341.689L-52.1074 286.376Z"
                fill="#C2C1C6" />
            <path
                d="M5.56055 145.554L21.5572 144.75L24.4091 201.52L7.84432 202.353L5.56055 145.554Z"
                fill="#C3C2C6" />
            <path
                d="M-39.3301 212.877L10.6285 209.242L11.5517 239.514L12.31 264.623L-2.48781 264.741L-37.3949 264.963L-39.3301 212.877Z"
                fill="#C3C2C6" />
            <path
                d="M-65.1797 287.477L28.446 281.896L31.298 338.67L-62.1695 343.365L-65.1797 287.477Z"
                fill="#C3C2C6" />
            <path
                d="M-8.17676 145.303L7.68752 144.506L10.5685 201.855L-5.8709 202.68L-8.17676 145.303Z"
                fill="#C4C3C6" />
            <path
                d="M-78.25 288.582L14.6474 283.04L17.5283 340.389L-75.0784 345.041L-78.25 288.582Z"
                fill="#C4C3C6" />
            <path
                d="M-91.3252 289.683L0.844261 284.185L3.75405 342.109L-87.9849 346.718L-91.3252 289.683Z"
                fill="#C5C4C6" />
        </g>
    </g>
    <defs>
        <clipPath id="clip0_516_430">
            <rect width="1920" height="388" fill="white" />
        </clipPath>
    </defs>
</svg>